<svg id="Layer_1" data-name="Layer 1" xmlns="http://www.w3.org/2000/svg" viewBox="0 0 720 132.84"><defs><style>.cls-1,.cls-3{fill:#002b7f;}.cls-2{fill:#75aadb;}.cls-3{fill-rule:evenodd;}</style></defs><title>logo-ctl-color-digital</title><path class="cls-1" d="M146.7,296.69c-6-5.41-7.52-12.49-7.52-18.4a24.83,24.83,0,0,1,7-17c3.73-3.73,9.39-6.65,19-6.65a53.33,53.33,0,0,1,9,.75,56.21,56.21,0,0,0,6.34.93c.68.06.81.31.81.68s-.19,1.24-.31,3.48c-.13,2.05-.13,5.47-.19,6.41s-.19,1.3-.56,1.3-.5-.43-.5-1.3a8.57,8.57,0,0,0-2.61-6.34c-2.17-1.87-7-3.55-12.43-3.55-8.27,0-12.12,2.43-14.3,4.54-4.54,4.35-5.59,9.88-5.59,16.22,0,11.88,9.13,22.76,22.44,22.76,4.66,0,8.33-.56,10.81-3.11a11.75,11.75,0,0,0,2.3-5.22c.13-.69.25-.94.63-.94s.43.44.43.94a63,63,0,0,1-1.37,7.95c-.37,1.18-.49,1.31-1.61,1.81-2.49,1-7.21,1.43-11.19,1.43C157.89,303.41,151.61,301.11,146.7,296.69Z" transform="translate(-35.91 -238.86)"/><path class="cls-1" d="M208.3,261.82c12.3,0,21.63,7.52,21.63,19.83,0,11.81-8.77,21.57-21.94,21.57-15,0-21.39-11.25-21.39-20.76C186.6,273.94,193.19,261.82,208.3,261.82Zm1.24,39.23c4.91,0,14.8-2.62,14.8-17.91,0-12.68-7.71-19.33-16.35-19.33-9.14,0-15.73,5.72-15.73,17.22C192.26,293.33,199.66,301.05,209.54,301.05Z" transform="translate(-35.91 -238.86)"/><path class="cls-1" d="M244.75,287.3c0,7.78.13,10.95,1.12,11.88s3,1.24,7.27,1.24c2.86,0,5.29-.06,6.59-1.61a6.47,6.47,0,0,0,1.31-3c.06-.37.25-.68.56-.68s.37.25.37.81a32.9,32.9,0,0,1-.81,5.28c-.37,1.24-.56,1.43-3.48,1.43-3.91,0-7-.06-9.51-.19s-4.35-.12-6-.12c-.25,0-1.18,0-2.24.06s-2.3.13-3.17.13c-.56,0-.87-.13-.87-.44a.43.43,0,0,1,.44-.44,8.1,8.1,0,0,0,1.68-.24c1.05-.25,1.18-1.25,1.43-2.8a108.23,108.23,0,0,0,.31-11.44v-9.32c0-8.21,0-9.7-.13-11.38s-.43-2.67-2.23-2.92a18.3,18.3,0,0,0-1.87-.13.51.51,0,0,1-.43-.43c0-.31.24-.44.87-.44,2.48,0,5.9.13,6.21.13s4.35-.13,6-.13c.56,0,.87.13.87.44s-.25.37-.43.37c-.38,0-1.18.06-1.81.13-1.61.31-1.92,1.12-2.05,3-.06,1.68-.06,3.17-.06,11.38Z" transform="translate(-35.91 -238.86)"/><path class="cls-1" d="M267.48,277.86c0-8.21,0-9.7-.12-11.38s-.44-2.67-2.24-2.92a18.1,18.1,0,0,0-1.86-.13.52.52,0,0,1-.44-.43c0-.31.25-.44.87-.44,2.49,0,5.78.13,6.28.13s3.92-.13,5.53-.13c.63,0,.94.13.94.44a.53.53,0,0,1-.5.43,6.18,6.18,0,0,0-1.37.13c-1.43.25-1.74,1.18-1.86,2.92s-.13,3.17-.13,11.38v7.39c0,7.65,1.68,10.82,4,12.93,2.68,2.43,5,2.87,8.14,2.87a11.22,11.22,0,0,0,8.46-3.74c2.55-3,3.11-7.39,3.11-12.8v-6.65c0-8.21-.06-9.7-.13-11.38s-.37-2.67-2.17-2.92a18.3,18.3,0,0,0-1.87-.13.45.45,0,0,1-.43-.43c0-.31.25-.44.87-.44,2.42,0,5.59.13,5.9.13s3-.13,4.6-.13c.63,0,.88.13.88.44a.46.46,0,0,1-.44.43,6.13,6.13,0,0,0-1.37.13c-1.49.31-1.8,1.18-1.92,2.92s-.07,3.17-.07,11.38v5.66c0,5.71-.74,12.11-5.1,15.85a16.56,16.56,0,0,1-11.43,3.85c-1.81,0-7.52-.12-11.38-3.73-2.67-2.49-4.79-6.16-4.79-13.86Z" transform="translate(-35.91 -238.86)"/><path class="cls-1" d="M353.85,295.7c.19,1.86.56,4.72,2.8,5.47a11.66,11.66,0,0,0,3.54.49c.25,0,.43.13.43.38s-.49.5-1.11.5c-1.25,0-7.34-.13-9.33-.31-1.3-.13-1.55-.32-1.55-.57a.45.45,0,0,1,.37-.43c.31-.06.37-.87.25-1.86l-2.61-26.74h-.13l-13.18,27c-1.11,2.3-1.42,2.8-1.92,2.8s-.81-.5-1.87-2.42c-1.43-2.61-5-9.39-6.4-12.25-1.62-3.36-6-12.25-7-14.42h-.25l-2.11,23.87c-.07.81-.07,1.8-.07,2.68a1.47,1.47,0,0,0,1.31,1.48,8.78,8.78,0,0,0,2.11.31.47.47,0,0,1,.44.38c0,.37-.38.5-1,.5-2.05,0-4.66-.19-5.09-.19s-3.11.19-4.6.19c-.56,0-.94-.13-.94-.5,0-.19.25-.38.56-.38a11,11,0,0,0,1.62-.18c1.8-.31,1.86-2.24,2.11-4.23l4-34.5c.06-.56.31-.93.62-.93a1.23,1.23,0,0,1,1.12.81l16.54,32.82,15.91-32.76c.25-.5.5-.87.87-.87s.69.43.81,1.43Z" transform="translate(-35.91 -238.86)"/><path class="cls-1" d="M369.61,277.86c0-8.21,0-9.7-.12-11.38s-.44-2.8-2.24-3.05a18.37,18.37,0,0,0-1.87-.12c-.18,0-.43-.12-.43-.31s.25-.44.87-.44c2.48,0,6,.13,6.34.13,1.3,0,3.85-.13,6.4-.13,9.14,0,11.5,5.29,11.5,8.09,0,4.16-2.73,6.77-5.53,9.26,4.16,1.24,9.64,5,9.64,11s-4.42,11.75-13.74,11.75c-1,0-3-.06-4.73-.19l-3.54-.12c-.13,0-1.12.06-2.24.06s-2.42.13-3.29.13c-.56,0-.88-.13-.88-.44s.13-.31.44-.31a16.21,16.21,0,0,0,1.68-.25c1.06-.19,1.18-1.37,1.43-2.92a108.23,108.23,0,0,0,.31-11.44Zm4.72,1.11c0,.38.13.5.38.57a17.41,17.41,0,0,0,3.35.24c3.05,0,4.23-.12,5.35-1.36a8.13,8.13,0,0,0,2.11-5.66c0-4-2.23-8.52-7.7-8.52a16.63,16.63,0,0,0-2.8.25c-.5.13-.69.25-.69.56Zm0,5.85c0,4.1,0,10.44.07,11.25.18,2.55.18,3.17,1.86,4a13.15,13.15,0,0,0,4.79.75c3.6,0,8-1.37,8-8.15a11.57,11.57,0,0,0-5.22-9.63c-1.87-1.18-3.61-1.12-4.92-1.37-.68-.12-3.41-.12-4.28-.12-.19,0-.32.12-.32.37Z" transform="translate(-35.91 -238.86)"/><path class="cls-1" d="M409,287.18c0,5.1,0,9.26.25,11.44.19,1.55.37,2.55,2,2.8a23.06,23.06,0,0,0,2.49.24.42.42,0,0,1,.43.44c0,.25-.25.44-.87.44-3.05,0-6.59-.19-6.84-.19s-3.73.19-5.4.19c-.56,0-.88-.13-.88-.44a.43.43,0,0,1,.44-.44,8.1,8.1,0,0,0,1.68-.24c1.06-.25,1.24-1.25,1.43-2.8.25-2.18.31-6.34.31-11.44v-9.32c0-8.21,0-9.7-.12-11.38s-.56-2.61-1.75-2.86a10.23,10.23,0,0,0-1.67-.19.46.46,0,0,1-.44-.43c0-.31.25-.44.87-.44,1.8,0,5.22.13,5.53.13s3.79-.13,5.47-.13c.63,0,.87.13.87.44a.51.51,0,0,1-.43.43,5.87,5.87,0,0,0-1.37.13c-1.49.31-1.8,1.06-1.93,2.92-.06,1.68-.06,3.17-.06,11.38Z" transform="translate(-35.91 -238.86)"/><path class="cls-1" d="M437.31,263.62c.69-1.74.94-2.05,1.31-2.05.56,0,.75.75,1.31,1.93,1,2.24,9.75,24.05,13.11,32.07,2,4.73,3.48,5.41,4.66,5.78a7.58,7.58,0,0,0,2.18.31c.31,0,.68.13.68.44s-.62.44-1.24.44c-.81,0-4.85,0-8.64-.13-1.06-.06-1.93-.06-1.93-.37s.13-.25.38-.38a1,1,0,0,0,.49-1.42l-4.91-12.13a.44.44,0,0,0-.5-.31H431.59a.58.58,0,0,0-.55.44l-3.11,8.45a10.88,10.88,0,0,0-.81,3.55c0,1.05.93,1.42,1.86,1.42h.5c.44,0,.56.19.56.44s-.31.44-.81.44c-1.3,0-4.29-.19-4.91-.19s-3.29.19-5.53.19c-.68,0-1.06-.13-1.06-.44a.49.49,0,0,1,.5-.44,16.08,16.08,0,0,0,1.62-.12c2.48-.31,3.54-2.17,4.6-4.85Zm6.1,22c.24,0,.24-.13.18-.38l-5.41-14.48q-.46-1.22-.93,0l-5.1,14.48c-.06.25,0,.38.19.38Z" transform="translate(-35.91 -238.86)"/><path class="cls-2" d="M474.91,313.39V251.23h3.36v62.16Z" transform="translate(-35.91 -238.86)"/><path class="cls-2" d="M504.3,296.69c-6-5.41-7.53-12.49-7.53-18.4a24.85,24.85,0,0,1,7-17c3.73-3.73,9.38-6.65,19-6.65a53.3,53.3,0,0,1,9,.75,56.21,56.21,0,0,0,6.34.93c.69.06.81.31.81.68s-.19,1.24-.31,3.48c-.13,2.05-.13,5.47-.19,6.41s-.19,1.3-.56,1.3-.49-.43-.49-1.3a8.61,8.61,0,0,0-2.61-6.34c-2.18-1.87-7-3.55-12.44-3.55-8.26,0-12.12,2.43-14.3,4.54-4.53,4.35-5.59,9.88-5.59,16.22,0,11.88,9.14,22.76,22.44,22.76,4.66,0,8.33-.56,10.82-3.11a12,12,0,0,0,2.3-5.22c.12-.69.24-.94.62-.94s.43.44.43.94a64.43,64.43,0,0,1-1.36,7.95c-.38,1.18-.5,1.31-1.62,1.81-2.48,1-7.21,1.43-11.19,1.43C515.48,303.41,509.21,301.11,504.3,296.69Z" transform="translate(-35.91 -238.86)"/><path class="cls-2" d="M566.85,284.51c0,6,0,10.88.32,13.49.18,1.8.55,3.17,2.42,3.42a27.85,27.85,0,0,0,2.8.24c.37,0,.49.19.49.38s-.31.5-1,.5c-3.42,0-7.34-.19-7.65-.19s-4.22.19-6.09.19c-.68,0-1-.13-1-.5,0-.19.13-.38.5-.38a10,10,0,0,0,1.87-.24c1.24-.25,1.55-1.62,1.8-3.42.31-2.61.31-7.52.31-13.49v-26.3l-9.2.13c-3.85.06-5.34.49-6.34,2a11.55,11.55,0,0,0-1.06,1.92c-.18.5-.37.63-.62.63s-.31-.19-.31-.56c0-.62,1.25-6,1.37-6.47s.37-1.18.62-1.18a12,12,0,0,0,2.74.75c1.8.18,4.16.31,4.91.31h23.31a25.5,25.5,0,0,0,4.41-.31c.93-.13,1.49-.32,1.74-.32s.31.38.31.75c0,1.87-.18,6.15-.18,6.84s-.19.81-.44.81-.43-.19-.5-1.06l-.06-.68c-.19-1.87-1.67-3.3-7.64-3.42l-7.84-.13Z" transform="translate(-35.91 -238.86)"/><path class="cls-2" d="M600.57,284.63c0,9.14.25,13.12,1.37,14.24s2.61,1.43,7.46,1.43c3.29,0,6-.06,7.52-1.87a8.49,8.49,0,0,0,1.61-3.73c.07-.49.19-.8.57-.8s.37.24.37.93a38.6,38.6,0,0,1-.94,6.22c-.43,1.42-.61,1.67-3.91,1.67-4.48,0-7.71-.12-10.32-.18s-4.54-.19-6.34-.19c-.25,0-1.31.06-2.55.06s-2.61.13-3.54.13c-.68,0-1-.13-1-.5,0-.19.13-.38.5-.38a10.08,10.08,0,0,0,1.87-.24c1.24-.25,1.55-1.62,1.8-3.42.31-2.61.31-7.52.31-13.49V273.57c0-9.7,0-11.44-.12-13.43s-.63-3.11-2.68-3.54a11,11,0,0,0-2.11-.19c-.25,0-.5-.13-.5-.37s.31-.5,1-.5c2.79,0,6.71.19,7,.19s4.85-.19,6.71-.19c.69,0,1,.13,1,.5s-.25.37-.5.37a13.84,13.84,0,0,0-2,.19c-1.8.31-2.3,1.36-2.43,3.54-.12,2-.12,3.73-.12,13.43Z" transform="translate(-35.91 -238.86)"/><path class="cls-1" d="M143.23,331.11a20.34,20.34,0,0,1,12.74-4,36.67,36.67,0,0,1,8.36,1.13,3.77,3.77,0,0,0,1.32.19c0,1.08.28,4.06.66,6.94a1,1,0,0,1-1.27.09c-.71-3.21-2.83-6.89-9.68-6.89-7.22,0-13.36,4.58-13.36,14.35s6.28,15.39,14,15.39a10.08,10.08,0,0,0,9.87-6.75,1,1,0,0,1,1.22.19,17.65,17.65,0,0,1-2.26,6.46,9.82,9.82,0,0,0-1.65.48,28.23,28.23,0,0,1-7.46,1.08A20.73,20.73,0,0,1,144,356.6a15.23,15.23,0,0,1-6.7-13A15.67,15.67,0,0,1,143.23,331.11Z" transform="translate(-35.91 -238.86)"/><path class="cls-1" d="M174.7,346.92c-1.23,0-1.28.1-1.28,1.28,0,4.77,2.79,8.82,7.84,8.82a5.08,5.08,0,0,0,4.34-2.31.63.63,0,0,1,.85.57,8.24,8.24,0,0,1-7.41,4.39,8.42,8.42,0,0,1-6.84-3.12,10,10,0,0,1-2-6.13c0-5.81,3.83-10.67,9.49-10.67,4.06,0,6.7,2.78,6.7,5.62a3,3,0,0,1-.18,1.22c-.15.29-.81.33-2.79.33Zm2.92-1.41c3.5,0,4.54-.19,4.91-.48.15-.09.29-.28.29-.89,0-1.33-.9-3-3.64-3s-5.19,2.55-5.24,4.11c0,.1,0,.24.33.24Z" transform="translate(-35.91 -238.86)"/><path class="cls-1" d="M191.48,345.46c0-1.84,0-2.08-1.28-2.93l-.42-.28a.64.64,0,0,1,.05-.85,26.78,26.78,0,0,0,4.72-2.31.56.56,0,0,1,.52.33,22.18,22.18,0,0,0-.1,2.22.5.5,0,0,0,.52.52c2-1.23,4.2-2.41,6.61-2.41,3.92,0,5.52,2.69,5.52,5.85v8.12c0,3.4.1,3.87,1.8,4.11l1,.14a.83.83,0,0,1-.09,1.18c-1.42-.1-2.79-.14-4.44-.14s-3.11,0-4.39.14a.83.83,0,0,1-.09-1.18l.89-.14c1.75-.29,1.8-.71,1.8-4.11v-7c0-2.69-1.23-4.68-4.44-4.68a5.14,5.14,0,0,0-4,1.66,4,4,0,0,0-.71,2.83v7.22c0,3.4.1,3.82,1.79,4.11l.85.14a.83.83,0,0,1-.09,1.18c-1.27-.1-2.64-.14-4.3-.14s-3.11,0-4.43.14a.83.83,0,0,1-.1-1.18l1-.14c1.75-.24,1.8-.71,1.8-4.11Z" transform="translate(-35.91 -238.86)"/><path class="cls-1" d="M218.84,342.39c-.8,0-.85.14-.85,1.13v8.83c0,2.74.33,5.24,3.45,5.24a3.38,3.38,0,0,0,1.27-.24c.43-.14,1-.65,1.18-.65.38,0,.57.51.48.8a6.54,6.54,0,0,1-5,2.17c-4.06,0-4.91-2.27-4.91-5.1V343.76c0-1.27-.05-1.37-1-1.37h-1.32a.77.77,0,0,1-.14-1,9.78,9.78,0,0,0,3-1.46,11.92,11.92,0,0,0,2-2.79c.23-.09.8-.09,1,.24v2.12c0,.85.05.9.85.9h5.24a1.51,1.51,0,0,1,.05,2Z" transform="translate(-35.91 -238.86)"/><path class="cls-1" d="M230.55,346.92c-1.23,0-1.28.1-1.28,1.28,0,4.77,2.79,8.82,7.84,8.82a5.08,5.08,0,0,0,4.34-2.31.63.63,0,0,1,.85.57,8.26,8.26,0,0,1-7.41,4.39,8.42,8.42,0,0,1-6.84-3.12,10,10,0,0,1-2-6.13c0-5.81,3.83-10.67,9.49-10.67,4.06,0,6.7,2.78,6.7,5.62a2.79,2.79,0,0,1-.19,1.22c-.14.29-.8.33-2.78.33Zm2.92-1.41c3.5,0,4.54-.19,4.91-.48.14-.09.29-.28.29-.89,0-1.33-.9-3-3.64-3s-5.19,2.55-5.24,4.11c0,.1,0,.24.33.24Z" transform="translate(-35.91 -238.86)"/><path class="cls-1" d="M247.28,345.46c0-1.84,0-2.08-1.27-2.93l-.43-.28a.64.64,0,0,1,0-.85,38.31,38.31,0,0,0,4.77-2.31c.23,0,.37.14.37.33v2.74q0,.34.15.42c1.65-1.37,3.44-2.83,5.19-2.83a2,2,0,0,1,2.12,1.89,2.1,2.1,0,0,1-2,2.17,1.81,1.81,0,0,1-1-.33,3.78,3.78,0,0,0-2.07-.76,2.1,2.1,0,0,0-1.7.95,7.18,7.18,0,0,0-.62,3.63v6.42c0,3.4.1,4,1.89,4.11l1.7.14a.83.83,0,0,1-.09,1.18c-2.22-.1-3.59-.14-5.24-.14s-3.12,0-4.35.14a.83.83,0,0,1-.09-1.18l.9-.14c1.74-.29,1.79-.71,1.79-4.11Z" transform="translate(-35.91 -238.86)"/><path class="cls-1" d="M278.91,342.39c-.8,0-.8.1-.8,1.37v10c0,3.4.09,4,1.79,4.11l1.7.14a.83.83,0,0,1-.09,1.18c-2.13-.1-3.49-.14-5.15-.14s-3.11,0-4.53.14a.83.83,0,0,1-.09-1.18l1.08-.14c1.75-.24,1.8-.71,1.8-4.11v-10c0-1.27,0-1.37-.95-1.37H272a.67.67,0,0,1-.14-.9l2-1a1.07,1.07,0,0,0,.71-.94,21.2,21.2,0,0,1,1.46-8.31c1.18-2.69,3.82-6,8.5-6,2.5,0,4.62,1.14,4.62,2.84a1.8,1.8,0,0,1-1.79,1.7,1.34,1.34,0,0,1-1.13-.57,5.28,5.28,0,0,0-3.78-2.08,3.65,3.65,0,0,0-3.35,2.6,25,25,0,0,0-1,8v1.37c0,1.27,0,1.32.8,1.32h5.38a1.45,1.45,0,0,1-.33,2Z" transform="translate(-35.91 -238.86)"/><path class="cls-1" d="M304.76,349.52c0,5.9-4.06,10.15-10,10.15a9.34,9.34,0,0,1-9.68-9.73,9.92,9.92,0,0,1,10.05-10.19A9.43,9.43,0,0,1,304.76,349.52Zm-10.15-8.36c-3.12,0-5.43,3-5.43,8.17,0,4.3,1.93,8.92,6.09,8.92s5.43-4.34,5.43-8C300.7,346.26,299.09,341.16,294.61,341.16Z" transform="translate(-35.91 -238.86)"/><path class="cls-1" d="M310.12,345.46c0-1.84,0-2.08-1.28-2.93l-.42-.28a.65.65,0,0,1,0-.85,37.65,37.65,0,0,0,4.77-2.31c.24,0,.38.14.38.33v2.74c0,.23.05.37.14.42,1.65-1.37,3.45-2.83,5.19-2.83a2,2,0,0,1,2.13,1.89,2.1,2.1,0,0,1-2,2.17,1.81,1.81,0,0,1-1-.33,3.83,3.83,0,0,0-2.08-.76,2.11,2.11,0,0,0-1.7.95,7.2,7.2,0,0,0-.61,3.63v6.42c0,3.4.09,4,1.89,4.11l1.7.14a.83.83,0,0,1-.1,1.18c-2.21-.1-3.58-.14-5.24-.14s-3.11,0-4.34.14a.83.83,0,0,1-.09-1.18l.89-.14c1.75-.29,1.8-.71,1.8-4.11Z" transform="translate(-35.91 -238.86)"/><path class="cls-1" d="M350.34,351.93c0,5,.1,5.66,2.83,5.9l1.51.14c.29.19.19,1-.09,1.18-2.69-.1-4.3-.14-6.18-.14s-3.55,0-6.57.14a.83.83,0,0,1,0-1.18l1.7-.14c2.69-.24,2.93-.94,2.93-5.9v-21.1c0-1.47,0-1.51-1.42-1.51h-2.59c-2,0-4.63.09-5.81,1.17a8.67,8.67,0,0,0-2.12,3.26.91.91,0,0,1-1.23-.33,48.74,48.74,0,0,0,1.79-7,1.22,1.22,0,0,1,.9,0c.28,1.51,1.84,1.46,4,1.46h19.12c2.55,0,3-.09,3.68-1.32.24-.09.76,0,.85.14a28.66,28.66,0,0,0-.71,7.18c-.18.38-1,.38-1.22.09-.14-1.18-.47-2.93-1.18-3.45-1.09-.8-2.88-1.17-5.48-1.17h-3.35c-1.42,0-1.37,0-1.37,1.6Z" transform="translate(-35.91 -238.86)"/><path class="cls-1" d="M365.48,346.92c-1.23,0-1.28.1-1.28,1.28C364.2,353,367,357,372,357a5.08,5.08,0,0,0,4.34-2.31.62.62,0,0,1,.85.57,8.23,8.23,0,0,1-7.41,4.39,8.43,8.43,0,0,1-6.84-3.12,10,10,0,0,1-2-6.13c0-5.81,3.83-10.67,9.49-10.67,4.06,0,6.71,2.78,6.71,5.62a3,3,0,0,1-.19,1.22c-.14.29-.8.33-2.79.33Zm2.93-1.41c3.49,0,4.53-.19,4.91-.48.14-.09.28-.28.28-.89,0-1.33-.9-3-3.64-3s-5.19,2.55-5.24,4.11c0,.1,0,.24.34.24Z" transform="translate(-35.91 -238.86)"/><path class="cls-1" d="M389.52,349.24c.7-.24.8-.66.8-1.37l0-2.17c.05-1.75-.51-4.11-3.44-4.11-1.32,0-2.93.66-3,2.12,0,.76-.1,1.32-.47,1.61a5.15,5.15,0,0,1-2.7.89.59.59,0,0,1-.66-.65c0-2.46,5.34-5.81,8.78-5.81s5.06,2,4.91,5.52l-.28,8.22c-.09,2.16.33,4.1,2.17,4.1a2.73,2.73,0,0,0,1.18-.28c.24-.14.48-.33.62-.33s.33.28.33.61a5,5,0,0,1-4,2.08,3.77,3.77,0,0,1-3.07-1.47c-.19-.28-.47-.66-.75-.66a7.26,7.26,0,0,0-1.84.95,7.07,7.07,0,0,1-3.4,1.18,4.9,4.9,0,0,1-3.31-1.09,4.43,4.43,0,0,1-1.46-3.3c0-1.84.9-2.93,3.92-4Zm-2.93,8.3a5.29,5.29,0,0,0,2.88-1.18c.56-.56.56-1.22.61-2.22l.1-2.78c0-.52-.19-.62-.48-.62a8.69,8.69,0,0,0-1.93.48c-2.79.94-4.16,1.65-4.16,3.49A2.84,2.84,0,0,0,386.59,357.54Z" transform="translate(-35.91 -238.86)"/><path class="cls-1" d="M414.63,340.55a2.67,2.67,0,0,1,.71,1.89c0,.85-.47,1.75-1,1.75a.85.85,0,0,1-.66-.33,6.42,6.42,0,0,0-4.72-2.51c-3.3,0-6.51,2.6-6.51,7.6,0,3.68,2.54,8.07,7.6,8.07a5.76,5.76,0,0,0,5.24-2.83.76.76,0,0,1,.85.66,8.61,8.61,0,0,1-7.89,4.82,9.11,9.11,0,0,1-6.46-2.41,9.38,9.38,0,0,1-2.74-7c0-5.1,3.58-10.53,11.42-10.53A11.65,11.65,0,0,1,414.63,340.55Z" transform="translate(-35.91 -238.86)"/><path class="cls-1" d="M420.49,332.38c0-2.78-.05-3.06-1.46-3.92l-.48-.28a.73.73,0,0,1,0-.94,33.59,33.59,0,0,0,5.1-2,.51.51,0,0,1,.47.29c0,1.41-.14,3.78-.14,5.85v9.91c0,.43,0,.81.19.9a10.74,10.74,0,0,1,6.37-2.45c4.49,0,6.09,2.78,6.09,6.09v7.88c0,3.4.1,3.92,1.8,4.11l1.27.14a.83.83,0,0,1-.09,1.18c-1.7-.1-3.07-.14-4.72-.14s-3.12,0-4.39.14a.83.83,0,0,1-.1-1.18l1-.14c1.74-.29,1.79-.71,1.79-4.11V347c0-3-1.46-5.05-4.48-5.05a5.71,5.71,0,0,0-3.69,1.27c-.85.71-1,.95-1,2.6v7.93c0,3.4.1,3.87,1.79,4.11l1,.14c.33.19.23,1-.1,1.18-1.41-.1-2.78-.14-4.43-.14s-3.12,0-4.63.14a.83.83,0,0,1-.1-1.18l1.19-.14c1.74-.19,1.79-.71,1.79-4.11Z" transform="translate(-35.91 -238.86)"/><path class="cls-1" d="M445.64,345.46c0-1.84,0-2.08-1.27-2.93l-.43-.28a.64.64,0,0,1,.05-.85,33.94,33.94,0,0,0,4.86-2.31c.24,0,.42.09.47.28-.09,1.65-.18,3.92-.18,5.85v8.5c0,3.4.09,3.87,1.79,4.11l1,.14a.82.82,0,0,1-.1,1.18c-1.41-.1-2.78-.14-4.43-.14s-3.12,0-4.44.14a.83.83,0,0,1-.1-1.18l1-.14c1.74-.24,1.79-.71,1.79-4.11ZM449.56,332a2.46,2.46,0,0,1-4.91.09,2.45,2.45,0,0,1,2.55-2.55A2.36,2.36,0,0,1,449.56,332Z" transform="translate(-35.91 -238.86)"/><path class="cls-1" d="M458,345.46c0-1.84,0-2.08-1.28-2.93l-.42-.28a.65.65,0,0,1,0-.85,26.12,26.12,0,0,0,4.72-2.31.54.54,0,0,1,.52.33c-.09,1.08-.09,1.79-.09,2.22a.5.5,0,0,0,.52.52c2-1.23,4.2-2.41,6.61-2.41,3.92,0,5.52,2.69,5.52,5.85v8.12c0,3.4.1,3.87,1.8,4.11l1,.14a.82.82,0,0,1-.09,1.18c-1.42-.1-2.79-.14-4.44-.14s-3.11,0-4.39.14a.83.83,0,0,1-.09-1.18l.89-.14c1.75-.29,1.8-.71,1.8-4.11v-7c0-2.69-1.23-4.68-4.44-4.68a5.14,5.14,0,0,0-4,1.66,3.94,3.94,0,0,0-.71,2.83v7.22c0,3.4.09,3.82,1.79,4.11l.85.14a.83.83,0,0,1-.09,1.18c-1.28-.1-2.64-.14-4.3-.14s-3.11,0-4.43.14a.83.83,0,0,1-.1-1.18l1-.14c1.75-.24,1.8-.71,1.8-4.11Z" transform="translate(-35.91 -238.86)"/><path class="cls-1" d="M499.13,341.45c.52.23.42,1.84-.28,1.93h-3.4a21.66,21.66,0,0,1,.09,2.41c0,3.26-1.93,7.51-7.93,7.51a20.07,20.07,0,0,1-2.07-.15c-.57.34-2.08,1.23-2.08,2.6,0,1.09,1.09,2,3.3,2,1.61,0,3.54-.14,5.62-.14,2.64,0,6.61.47,6.61,5.19,0,5.15-5.62,8.93-11.76,8.93-5.8,0-7.83-3.12-7.83-5.48a2.67,2.67,0,0,1,.52-1.75c.8-.85,2.12-2.07,3.21-3.16.42-.42.8-.85.37-1.13-1.84-.47-3.44-2.08-3.44-3.73,0-.24.19-.43.71-.81a14.58,14.58,0,0,0,2.5-2.16,2,2,0,0,0,.47-.9,6.42,6.42,0,0,1-3.54-5.71c0-4.07,3.49-7.13,7.7-7.13a11.85,11.85,0,0,1,4.53.94,5.67,5.67,0,0,0,2.88.76Zm-9.86,19.07c-1.51,0-3.4.09-4.07.52a4.84,4.84,0,0,0-2.26,4c0,2.55,2,4.68,6.33,4.68s7-2.36,7-5.05c0-2.88-2-4.11-5.38-4.11Zm2.92-13.5c0-3.21-1.32-5.9-4.2-5.9-2.26,0-4,2.07-4,5.28s2,5.53,4.3,5.53C490.87,351.93,492.19,349.9,492.19,347Z" transform="translate(-35.91 -238.86)"/><path class="cls-1" d="M522.12,349.24c.71-.24.81-.66.81-1.37l0-2.17c0-1.75-.52-4.11-3.44-4.11-1.32,0-2.93.66-3,2.12,0,.76-.1,1.32-.48,1.61a5.09,5.09,0,0,1-2.69.89.59.59,0,0,1-.65-.65c0-2.46,5.33-5.81,8.77-5.81s5.06,2,4.91,5.52l-.28,8.22c-.1,2.16.33,4.1,2.17,4.1a2.73,2.73,0,0,0,1.18-.28c.24-.14.47-.33.62-.33s.32.28.32.61a4.93,4.93,0,0,1-4,2.08,3.77,3.77,0,0,1-3.07-1.47c-.19-.28-.47-.66-.76-.66a7.61,7.61,0,0,0-1.84.95,7,7,0,0,1-3.39,1.18,4.89,4.89,0,0,1-3.31-1.09,4.43,4.43,0,0,1-1.46-3.3c0-1.84.9-2.93,3.92-4Zm-2.92,8.3a5.29,5.29,0,0,0,2.88-1.18c.56-.56.56-1.22.61-2.22l.09-2.78c0-.52-.19-.62-.47-.62a8.69,8.69,0,0,0-1.93.48c-2.79.94-4.16,1.65-4.16,3.49A2.84,2.84,0,0,0,519.2,357.54Z" transform="translate(-35.91 -238.86)"/><path class="cls-1" d="M535.55,345.46c0-1.84,0-2.08-1.27-2.93l-.43-.28a.64.64,0,0,1,0-.85,26.44,26.44,0,0,0,4.72-2.31.55.55,0,0,1,.52.33,22.18,22.18,0,0,0-.1,2.22.5.5,0,0,0,.52.52c2-1.23,4.21-2.41,6.61-2.41,3.92,0,5.53,2.69,5.53,5.85v8.12c0,3.4.09,3.87,1.79,4.11l1,.14a.83.83,0,0,1-.1,1.18c-1.41-.1-2.78-.14-4.43-.14s-3.12,0-4.4.14a.84.84,0,0,1-.09-1.18l.9-.14c1.74-.29,1.79-.71,1.79-4.11v-7c0-2.69-1.22-4.68-4.43-4.68a5.15,5.15,0,0,0-4,1.66,4,4,0,0,0-.71,2.83v7.22c0,3.4.1,3.82,1.8,4.11l.85.14a.83.83,0,0,1-.1,1.18c-1.27-.1-2.64-.14-4.29-.14s-3.12,0-4.44.14a.83.83,0,0,1-.09-1.18l1-.14c1.74-.24,1.79-.71,1.79-4.11Z" transform="translate(-35.91 -238.86)"/><path class="cls-1" d="M574.92,352.11c0,3.73,0,5.48,1.36,5.48a8.12,8.12,0,0,0,2-.47c.33.09.37,1.28-.05,1.51a34.93,34.93,0,0,0-6.23,1.51c-.29,0-.52-.14-.52-.38V359a4.94,4.94,0,0,0-.1-1.46h-.19c-2.08,1.41-3.68,2.17-5.94,2.17-5.25,0-8.74-4.11-8.74-9.06,0-6.61,5-10.86,11.42-10.86a9.72,9.72,0,0,1,3.17.42c.23,0,.28-.28.28-.66v-7.13c0-2.78,0-3.06-1.46-3.92l-.48-.28a.73.73,0,0,1,0-.94,33.19,33.19,0,0,0,5.1-2,.54.54,0,0,1,.48.29c0,1.41-.14,3.78-.14,5.85Zm-3.5-7.08a2.79,2.79,0,0,0-.52-1.84,4.9,4.9,0,0,0-4-2c-4.3,0-6.52,3.73-6.52,7.84,0,4.29,2.41,8.35,7,8.35a5.73,5.73,0,0,0,3.63-1.32,2.89,2.89,0,0,0,.33-1.75Z" transform="translate(-35.91 -238.86)"/><path class="cls-1" d="M596.78,334.93c0-5-.1-5.71-3.07-5.94l-1.18-.1c-.29-.19-.19-1,.09-1.18,2.65.1,4.25.14,6.14.14s3.44,0,5.81-.14c.28.14.37,1,.09,1.18l-1.14.1c-2.78.23-2.87,1-2.87,5.94v16.43c0,3,.14,4.2,1,5.1.52.52,1.42,1.08,5.14,1.08,4,0,5-.19,5.76-.61,1-.57,2.18-2.27,3.12-4.67.28-.24,1.18-.05,1.18.28a37.3,37.3,0,0,1-2,6.61c-2.4-.1-6.88-.14-11.75-.14h-4.34c-2,0-3.49,0-6.14.14a.91.91,0,0,1-.09-1.18l1.41-.14c2.74-.29,2.84-.94,2.84-5.9Z" transform="translate(-35.91 -238.86)"/><path class="cls-1" d="M623.91,346.92c-1.23,0-1.28.1-1.28,1.28,0,4.77,2.79,8.82,7.84,8.82a5.09,5.09,0,0,0,4.34-2.31.63.63,0,0,1,.85.57,8.26,8.26,0,0,1-7.41,4.39,8.45,8.45,0,0,1-6.85-3.12,10.05,10.05,0,0,1-2-6.13c0-5.81,3.83-10.67,9.49-10.67,4.06,0,6.7,2.78,6.7,5.62a2.79,2.79,0,0,1-.19,1.22c-.14.29-.8.33-2.78.33Zm2.92-1.41c3.5,0,4.54-.19,4.91-.48.14-.09.28-.28.28-.89,0-1.33-.89-3-3.63-3s-5.19,2.55-5.24,4.11c0,.1,0,.24.33.24Z" transform="translate(-35.91 -238.86)"/><path class="cls-1" d="M647.94,349.24c.71-.24.81-.66.81-1.37l0-2.17c.05-1.75-.52-4.11-3.44-4.11-1.32,0-2.93.66-3,2.12-.05.76-.1,1.32-.48,1.61a5.09,5.09,0,0,1-2.69.89.59.59,0,0,1-.66-.65c0-2.46,5.34-5.81,8.78-5.81s5.05,2,4.91,5.52l-.28,8.22c-.1,2.16.33,4.1,2.17,4.1a2.73,2.73,0,0,0,1.18-.28c.24-.14.47-.33.61-.33s.33.28.33.61a4.93,4.93,0,0,1-4,2.08,3.76,3.76,0,0,1-3.07-1.47c-.19-.28-.47-.66-.76-.66a7.43,7.43,0,0,0-1.84.95,7,7,0,0,1-3.4,1.18,4.86,4.86,0,0,1-3.3-1.09,4.4,4.4,0,0,1-1.47-3.3c0-1.84.91-2.93,3.93-4Zm-2.93,8.3a5.22,5.22,0,0,0,2.88-1.18c.57-.56.57-1.22.62-2.22l.09-2.78c0-.52-.19-.62-.47-.62a8.86,8.86,0,0,0-1.94.48c-2.78.94-4.15,1.65-4.15,3.49A2.84,2.84,0,0,0,645,357.54Z" transform="translate(-35.91 -238.86)"/><path class="cls-1" d="M661.32,345.46c0-1.84,0-2.08-1.27-2.93l-.43-.28a.64.64,0,0,1,0-.85,39,39,0,0,0,4.77-2.31c.23,0,.37.14.37.33v2.74c0,.23.05.37.14.42,1.66-1.37,3.45-2.83,5.2-2.83a2,2,0,0,1,2.12,1.89,2.1,2.1,0,0,1-2,2.17,1.81,1.81,0,0,1-1-.33,3.8,3.8,0,0,0-2.08-.76,2.11,2.11,0,0,0-1.7.95,7.2,7.2,0,0,0-.61,3.63v6.42c0,3.4.1,4,1.89,4.11l1.7.14a.84.84,0,0,1-.09,1.18c-2.22-.1-3.59-.14-5.24-.14s-3.12,0-4.35.14a.83.83,0,0,1-.09-1.18l.9-.14c1.74-.29,1.79-.71,1.79-4.11Z" transform="translate(-35.91 -238.86)"/><path class="cls-1" d="M677.07,345.46c0-1.84,0-2.08-1.28-2.93l-.42-.28a.65.65,0,0,1,0-.85,26.12,26.12,0,0,0,4.72-2.31.54.54,0,0,1,.52.33c-.09,1.08-.09,1.79-.09,2.22a.5.5,0,0,0,.51.52c2-1.23,4.21-2.41,6.61-2.41,3.92,0,5.53,2.69,5.53,5.85v8.12c0,3.4.1,3.87,1.79,4.11l1,.14a.83.83,0,0,1-.09,1.18c-1.42-.1-2.79-.14-4.44-.14s-3.11,0-4.39.14A.84.84,0,0,1,687,358l.9-.14c1.75-.29,1.8-.71,1.8-4.11v-7c0-2.69-1.23-4.68-4.44-4.68a5.18,5.18,0,0,0-4,1.66,4,4,0,0,0-.7,2.83v7.22c0,3.4.09,3.82,1.79,4.11l.85.14a.83.83,0,0,1-.09,1.18c-1.28-.1-2.65-.14-4.3-.14s-3.11,0-4.44.14a.83.83,0,0,1-.09-1.18l1-.14c1.75-.24,1.8-.71,1.8-4.11Z" transform="translate(-35.91 -238.86)"/><path class="cls-1" d="M702.09,345.46c0-1.84,0-2.08-1.27-2.93l-.43-.28a.64.64,0,0,1,.05-.85,33,33,0,0,0,4.86-2.31c.24,0,.43.09.48.28-.1,1.65-.19,3.92-.19,5.85v8.5c0,3.4.09,3.87,1.79,4.11l1,.14a.82.82,0,0,1-.1,1.18c-1.41-.1-2.78-.14-4.43-.14s-3.12,0-4.44.14a.83.83,0,0,1-.09-1.18l1-.14c1.74-.24,1.79-.71,1.79-4.11ZM706,332a2.46,2.46,0,0,1-4.91.09,2.45,2.45,0,0,1,2.55-2.55A2.36,2.36,0,0,1,706,332Z" transform="translate(-35.91 -238.86)"/><path class="cls-1" d="M714.42,345.46c0-1.84,0-2.08-1.28-2.93l-.42-.28a.64.64,0,0,1,0-.85,26.78,26.78,0,0,0,4.72-2.31.55.55,0,0,1,.52.33,22.18,22.18,0,0,0-.1,2.22.5.5,0,0,0,.52.52c2-1.23,4.2-2.41,6.61-2.41,3.92,0,5.52,2.69,5.52,5.85v8.12c0,3.4.1,3.87,1.8,4.11l1,.14a.83.83,0,0,1-.1,1.18c-1.41-.1-2.78-.14-4.43-.14s-3.12,0-4.4.14a.84.84,0,0,1-.09-1.18l.9-.14c1.74-.29,1.79-.71,1.79-4.11v-7c0-2.69-1.23-4.68-4.44-4.68a5.14,5.14,0,0,0-4,1.66,4,4,0,0,0-.71,2.83v7.22c0,3.4.1,3.82,1.8,4.11l.85.14a.83.83,0,0,1-.1,1.18c-1.27-.1-2.64-.14-4.3-.14s-3.11,0-4.43.14a.84.84,0,0,1-.1-1.18l1-.14c1.74-.24,1.79-.71,1.79-4.11Z" transform="translate(-35.91 -238.86)"/><path class="cls-1" d="M755.58,341.45c.52.23.43,1.84-.28,1.93h-3.4a21.66,21.66,0,0,1,.09,2.41c0,3.26-1.93,7.51-7.93,7.51a20.29,20.29,0,0,1-2.07-.15c-.57.34-2.08,1.23-2.08,2.6,0,1.09,1.08,2,3.31,2,1.6,0,3.53-.14,5.61-.14,2.65,0,6.61.47,6.61,5.19,0,5.15-5.61,8.93-11.75,8.93-5.81,0-7.84-3.12-7.84-5.48a2.67,2.67,0,0,1,.52-1.75c.8-.85,2.12-2.07,3.21-3.16.43-.42.8-.85.38-1.13-1.84-.47-3.45-2.08-3.45-3.73,0-.24.19-.43.71-.81a14.58,14.58,0,0,0,2.5-2.16,1.87,1.87,0,0,0,.47-.9,6.42,6.42,0,0,1-3.54-5.71c0-4.07,3.5-7.13,7.7-7.13a11.85,11.85,0,0,1,4.53.94,5.67,5.67,0,0,0,2.88.76Zm-9.87,19.07c-1.51,0-3.39.09-4.05.52a4.82,4.82,0,0,0-2.27,4c0,2.55,2,4.68,6.32,4.68s7-2.36,7-5.05c0-2.88-2-4.11-5.38-4.11Zm2.93-13.5c0-3.21-1.32-5.9-4.2-5.9-2.27,0-4,2.07-4,5.28s2,5.53,4.29,5.53C747.32,351.93,748.64,349.9,748.64,347Z" transform="translate(-35.91 -238.86)"/><rect class="cls-1" x="10.41" y="59.38" width="59.51" height="4.9"/><path class="cls-3" d="M113.22,257.82c-6.36-6.23-17.55-2.33-30.23,1.72a2.2,2.2,0,0,1-2.09-.49,12.62,12.62,0,0,0-1.72-1.19A6.08,6.08,0,0,0,77,246.61l2.24-2.89a.92.92,0,0,0,0-1.05l-2.78-3.59a.48.48,0,0,0-.81,0l-2.78,3.59a.92.92,0,0,0,0,1.05l2.24,2.89A6.08,6.08,0,0,0,73,257.86a13.26,13.26,0,0,0-1.72,1.19,2.2,2.2,0,0,1-2.09.49c-12.68-4.05-23.87-8-30.23-1.72-7.62,7.48,1.25,19.56,4,24.53,2,3.49,3.34,7.55,3.34,10.78h59.53c0-3.23,1.38-7.29,3.34-10.78C112,277.38,120.84,265.3,113.22,257.82ZM67,289c-2.3.15-4.21-2-4.94-4.89L64,279.7a1.1,1.1,0,0,0-.25-1.26l-6-6c-.34-.34-.65-.35-.81,0l-2.83,6a1.14,1.14,0,0,0,.32,1.26l4.47,4.51c.93,3.54-1.48,4.84-2.83,4.84-4.74,0-8.53-6.45-12.4-13.13s-5.15-11.35-2.28-15c4.79-6.05,17.36-1.26,27.14,3.19a10.65,10.65,0,0,0,1.1,5C74.77,280.58,71.29,288.71,67,289Zm41.5-13.1c-3.88,6.68-7.67,13.13-12.4,13.13-1.36,0-3.77-1.3-2.83-4.84l4.46-4.51a1.14,1.14,0,0,0,.33-1.26l-2.84-6c-.16-.35-.47-.34-.81,0l-6,6a1.1,1.1,0,0,0-.25,1.26l1.89,4.42c-.73,2.91-2.63,5-4.94,4.89-4.28-.3-7.76-8.43-2.6-19.92a10.4,10.4,0,0,0,1.1-5c9.78-4.45,22.35-9.24,27.14-3.19C113.65,264.56,112.32,269.36,108.51,275.91Z" transform="translate(-35.91 -238.86)"/></svg>