<svg id="Layer_1" data-name="Layer 1" xmlns="http://www.w3.org/2000/svg" viewBox="0 0 505 96"><defs><style>.cls-1{fill-rule:evenodd;}</style></defs><title>Artboard 1</title><path d="M78.35,41.82C74.14,38,73.1,33.09,73.1,29A17.35,17.35,0,0,1,78,17.12c2.61-2.6,6.56-4.64,13.24-4.64a37.13,37.13,0,0,1,6.29.52,39.24,39.24,0,0,0,4.43.65c.48,0,.56.22.56.48s-.13.86-.21,2.43-.09,3.82-.13,4.47-.13.91-.39.91-.35-.31-.35-.91a6.06,6.06,0,0,0-1.82-4.43c-1.52-1.3-4.86-2.47-8.68-2.47-5.78,0-8.47,1.69-10,3.17-3.16,3-3.9,6.89-3.9,11.32A15.68,15.68,0,0,0,92.68,44.51c3.25,0,5.81-.39,7.55-2.17a8.3,8.3,0,0,0,1.6-3.65c.09-.48.18-.65.44-.65s.3.3.3.65a45.88,45.88,0,0,1-.95,5.56c-.26.82-.35.91-1.13,1.26a25.33,25.33,0,0,1-7.81,1C86.17,46.5,81.78,44.9,78.35,41.82Z"/><path d="M121.35,17.47c8.6,0,15.11,5.25,15.11,13.84,0,8.25-6.12,15.06-15.32,15.06-10.46,0-14.93-7.85-14.93-14.49A14.61,14.61,0,0,1,121.35,17.47Zm.87,27.39c3.43,0,10.33-1.83,10.33-12.5,0-8.86-5.38-13.5-11.41-13.5-6.38,0-11,4-11,12C110.16,39.47,115.32,44.86,122.22,44.86Z"/><path d="M146.81,35.26c0,5.43.08,7.64.78,8.29s2.08.87,5.07.87c2,0,3.69,0,4.6-1.13a4.46,4.46,0,0,0,.92-2.08c0-.26.17-.48.39-.48s.26.17.26.57a22.57,22.57,0,0,1-.57,3.68c-.26.87-.39,1-2.43,1-2.73,0-4.86,0-6.64-.13s-3-.09-4.16-.09c-.18,0-.83,0-1.57.05s-1.6.09-2.21.09c-.39,0-.61-.09-.61-.31a.3.3,0,0,1,.31-.3,6,6,0,0,0,1.17-.17c.74-.18.82-.87,1-2a77.7,77.7,0,0,0,.21-8V28.67c0-5.73,0-6.77-.08-8s-.31-1.86-1.57-2c-.3,0-1-.08-1.3-.08a.37.37,0,0,1-.3-.31c0-.21.17-.3.61-.3,1.73,0,4.12.09,4.34.09s3-.09,4.2-.09c.4,0,.61.09.61.3a.32.32,0,0,1-.3.26c-.26,0-.83.05-1.26.09-1.13.22-1.34.78-1.43,2.08s0,2.22,0,8Z"/><path d="M162.68,28.67c0-5.73,0-6.77-.09-8s-.3-1.86-1.56-2c-.31,0-1-.08-1.3-.08a.37.37,0,0,1-.31-.31c0-.21.17-.3.61-.3,1.73,0,4,.09,4.38.09s2.74-.09,3.86-.09c.44,0,.66.09.66.3a.39.39,0,0,1-.35.31,4.89,4.89,0,0,0-1,.08c-1,.18-1.21.83-1.3,2s-.09,2.22-.09,8v5.16c0,5.34,1.18,7.55,2.83,9a7.43,7.43,0,0,0,5.68,2,7.85,7.85,0,0,0,5.9-2.61c1.78-2.13,2.17-5.16,2.17-8.94V28.67c0-5.73,0-6.77-.08-8s-.26-1.86-1.52-2c-.31,0-1-.08-1.3-.08a.33.33,0,0,1-.31-.31c0-.21.18-.3.61-.3,1.69,0,3.91.09,4.12.09s2.09-.09,3.21-.09c.44,0,.61.09.61.3a.33.33,0,0,1-.3.31,4.89,4.89,0,0,0-1,.08c-1,.22-1.26.83-1.34,2s-.05,2.22-.05,8v3.95c0,4-.52,8.46-3.55,11.06a11.55,11.55,0,0,1-8,2.69c-1.26,0-5.25-.08-7.94-2.6-1.87-1.74-3.34-4.3-3.34-9.68Z"/><path d="M223,41.12c.13,1.3.39,3.3,1.95,3.82a8,8,0,0,0,2.48.35c.17,0,.3.08.3.26s-.35.35-.78.35c-.87,0-5.12-.09-6.51-.22-.91-.09-1.09-.22-1.09-.39a.33.33,0,0,1,.27-.31c.21,0,.26-.6.17-1.3L217.94,25h-.09l-9.2,18.84c-.78,1.6-1,2-1.35,2s-.56-.35-1.3-1.69c-1-1.83-3.51-6.56-4.47-8.55-1.13-2.35-4.21-8.55-4.86-10.07h-.17L195,42.16c0,.57,0,1.26,0,1.87a1,1,0,0,0,.91,1,6.4,6.4,0,0,0,1.48.22.32.32,0,0,1,.3.26c0,.26-.26.35-.69.35-1.44,0-3.26-.14-3.56-.14s-2.17.14-3.22.14c-.39,0-.65-.09-.65-.35s.18-.26.39-.26a8.24,8.24,0,0,0,1.13-.13c1.26-.22,1.3-1.57,1.48-2.95l2.78-24.09c0-.39.21-.65.43-.65a.87.87,0,0,1,.78.56L208.08,41,219.2,18.08c.17-.35.34-.61.6-.61s.48.3.57,1Z"/><path d="M234,28.67c0-5.73,0-6.77-.08-8s-.31-1.95-1.57-2.12a10.62,10.62,0,0,0-1.3-.09c-.13,0-.3-.09-.3-.22s.17-.3.61-.3c1.73,0,4.21.09,4.42.09.91,0,2.69-.09,4.47-.09,6.38,0,8,3.69,8,5.64,0,2.91-1.91,4.73-3.86,6.47,2.91.87,6.73,3.51,6.73,7.68S248,46,241.53,46c-.7,0-2.09,0-3.3-.13l-2.48-.09c-.08,0-.78.05-1.56.05s-1.69.09-2.3.09c-.39,0-.61-.09-.61-.31s.09-.22.31-.22.82-.13,1.17-.17c.74-.13.82-1,1-2a77.7,77.7,0,0,0,.21-8Zm3.3.78c0,.26.09.34.26.39a12.34,12.34,0,0,0,2.35.17c2.12,0,3-.09,3.73-1a5.7,5.7,0,0,0,1.47-3.95c0-2.82-1.56-5.95-5.38-5.95a11.28,11.28,0,0,0-1.95.18c-.35.08-.48.17-.48.39Zm0,4.08c0,2.86,0,7.29,0,7.85.13,1.78.13,2.21,1.3,2.78a9,9,0,0,0,3.34.52c2.52,0,5.6-1,5.6-5.69a7.28,7.28,0,0,0-7.08-7.68c-.47-.08-2.38-.08-3-.08-.13,0-.22.08-.22.26Z"/><path d="M261.49,35.18c0,3.56,0,6.46.17,8,.13,1.09.26,1.78,1.39,2a17.34,17.34,0,0,0,1.74.17.29.29,0,0,1,.3.3c0,.17-.17.31-.61.31-2.12,0-4.6-.14-4.77-.14s-2.6.14-3.78.14c-.39,0-.6-.09-.6-.31a.29.29,0,0,1,.3-.3,5.8,5.8,0,0,0,1.17-.17c.74-.18.87-.87,1-2,.17-1.52.22-4.42.22-8V28.67c0-5.73,0-6.77-.09-8s-.39-1.82-1.21-2a6.65,6.65,0,0,0-1.18-.13.33.33,0,0,1-.3-.31c0-.21.17-.3.61-.3,1.26,0,3.64.09,3.86.09s2.65-.09,3.82-.09c.43,0,.61.09.61.3a.38.38,0,0,1-.31.31,4.55,4.55,0,0,0-.95.08c-1,.22-1.26.74-1.35,2s0,2.22,0,8Z"/><path d="M281.24,18.73c.48-1.22.65-1.43.91-1.43s.52.52.91,1.34c.7,1.56,6.82,16.8,9.16,22.39,1.39,3.3,2.43,3.78,3.26,4a5.39,5.39,0,0,0,1.52.22c.21,0,.47.08.47.3s-.43.31-.87.31-3.38,0-6-.09c-.74-.05-1.34-.05-1.34-.26s.08-.18.26-.26a.7.7,0,0,0,.34-1l-3.42-8.46c-.09-.18-.14-.22-.35-.22h-8.81a.4.4,0,0,0-.39.3l-2.17,5.91a7.56,7.56,0,0,0-.57,2.47c0,.74.65,1,1.31,1h.34c.31,0,.39.13.39.3s-.21.31-.56.31c-.91,0-3-.14-3.43-.14s-2.3.14-3.86.14c-.48,0-.74-.09-.74-.31a.33.33,0,0,1,.35-.3c.26,0,.82,0,1.13-.09,1.73-.22,2.47-1.52,3.21-3.38Zm4.25,15.36c.18,0,.18-.08.13-.26l-3.77-10.11c-.22-.57-.44-.57-.65,0l-3.56,10.11c0,.18,0,.26.13.26Z"/><path d="M307.49,53.48V10.08h2.34v43.4Z"/><path d="M328,41.82c-4.21-3.78-5.25-8.73-5.25-12.85a17.35,17.35,0,0,1,4.86-11.85c2.61-2.6,6.56-4.64,13.24-4.64a37.13,37.13,0,0,1,6.29.52,39.24,39.24,0,0,0,4.43.65c.48,0,.56.22.56.48s-.12.86-.21,2.43-.09,3.82-.13,4.47-.13.91-.39.91-.35-.31-.35-.91a6,6,0,0,0-1.82-4.43c-1.52-1.3-4.86-2.47-8.68-2.47-5.77,0-8.47,1.69-10,3.17-3.16,3-3.9,6.89-3.9,11.32a15.68,15.68,0,0,0,15.67,15.89c3.25,0,5.81-.39,7.55-2.17a8.3,8.3,0,0,0,1.6-3.65c.09-.48.18-.65.44-.65s.3.3.3.65a45.88,45.88,0,0,1-1,5.56c-.26.82-.35.91-1.13,1.26a25.29,25.29,0,0,1-7.81,1C335.82,46.5,331.43,44.9,328,41.82Z"/><path d="M371.68,33.31c0,4.17,0,7.59.22,9.42.13,1.26.39,2.21,1.69,2.39.61.08,1.56.17,2,.17s.35.13.35.26-.22.35-.7.35c-2.38,0-5.12-.14-5.34-.14s-3,.14-4.25.14c-.48,0-.69-.09-.69-.35s.08-.26.35-.26a7.24,7.24,0,0,0,1.3-.17c.87-.18,1.08-1.13,1.26-2.39.21-1.83.21-5.25.21-9.42V15l-6.42.09c-2.69,0-3.73.35-4.43,1.39a7.44,7.44,0,0,0-.73,1.34c-.13.35-.27.44-.44.44s-.21-.13-.21-.39c0-.44.86-4.17.95-4.52s.26-.82.43-.82a8.44,8.44,0,0,0,1.91.52c1.26.13,2.91.22,3.43.22h16.27a17.45,17.45,0,0,0,3.09-.22c.65-.09,1-.22,1.21-.22s.22.26.22.52c0,1.31-.13,4.3-.13,4.78s-.13.56-.3.56-.31-.13-.35-.74l0-.47c-.13-1.31-1.17-2.3-5.33-2.39L371.68,15Z"/><path d="M395.22,33.4c0,6.38.17,9.15.95,9.93s1.82,1,5.21,1c2.3,0,4.21,0,5.25-1.3a6.09,6.09,0,0,0,1.13-2.6c0-.35.13-.57.39-.57s.26.18.26.65a27.59,27.59,0,0,1-.65,4.35c-.3,1-.43,1.17-2.74,1.17-3.12,0-5.38-.09-7.2-.13s-3.17-.14-4.42-.14c-.18,0-.92.05-1.78.05s-1.83.09-2.48.09c-.47,0-.69-.09-.69-.35s.08-.26.34-.26a7.47,7.47,0,0,0,1.31-.17c.87-.18,1.08-1.13,1.25-2.39.22-1.83.22-5.25.22-9.42V25.67c0-6.77,0-8-.08-9.37s-.44-2.17-1.87-2.48a8.86,8.86,0,0,0-1.48-.13c-.17,0-.35-.08-.35-.26s.22-.35.7-.35c1.95,0,4.69.14,4.91.14s3.38-.14,4.68-.14c.48,0,.7.09.7.35s-.18.26-.35.26a11.35,11.35,0,0,0-1.43.13c-1.26.22-1.61,1-1.7,2.48s-.08,2.6-.08,9.37Z"/><path d="M75.93,65.84a14.18,14.18,0,0,1,8.9-2.8,25.88,25.88,0,0,1,5.83.79,2.31,2.31,0,0,0,.92.13c0,.76.2,2.84.46,4.85a.69.69,0,0,1-.89.06c-.49-2.24-2-4.81-6.75-4.81-5,0-9.33,3.2-9.33,10s4.38,10.75,9.79,10.75a7,7,0,0,0,6.89-4.72.69.69,0,0,1,.85.14A12.29,12.29,0,0,1,91,84.76a7.25,7.25,0,0,0-1.15.33,19.61,19.61,0,0,1-5.21.76,14.38,14.38,0,0,1-8.2-2.21,10.61,10.61,0,0,1-4.68-9.06A11,11,0,0,1,75.93,65.84Z"/><path d="M97.9,76.88c-.86,0-.89.07-.89.89,0,3.33,1.94,6.17,5.47,6.17a3.54,3.54,0,0,0,3-1.62.43.43,0,0,1,.59.4,5.75,5.75,0,0,1-5.17,3.06,5.92,5.92,0,0,1-4.78-2.17,7,7,0,0,1-1.38-4.29c0-4,2.67-7.45,6.62-7.45,2.84,0,4.68,1.95,4.68,3.93a2.11,2.11,0,0,1-.13.85c-.1.2-.56.23-2,.23Zm2-1c2.44,0,3.16-.13,3.43-.32.1-.07.2-.2.2-.63,0-.92-.63-2.08-2.54-2.08s-3.63,1.78-3.66,2.87c0,.07,0,.16.23.16Z"/><path d="M109.61,75.86c0-1.28,0-1.45-.89-2l-.29-.2a.43.43,0,0,1,0-.59,17.63,17.63,0,0,0,3.29-1.62.4.4,0,0,1,.37.23c-.07.76-.07,1.26-.07,1.55a.35.35,0,0,0,.36.37A9.06,9.06,0,0,1,117,71.87c2.73,0,3.85,1.88,3.85,4.09v5.67c0,2.37.07,2.7,1.26,2.87l.72.1a.57.57,0,0,1-.06.82c-1-.07-2-.1-3.1-.1s-2.18,0-3.07.1a.57.57,0,0,1-.06-.82l.62-.1c1.22-.2,1.26-.5,1.26-2.87V76.72c0-1.88-.86-3.26-3.1-3.26a3.56,3.56,0,0,0-2.8,1.15,2.77,2.77,0,0,0-.5,2v5c0,2.37.07,2.67,1.25,2.87l.6.1a.57.57,0,0,1-.07.82c-.89-.07-1.84-.1-3-.1s-2.17,0-3.1.1a.57.57,0,0,1-.06-.82l.69-.1c1.22-.17,1.25-.5,1.25-2.87Z"/><path d="M128.72,73.72c-.56,0-.6.1-.6.79v6.16c0,1.91.23,3.66,2.41,3.66a2.48,2.48,0,0,0,.89-.16c.3-.1.73-.46.82-.46.27,0,.4.36.33.56a4.56,4.56,0,0,1-3.46,1.51c-2.83,0-3.42-1.58-3.42-3.56V74.68c0-.89,0-1-.7-1h-.92A.55.55,0,0,1,124,73a6.73,6.73,0,0,0,2.11-1,8,8,0,0,0,1.38-2c.17-.06.57-.06.7.17v1.48c0,.59,0,.63.59.63h3.66a1,1,0,0,1,0,1.38Z"/><path d="M136.89,76.88c-.86,0-.89.07-.89.89,0,3.33,1.94,6.17,5.47,6.17a3.54,3.54,0,0,0,3-1.62.43.43,0,0,1,.59.4,5.75,5.75,0,0,1-5.17,3.06,5.92,5.92,0,0,1-4.78-2.17,7,7,0,0,1-1.38-4.29c0-4,2.67-7.45,6.62-7.45,2.84,0,4.68,1.95,4.68,3.93a1.94,1.94,0,0,1-.13.85c-.1.2-.56.23-1.94.23Zm2-1c2.44,0,3.17-.13,3.43-.32.1-.07.2-.2.2-.63,0-.92-.63-2.08-2.54-2.08s-3.63,1.78-3.66,2.87c0,.07,0,.16.23.16Z"/><path d="M148.57,75.86c0-1.28,0-1.45-.89-2l-.3-.2a.44.44,0,0,1,0-.59,26,26,0,0,0,3.33-1.62c.16,0,.26.1.26.23v1.92c0,.16,0,.26.1.29,1.15-.95,2.4-2,3.62-2a1.37,1.37,0,0,1,1.49,1.32,1.46,1.46,0,0,1-1.42,1.52,1.32,1.32,0,0,1-.73-.23,2.67,2.67,0,0,0-1.45-.53,1.46,1.46,0,0,0-1.18.66,5,5,0,0,0-.43,2.54v4.48c0,2.37.07,2.77,1.32,2.87l1.18.1a.57.57,0,0,1-.06.82c-1.55-.07-2.51-.1-3.66-.1s-2.17,0-3,.1a.57.57,0,0,1-.07-.82l.63-.1c1.22-.2,1.25-.5,1.25-2.87Z"/><path d="M170.65,73.72c-.56,0-.56.07-.56,1v6.95c0,2.37.07,2.77,1.26,2.87l1.18.1a.57.57,0,0,1-.06.82c-1.49-.07-2.44-.1-3.6-.1s-2.17,0-3.16.1a.58.58,0,0,1-.07-.82l.76-.1c1.22-.17,1.26-.5,1.26-2.87V74.68c0-.89,0-1-.66-1h-1.16a.47.47,0,0,1-.1-.63l1.42-.69a.74.74,0,0,0,.5-.66,14.81,14.81,0,0,1,1-5.8,6.47,6.47,0,0,1,5.93-4.18c1.75,0,3.23.79,3.23,2a1.27,1.27,0,0,1-1.25,1.19.92.92,0,0,1-.79-.4,3.71,3.71,0,0,0-2.64-1.45,2.54,2.54,0,0,0-2.34,1.82,17.55,17.55,0,0,0-.73,5.57v1c0,.89,0,.93.56.93h3.76a1,1,0,0,1-.23,1.38Z"/><path d="M188.7,78.7a6.73,6.73,0,0,1-7,7.08A6.51,6.51,0,0,1,175,79a6.93,6.93,0,0,1,7-7.12A6.59,6.59,0,0,1,188.7,78.7Zm-7.09-5.84c-2.17,0-3.79,2.08-3.79,5.71,0,3,1.35,6.22,4.25,6.22s3.79-3,3.79-5.57C185.86,76.42,184.74,72.86,181.61,72.86Z"/><path d="M192.44,75.86c0-1.28,0-1.45-.89-2l-.3-.2a.44.44,0,0,1,0-.59,25.85,25.85,0,0,0,3.32-1.62c.17,0,.27.1.27.23v1.92c0,.16,0,.26.1.29,1.15-.95,2.4-2,3.62-2a1.37,1.37,0,0,1,1.49,1.32,1.46,1.46,0,0,1-1.42,1.52,1.29,1.29,0,0,1-.73-.23,2.7,2.7,0,0,0-1.45-.53,1.46,1.46,0,0,0-1.18.66,5,5,0,0,0-.43,2.54v4.48c0,2.37.06,2.77,1.32,2.87l1.18.1a.57.57,0,0,1-.06.82c-1.55-.07-2.51-.1-3.66-.1s-2.18,0-3,.1a.57.57,0,0,1-.07-.82l.63-.1c1.22-.2,1.25-.5,1.25-2.87Z"/><path d="M220.52,80.38c0,3.46.07,4,2,4.12l1.05.1c.2.13.14.72-.06.82-1.88-.07-3-.1-4.32-.1s-2.47,0-4.58.1a.57.57,0,0,1,0-.82l1.19-.1c1.87-.17,2-.66,2-4.12V65.65c0-1,0-1.06-1-1.06H215c-1.42,0-3.23.07-4.06.82a6.08,6.08,0,0,0-1.48,2.28.64.64,0,0,1-.86-.23,34.5,34.5,0,0,0,1.26-4.91.79.79,0,0,1,.62,0c.2,1.05,1.29,1,2.8,1h13.35c1.78,0,2.08-.07,2.57-.92.17-.07.53,0,.6.1a19.57,19.57,0,0,0-.5,5c-.13.26-.69.26-.86.06a4.19,4.19,0,0,0-.82-2.41,6.66,6.66,0,0,0-3.82-.82h-2.34c-1,0-1,0-1,1.12Z"/><path d="M231.09,76.88c-.86,0-.89.07-.89.89,0,3.33,2,6.17,5.47,6.17a3.54,3.54,0,0,0,3-1.62.44.44,0,0,1,.6.4,5.76,5.76,0,0,1-5.18,3.06,5.92,5.92,0,0,1-4.78-2.17A7.07,7.07,0,0,1,228,79.32c0-4,2.67-7.45,6.62-7.45,2.84,0,4.68,1.95,4.68,3.93a1.94,1.94,0,0,1-.13.85c-.1.2-.56.23-1.94.23Zm2-1c2.44,0,3.17-.13,3.43-.32.1-.07.2-.2.2-.63,0-.92-.63-2.08-2.54-2.08s-3.62,1.78-3.66,2.87c0,.07,0,.16.23.16Z"/><path d="M247.87,78.5c.5-.17.56-.46.56-1l0-1.51c0-1.22-.36-2.87-2.4-2.87-.92,0-2,.46-2.11,1.48,0,.53-.07.93-.33,1.12a3.49,3.49,0,0,1-1.88.63.42.42,0,0,1-.46-.46c0-1.72,3.72-4.06,6.13-4.06s3.53,1.39,3.43,3.86l-.2,5.74c-.07,1.51.23,2.86,1.52,2.86a1.86,1.86,0,0,0,.82-.2c.16-.09.33-.23.43-.23s.23.2.23.43a3.44,3.44,0,0,1-2.77,1.45,2.61,2.61,0,0,1-2.14-1c-.13-.2-.33-.46-.53-.46a5.19,5.19,0,0,0-1.29.66,4.87,4.87,0,0,1-2.37.82,3.42,3.42,0,0,1-2.3-.75,3.1,3.1,0,0,1-1-2.31c0-1.29.63-2,2.74-2.8Zm-2,5.8a3.72,3.72,0,0,0,2-.82c.39-.4.39-.86.43-1.55l.06-2c0-.36-.13-.43-.33-.43a6,6,0,0,0-1.35.33c-1.94.66-2.9,1.16-2.9,2.44A2,2,0,0,0,245.83,84.3Z"/><path d="M265.41,72.43a1.89,1.89,0,0,1,.49,1.32c0,.6-.33,1.22-.72,1.22a.58.58,0,0,1-.47-.23A4.47,4.47,0,0,0,261.42,73c-2.31,0-4.55,1.81-4.55,5.3a5.42,5.42,0,0,0,5.31,5.64,4,4,0,0,0,3.65-2,.52.52,0,0,1,.6.46,6,6,0,0,1-5.5,3.36,6.39,6.39,0,0,1-4.52-1.68,6.57,6.57,0,0,1-1.91-4.88c0-3.55,2.5-7.35,8-7.35A8.37,8.37,0,0,1,265.41,72.43Z"/><path d="M269.49,66.73c0-1.94,0-2.14-1-2.73l-.33-.2a.51.51,0,0,1,0-.66,23.09,23.09,0,0,0,3.56-1.38A.35.35,0,0,1,272,62c0,1-.1,2.64-.1,4.09V73c0,.3,0,.56.14.63a7.41,7.41,0,0,1,4.44-1.72c3.13,0,4.26,1.95,4.26,4.26v5.5c0,2.37.06,2.74,1.25,2.87l.89.1a.57.57,0,0,1-.07.82c-1.18-.07-2.14-.1-3.29-.1s-2.18,0-3.07.1a.57.57,0,0,1-.06-.82l.65-.1c1.22-.2,1.26-.5,1.26-2.87V76.92c0-2.11-1-3.53-3.13-3.53a4,4,0,0,0-2.57.89c-.6.49-.7.66-.7,1.81v5.54c0,2.37.07,2.7,1.26,2.87l.69.1c.23.13.16.72-.07.82-1-.07-1.94-.1-3.1-.1s-2.17,0-3.23.1a.57.57,0,0,1-.06-.82l.82-.1c1.22-.13,1.25-.5,1.25-2.87Z"/><path d="M287.05,75.86c0-1.28,0-1.45-.89-2l-.29-.2a.45.45,0,0,1,0-.59,22.25,22.25,0,0,0,3.39-1.62.32.32,0,0,1,.34.2c-.07,1.15-.14,2.74-.14,4.09v5.93c0,2.37.07,2.7,1.25,2.87l.7.1a.57.57,0,0,1-.07.82c-1-.07-1.94-.1-3.1-.1s-2.17,0-3.09.1a.57.57,0,0,1-.07-.82l.69-.1c1.22-.17,1.25-.5,1.25-2.87Zm2.74-9.39a1.72,1.72,0,0,1-3.43.07,1.71,1.71,0,0,1,1.78-1.78A1.65,1.65,0,0,1,289.79,66.47Z"/><path d="M295.66,75.86c0-1.28,0-1.45-.89-2l-.3-.2a.44.44,0,0,1,0-.59,18.26,18.26,0,0,0,3.29-1.62.38.38,0,0,1,.36.23c-.06.76-.06,1.26-.06,1.55a.35.35,0,0,0,.36.37,9,9,0,0,1,4.62-1.69c2.73,0,3.85,1.88,3.85,4.09v5.67c0,2.37.07,2.7,1.25,2.87l.73.1a.57.57,0,0,1-.07.82c-1-.07-1.94-.1-3.1-.1s-2.17,0-3.06.1a.56.56,0,0,1-.06-.82l.62-.1c1.22-.2,1.25-.5,1.25-2.87V76.72c0-1.88-.85-3.26-3.1-3.26a3.59,3.59,0,0,0-2.8,1.15,2.77,2.77,0,0,0-.49,2v5c0,2.37.06,2.67,1.25,2.87l.59.1a.57.57,0,0,1-.06.82c-.89-.07-1.85-.1-3-.1s-2.17,0-3.1.1a.56.56,0,0,1-.06-.82l.69-.1c1.22-.17,1.25-.5,1.25-2.87Z"/><path d="M324.4,73.06c.36.16.29,1.29-.2,1.35h-2.37a15.72,15.72,0,0,1,.06,1.68c0,2.28-1.35,5.24-5.53,5.24a12.82,12.82,0,0,1-1.45-.1c-.4.24-1.45.86-1.45,1.82,0,.76.76,1.38,2.3,1.38,1.12,0,2.47-.1,3.92-.1,1.85,0,4.62.33,4.62,3.63,0,3.59-3.92,6.23-8.21,6.23-4,0-5.47-2.18-5.47-3.83a1.87,1.87,0,0,1,.36-1.22c.56-.59,1.49-1.45,2.25-2.21.29-.29.56-.59.26-.79a3,3,0,0,1-2.41-2.6c0-.16.14-.3.5-.56a10.19,10.19,0,0,0,1.74-1.51,1.28,1.28,0,0,0,.33-.63,4.47,4.47,0,0,1-2.47-4,5.16,5.16,0,0,1,5.37-5,8.23,8.23,0,0,1,3.17.66,3.84,3.84,0,0,0,2,.53Zm-6.89,13.31a7.18,7.18,0,0,0-2.83.37,3.35,3.35,0,0,0-1.59,2.77c0,1.77,1.42,3.26,4.42,3.26s4.88-1.65,4.88-3.53-1.39-2.87-3.76-2.87Zm2-9.42c0-2.24-.92-4.12-2.93-4.12-1.58,0-2.77,1.45-2.77,3.69s1.42,3.86,3,3.86C318.63,80.38,319.55,79,319.55,77Z"/><path d="M340.45,78.5c.49-.17.56-.46.56-1L341,76c0-1.22-.36-2.87-2.4-2.87-.92,0-2,.46-2.11,1.48,0,.53-.07.93-.33,1.12a3.49,3.49,0,0,1-1.88.63.42.42,0,0,1-.46-.46c0-1.72,3.72-4.06,6.13-4.06s3.53,1.39,3.43,3.86l-.2,5.74c-.07,1.51.23,2.86,1.51,2.86a1.88,1.88,0,0,0,.83-.2c.16-.09.33-.23.43-.23s.23.2.23.43a3.44,3.44,0,0,1-2.77,1.45,2.61,2.61,0,0,1-2.14-1c-.14-.2-.33-.46-.53-.46a5.19,5.19,0,0,0-1.29.66,4.91,4.91,0,0,1-2.37.82,3.4,3.4,0,0,1-2.3-.75,3.1,3.1,0,0,1-1-2.31c0-1.29.63-2,2.74-2.8Zm-2,5.8a3.72,3.72,0,0,0,2-.82c.39-.4.39-.86.43-1.55l.06-2c0-.36-.13-.43-.33-.43a6.15,6.15,0,0,0-1.35.33c-1.94.66-2.9,1.16-2.9,2.44A2,2,0,0,0,338.41,84.3Z"/><path d="M349.82,75.86c0-1.28,0-1.45-.89-2l-.29-.2a.43.43,0,0,1,0-.59,18,18,0,0,0,3.3-1.62.39.39,0,0,1,.36.23c-.07.76-.07,1.26-.07,1.55a.35.35,0,0,0,.36.37,9.06,9.06,0,0,1,4.62-1.69c2.73,0,3.86,1.88,3.86,4.09v5.67c0,2.37.06,2.7,1.25,2.87l.72.1a.57.57,0,0,1-.06.82c-1-.07-1.95-.1-3.1-.1s-2.18,0-3.07.1a.57.57,0,0,1-.06-.82l.62-.1c1.22-.2,1.26-.5,1.26-2.87V76.72c0-1.88-.86-3.26-3.1-3.26a3.56,3.56,0,0,0-2.8,1.15,2.77,2.77,0,0,0-.5,2v5c0,2.37.07,2.67,1.25,2.87l.6.1a.57.57,0,0,1-.07.82c-.89-.07-1.84-.1-3-.1s-2.17,0-3.1.1a.57.57,0,0,1-.06-.82l.69-.1c1.22-.17,1.25-.5,1.25-2.87Z"/><path d="M377.31,80.51c0,2.6,0,3.82.95,3.82a5.19,5.19,0,0,0,1.42-.33c.23.07.26.89,0,1.06a25,25,0,0,0-4.35,1c-.2,0-.37-.1-.37-.26v-.56a4,4,0,0,0-.06-1h-.13a6.87,6.87,0,0,1-4.16,1.51,6,6,0,0,1-6.09-6.33c0-4.61,3.49-7.58,8-7.58a6.79,6.79,0,0,1,2.21.3c.16,0,.2-.2.2-.46v-5c0-1.94,0-2.14-1-2.73l-.34-.2a.51.51,0,0,1,0-.66,23.09,23.09,0,0,0,3.56-1.38.35.35,0,0,1,.33.19c0,1-.09,2.64-.09,4.09Zm-2.44-4.94a2,2,0,0,0-.36-1.29,3.46,3.46,0,0,0-2.77-1.38c-3,0-4.55,2.6-4.55,5.47s1.68,5.83,4.91,5.83a4,4,0,0,0,2.54-.92,2.08,2.08,0,0,0,.23-1.22Z"/><path d="M392.57,68.51c0-3.46-.07-4-2.15-4.15l-.82-.07c-.2-.13-.13-.72.07-.82,1.84.07,3,.1,4.28.1s2.41,0,4.06-.1c.19.1.26.69.06.82l-.79.07c-1.94.16-2,.69-2,4.15V80c0,2.08.1,2.94.69,3.56.37.36,1,.76,3.6.76,2.8,0,3.49-.13,4-.43a7,7,0,0,0,2.17-3.26c.2-.17.83,0,.83.2a26.68,26.68,0,0,1-1.39,4.61c-1.68-.07-4.81-.1-8.2-.1h-3c-1.38,0-2.44,0-4.28.1a.63.63,0,0,1-.07-.82l1-.1c1.91-.2,2-.66,2-4.12Z"/><path d="M411.51,76.88c-.86,0-.89.07-.89.89,0,3.33,1.94,6.17,5.47,6.17a3.54,3.54,0,0,0,3-1.62.44.44,0,0,1,.6.4,5.77,5.77,0,0,1-5.18,3.06,5.92,5.92,0,0,1-4.78-2.17,7,7,0,0,1-1.38-4.29c0-4,2.67-7.45,6.62-7.45,2.84,0,4.68,1.95,4.68,3.93a1.94,1.94,0,0,1-.13.85c-.1.2-.56.23-1.94.23Zm2-1c2.44,0,3.17-.13,3.43-.32.1-.07.2-.2.2-.63,0-.92-.63-2.08-2.54-2.08S411,74.64,411,75.73c0,.07,0,.16.23.16Z"/><path d="M428.29,78.5c.49-.17.56-.46.56-1l0-1.51c0-1.22-.36-2.87-2.4-2.87-.92,0-2.05.46-2.11,1.48,0,.53-.07.93-.33,1.12a3.55,3.55,0,0,1-1.88.63.42.42,0,0,1-.46-.46c0-1.72,3.72-4.06,6.13-4.06s3.53,1.39,3.43,3.86l-.2,5.74c-.07,1.51.23,2.86,1.51,2.86a1.91,1.91,0,0,0,.83-.2c.16-.09.33-.23.43-.23s.23.2.23.43a3.46,3.46,0,0,1-2.77,1.45,2.61,2.61,0,0,1-2.14-1c-.14-.2-.33-.46-.53-.46a5.19,5.19,0,0,0-1.29.66,4.91,4.91,0,0,1-2.37.82,3.43,3.43,0,0,1-2.31-.75,3.13,3.13,0,0,1-1-2.31c0-1.29.63-2,2.74-2.8Zm-2,5.8a3.75,3.75,0,0,0,2-.82c.39-.4.39-.86.43-1.55l.06-2c0-.36-.13-.43-.33-.43a6,6,0,0,0-1.35.33c-1.94.66-2.9,1.16-2.9,2.44A2,2,0,0,0,426.25,84.3Z"/><path d="M437.63,75.86c0-1.28,0-1.45-.89-2l-.3-.2a.44.44,0,0,1,0-.59,25.85,25.85,0,0,0,3.32-1.62c.17,0,.27.1.27.23v1.92c0,.16,0,.26.1.29,1.15-.95,2.4-2,3.62-2a1.37,1.37,0,0,1,1.48,1.32,1.46,1.46,0,0,1-1.41,1.52,1.29,1.29,0,0,1-.73-.23,2.7,2.7,0,0,0-1.45-.53,1.48,1.48,0,0,0-1.19.66,5.14,5.14,0,0,0-.42,2.54v4.48c0,2.37.06,2.77,1.32,2.87l1.18.1a.57.57,0,0,1-.06.82c-1.55-.07-2.51-.1-3.66-.1s-2.18,0-3,.1a.57.57,0,0,1-.07-.82l.63-.1c1.21-.2,1.25-.5,1.25-2.87Z"/><path d="M448.62,75.86c0-1.28,0-1.45-.89-2l-.29-.2a.43.43,0,0,1,0-.59,17.94,17.94,0,0,0,3.29-1.62.41.41,0,0,1,.37.23c-.07.76-.07,1.26-.07,1.55a.35.35,0,0,0,.36.37A9.06,9.06,0,0,1,456,71.87c2.74,0,3.86,1.88,3.86,4.09v5.67c0,2.37.07,2.7,1.26,2.87l.72.1a.57.57,0,0,1-.07.82c-1-.07-1.94-.1-3.1-.1s-2.17,0-3.06.1a.57.57,0,0,1-.07-.82l.63-.1c1.22-.2,1.25-.5,1.25-2.87V76.72c0-1.88-.85-3.26-3.09-3.26a3.6,3.6,0,0,0-2.81,1.15,2.82,2.82,0,0,0-.49,2v5c0,2.37.07,2.67,1.25,2.87l.59.1a.56.56,0,0,1-.06.82c-.89-.07-1.85-.1-3-.1s-2.17,0-3.1.1a.57.57,0,0,1-.07-.82l.7-.1c1.22-.17,1.25-.5,1.25-2.87Z"/><path d="M466.09,75.86c0-1.28,0-1.45-.89-2l-.29-.2a.43.43,0,0,1,0-.59,22.25,22.25,0,0,0,3.39-1.62.32.32,0,0,1,.34.2c-.07,1.15-.14,2.74-.14,4.09v5.93c0,2.37.07,2.7,1.26,2.87l.69.1a.57.57,0,0,1-.07.82c-1-.07-1.94-.1-3.1-.1s-2.17,0-3.1.1a.57.57,0,0,1-.06-.82l.69-.1c1.22-.17,1.25-.5,1.25-2.87Zm2.74-9.39a1.72,1.72,0,0,1-3.43.07,1.71,1.71,0,0,1,1.78-1.78A1.65,1.65,0,0,1,468.83,66.47Z"/><path d="M474.7,75.86c0-1.28,0-1.45-.89-2l-.3-.2a.44.44,0,0,1,0-.59,18.26,18.26,0,0,0,3.29-1.62.38.38,0,0,1,.36.23c-.06.76-.06,1.26-.06,1.55a.35.35,0,0,0,.36.37,9,9,0,0,1,4.61-1.69c2.74,0,3.86,1.88,3.86,4.09v5.67c0,2.37.07,2.7,1.25,2.87l.73.1a.57.57,0,0,1-.07.82c-1-.07-1.94-.1-3.09-.1s-2.18,0-3.07.1a.57.57,0,0,1-.07-.82l.63-.1c1.22-.2,1.25-.5,1.25-2.87V76.72c0-1.88-.85-3.26-3.1-3.26a3.58,3.58,0,0,0-2.8,1.15,2.77,2.77,0,0,0-.49,2v5c0,2.37.06,2.67,1.25,2.87l.6.1a.58.58,0,0,1-.07.82c-.89-.07-1.85-.1-3-.1s-2.18,0-3.1.1a.58.58,0,0,1-.07-.82l.7-.1c1.22-.17,1.25-.5,1.25-2.87Z"/><path d="M503.44,73.06c.36.16.29,1.29-.2,1.35h-2.37a15.72,15.72,0,0,1,.06,1.68c0,2.28-1.35,5.24-5.53,5.24a13.2,13.2,0,0,1-1.46-.1c-.39.24-1.45.86-1.45,1.82,0,.76.76,1.38,2.31,1.38,1.12,0,2.47-.1,3.92-.1,1.85,0,4.62.33,4.62,3.63,0,3.59-3.92,6.23-8.21,6.23-4.05,0-5.47-2.18-5.47-3.83a1.87,1.87,0,0,1,.36-1.22c.57-.59,1.49-1.45,2.24-2.21.3-.29.57-.59.27-.79a3.06,3.06,0,0,1-2.41-2.6c0-.16.13-.3.5-.56a10.19,10.19,0,0,0,1.74-1.51,1.28,1.28,0,0,0,.33-.63,4.47,4.47,0,0,1-2.47-4,5.16,5.16,0,0,1,5.37-5,8.23,8.23,0,0,1,3.17.66,3.84,3.84,0,0,0,2,.53Zm-6.89,13.31a7.15,7.15,0,0,0-2.83.37,3.35,3.35,0,0,0-1.59,2.77c0,1.77,1.42,3.26,4.42,3.26s4.88-1.65,4.88-3.53-1.39-2.87-3.76-2.87Zm2-9.42c0-2.24-.92-4.12-2.93-4.12-1.58,0-2.77,1.45-2.77,3.69s1.42,3.86,3,3.86C497.67,80.38,498.59,79,498.59,77Z"/><rect x="8.27" y="42.9" width="41.55" height="3.42"/><path class="cls-1" d="M55,14.68c-4.44-4.35-12.25-1.63-21.11,1.2a1.55,1.55,0,0,1-1.46-.34,7.16,7.16,0,0,0-1.2-.83,4.25,4.25,0,0,0-1.5-7.86l1.56-2a.65.65,0,0,0,0-.73L29.33,1.59a.35.35,0,0,0-.57,0L26.82,4.1a.65.65,0,0,0,0,.73l1.57,2a4.25,4.25,0,0,0-1.51,7.86,7.59,7.59,0,0,0-1.2.83,1.54,1.54,0,0,1-1.46.34c-8.85-2.83-16.67-5.55-21.11-1.2C-2.21,19.9,4,28.33,5.93,31.8a16.74,16.74,0,0,1,2.34,7.53H49.82a16.74,16.74,0,0,1,2.34-7.53C54.11,28.33,60.3,19.9,55,14.68ZM22.72,36.45c-1.61.11-2.94-1.38-3.45-3.41L20.59,30a.76.76,0,0,0-.18-.88L16.24,24.9c-.24-.24-.45-.25-.57,0l-2,4.17a.76.76,0,0,0,.22.87L17,33.09c.65,2.48-1,3.38-2,3.38-3.31,0-6-4.5-8.65-9.16s-3.6-7.93-1.6-10.46c3.35-4.22,12.13-.87,19,2.23a7.45,7.45,0,0,0,.77,3.46C28.13,30.57,25.7,36.25,22.72,36.45Zm29-9.14C49,32,46.34,36.47,43,36.47c-1,0-2.63-.9-2-3.38l3.12-3.15a.78.78,0,0,0,.23-.87l-2-4.17c-.11-.25-.33-.24-.57,0l-4.17,4.17a.79.79,0,0,0-.18.88L38.82,33c-.51,2-1.83,3.52-3.44,3.41-3-.2-5.42-5.88-1.82-13.91a7.45,7.45,0,0,0,.77-3.46c6.82-3.1,15.6-6.45,18.94-2.23C55.28,19.38,54.35,22.73,51.69,27.31Z"/></svg>