<?xml version="1.0" encoding="UTF-8" standalone="no"?>
<svg
   xmlns:dc="http://purl.org/dc/elements/1.1/"
   xmlns:cc="http://creativecommons.org/ns#"
   xmlns:rdf="http://www.w3.org/1999/02/22-rdf-syntax-ns#"
   xmlns:svg="http://www.w3.org/2000/svg"
   xmlns="http://www.w3.org/2000/svg"
   xmlns:sodipodi="http://sodipodi.sourceforge.net/DTD/sodipodi-0.dtd"
   xmlns:inkscape="http://www.inkscape.org/namespaces/inkscape"
   inkscape:version="1.0beta2 (2b71d25, 2019-12-03)"
   height="185.00227"
   width="641.90002"
   sodipodi:docname="mediathread.svg"
   xml:space="preserve"
   viewBox="0 0 641.90002 185.00227"
   y="0px"
   x="0px"
   id="Layer_1"
   version="1.1"><metadata
   id="metadata378"><rdf:RDF><cc:Work
       rdf:about=""><dc:format>image/svg+xml</dc:format><dc:type
         rdf:resource="http://purl.org/dc/dcmitype/StillImage" /></cc:Work></rdf:RDF></metadata><defs
   id="defs376" /><sodipodi:namedview
   inkscape:current-layer="Layer_1"
   inkscape:window-maximized="0"
   inkscape:window-y="23"
   inkscape:window-x="0"
   inkscape:cy="100.92236"
   inkscape:cx="320.69727"
   inkscape:zoom="1.0791678"
   showgrid="false"
   id="namedview374"
   inkscape:window-height="793"
   inkscape:window-width="1356"
   inkscape:pageshadow="2"
   inkscape:pageopacity="0"
   guidetolerance="10"
   gridtolerance="10"
   objecttolerance="10"
   borderopacity="1"
   inkscape:document-rotation="0"
   bordercolor="#666666"
   pagecolor="#ffffff" />
<style
   id="style221"
   type="text/css">
	.st0{fill:none;}
	.st1{fill:#1B75BC;}
	.st2{fill:#39B54A;}
	.st3{fill:#FFF200;}
	.st4{fill:#F7941D;}
	.st5{fill:#ED1C24;}
	.st6{fill:#FFFFFF;}
</style>
<title
   id="title223">mediathread5</title>
<path
   inkscape:connector-curvature="0"
   id="path225"
   d="m 181.5,107.70228 c 12,-2.6 23.6,-6.4 34.7,-11.500003 8,-3.6 15.7,-7.7 23.2,-12.4 -8,2.4 -16.1,4.1 -24.4,5.2 -12.1,4.3 -23.4,10.6 -33.5,18.700003 z"
   class="st0" />
<path
   inkscape:connector-curvature="0"
   id="path227"
   d="m 213.7,86.802277 c 8.4,-2.6 17,-4.3 25.8,-4.9 -4.8,-1 -10.1,-1.8 -15.9,-2.4 -15.1,-1.8 -33.6,-1 -52.4,3.3 13.9,3.5 28.2,4.9 42.5,4 z"
   class="st0" />
<path
   inkscape:connector-curvature="0"
   id="path229"
   d="m 205.2,89.802277 c -14.6,0.8 -29.3,-0.7 -43.4,-4.6 -18,5.3 -35,13.6 -50.1,24.700003 2.8,0.4 5.6,0.8 8.4,1.1 17.5,2.1 35.2,1.5 52.6,-1.5 4,-3.4 8.3,-6.5 12.7,-9.4 6.2,-4.100003 12.9,-7.600003 19.8,-10.300003 z"
   class="st0" />
<path
   inkscape:connector-curvature="0"
   id="path231"
   d="m 240.8,81.002277 c -5.4,-4.4 -11.1,-8.4 -17.1,-12 -16.5,-10.2 -41.3,-18.4 -66.6,-18.1 -12.5,0 -25,1.9 -37,5.6 8.9,7.7 18.9,14 29.7,18.7 4.4,2.1 9,3.9 13.7,5.4 25.4,-6 51.9,-5.9 77.3,0.4 z"
   class="st0" />
<path
   inkscape:connector-curvature="0"
   id="path233"
   d="m 138.7,93.902277 c 7.5,-3.5 15.2,-6.5 23.1,-8.7 -1.3,-0.4 -2.6,-0.7 -3.9,-1.1 -1.1,-0.3 -2.2,-0.7 -3.3,-1.1 -1.9,0.6 -3.7,1.1 -5.6,1.8 -16.3,5.4 -31.7,13.4 -45.6,23.600003 2.8,0.6 5.5,1.1 8.3,1.5 8.4,-6.3 17.4,-11.600003 27,-16.000003 z"
   class="st1" />
<path
   inkscape:connector-curvature="0"
   id="path235"
   d="m 242.6,81.702277 0.2,-0.1 v -0.1 l -0.6,-0.1 z"
   class="st1" />
<path
   inkscape:connector-curvature="0"
   id="path237"
   d="m 56.8,160.10228 c -0.9,7.7 -1.3,15.5 -1.1,23.2 0.2,0.2 4.8,-15 18.1,-34.4 8.7,-12.6 19.2,-24 31.1,-33.6 -2.8,-0.5 -5.6,-1 -8.4,-1.5 -16.1,12.8 -29.5,28.5 -39.7,46.3 z"
   class="st1" />
<path
   inkscape:connector-curvature="0"
   id="path239"
   d="m 223.5,79.502277 c 5.8,0.6 11.2,1.4 15.9,2.4 0.8,-0.1 1.5,-0.1 2.3,-0.1 l -0.9,-0.8 c -25.4,-6.3 -51.9,-6.4 -77.3,-0.4 2.6,0.8 5.1,1.5 7.7,2.2 18.7,-4.3 37.3,-5.1 52.3,-3.3 z"
   class="st1" />
<path
   inkscape:connector-curvature="0"
   id="path241"
   d="m 120,111.00228 c -2.8,-0.3 -5.6,-0.7 -8.4,-1.1 -2.4,1.8 -4.7,3.5 -6.9,5.4 20.6,3.2 41.6,3 62.2,-0.6 1.8,-1.8 3.7,-3.5 5.7,-5.1 -17.4,2.9 -35.1,3.4 -52.6,1.4 z"
   class="st2" />
<path
   inkscape:connector-curvature="0"
   id="path243"
   d="m 31.2,75.402277 c -20.9,-16.1 -31,-30.7 -31.2,-30.4 2.3,8.5 5.3,16.8 8.8,24.9 24.8,22.1 55.1,37.200003 87.6,43.800003 2.3,-1.9 4.6,-3.6 7,-5.4 -28.9,-6.1 -54.8,-19.400003 -72.2,-32.900003 z"
   class="st2" />
<path
   inkscape:connector-curvature="0"
   id="path245"
   d="m 239.4,83.702277 c -7.4,4.7 -15.2,8.8 -23.2,12.4 -11.1,5.100003 -22.8,8.900003 -34.7,11.500003 -0.5,0.4 -0.9,0.7 -1.4,1.1 -1.6,1.3 -3.2,2.7 -4.7,4.1 24.1,-5.5 46.9,-15.700003 67.1,-30.000003 h -0.4 z"
   class="st2" />
<path
   inkscape:connector-curvature="0"
   id="path247"
   d="m 242.8,81.602277 -0.2,0.1 z"
   class="st2" />
<path
   inkscape:connector-curvature="0"
   id="path249"
   d="m 103.3,108.30228 c -2.4,1.7 -4.7,3.5 -7,5.4 2.8,0.6 5.6,1.1 8.4,1.5 2.2,-1.8 4.6,-3.6 6.9,-5.4 -2.7,-0.4 -5.5,-0.9 -8.3,-1.5 z"
   class="st2" />
<path
   inkscape:connector-curvature="0"
   id="path251"
   d="m 74.9,70.902277 c -3.1,5.6 -5.8,11.4 -8,17.3 7.4,-7.3 15.7,-13.7 24.6,-19.1 6.4,-3.9 13.2,-7.1 20.2,-9.7 -1.9,-1.6 -3.7,-3.2 -5.5,-4.8 -11.1,4 -21.6,9.5 -31.3,16.3 z"
   class="st3" />
<path
   inkscape:connector-curvature="0"
   id="path253"
   d="m 157.1,50.902277 c 25.3,-0.3 50.1,7.9 66.6,18.1 6,3.6 11.7,7.6 17.1,12 l 1.5,0.4 c -34.4,-31.6 -82.8,-42.8 -127.6,-29.6 1.7,1.6 3.5,3.2 5.4,4.8 12,-3.8 24.4,-5.7 37,-5.7 z"
   class="st3" />
<path
   inkscape:connector-curvature="0"
   id="path255"
   d="m 241.7,81.702277 h 0.9 l -0.4,-0.3 -1.5,-0.4 z"
   class="st3" />
<path
   inkscape:connector-curvature="0"
   id="path257"
   d="m 205.2,89.802277 c -7,2.8 -13.7,6.2 -20,10.300003 -4.4,2.8 -8.7,6 -12.7,9.4 3,-0.5 6,-1.1 9,-1.8 10.1,-8.100003 21.4,-14.400003 33.5,-18.800003 -3.2,0.4 -6.5,0.7 -9.8,0.9 z"
   class="st4" />
<path
   inkscape:connector-curvature="0"
   id="path259"
   d="m 242.8,82.702277 v 0 l -0.3,0.2 h 0.3 z"
   class="st4" />
<path
   inkscape:connector-curvature="0"
   id="path261"
   d="m 241.1,82.202277 c -0.5,-0.1 -1.1,-0.2 -1.6,-0.3 -8.8,0.6 -17.4,2.3 -25.8,4.9 2.9,-0.2 5.6,-0.5 8.3,-0.9 6.4,-0.8 12.8,-2 19.1,-3.7 z"
   class="st4" />
<path
   inkscape:connector-curvature="0"
   id="path263"
   d="m 134,168.50228 c 1,5.6 2.4,11.1 4.2,16.5 1.2,-9.2 3.5,-18.2 6.7,-26.9 6.6,-17.2 17,-32.7 30.5,-45.2 -2.8,0.6 -5.7,1.2 -8.5,1.7 -15.4,14.8 -26.8,33.4 -32.9,53.9 z"
   class="st4" />
<path
   inkscape:connector-curvature="0"
   id="path265"
   d="m 241.1,82.202277 0.9,-0.2 -0.2,-0.2 c -0.8,0 -1.5,0.1 -2.3,0.1 0.5,0.1 1,0.2 1.6,0.3 z"
   class="st4" />
<path
   inkscape:connector-curvature="0"
   id="path267"
   d="M 242.6,81.702277 Z"
   class="st4" />
<path
   inkscape:connector-curvature="0"
   id="path269"
   d="m 242.1,82.902277 h 0.4 l 0.2,-0.2 z"
   class="st4" />
<path
   inkscape:connector-curvature="0"
   id="path271"
   d="m 181.5,107.70228 c -2.9,0.6 -5.9,1.3 -9,1.8 -1.9,1.6 -3.8,3.4 -5.7,5.1 2.9,-0.5 5.7,-1.1 8.5,-1.7 1.5,-1.4 3.1,-2.8 4.7,-4.1 0.6,-0.4 1.1,-0.8 1.5,-1.1 z"
   class="st4" />
<path
   inkscape:connector-curvature="0"
   id="path273"
   d="m 242.7,81.802277 h 0.1 v 0 z"
   class="st4" />
<path
   inkscape:connector-curvature="0"
   id="path275"
   d="M 242.8,82.702277 Z"
   class="st4" />
<path
   inkscape:connector-curvature="0"
   id="path277"
   d="m 242.4,81.802277 0.2,-0.1 v 0 h -0.9 l 0.2,0.2 z"
   class="st4" />
<path
   inkscape:connector-curvature="0"
   id="path279"
   d="m 242.6,81.702277 -0.2,0.1 z"
   class="st4" />
<path
   inkscape:connector-curvature="0"
   id="path281"
   d="m 235.4,83.702277 c -7,1 -13.8,2.7 -20.4,5.2 8.3,-1 16.4,-2.7 24.4,-5.2 l 1.1,-0.7 c -1.6,0.2 -3.3,0.5 -5.1,0.7 z"
   class="st5" />
<path
   inkscape:connector-curvature="0"
   id="path283"
   d="m 205.2,89.802277 c 2.8,-1.1 5.6,-2.1 8.4,-3 -14.3,0.9 -28.6,-0.5 -42.5,-4 -3.1,0.7 -6.3,1.5 -9.4,2.4 14.2,3.9 28.9,5.4 43.5,4.6 z"
   class="st5" />
<path
   inkscape:connector-curvature="0"
   id="path285"
   d="M 95.9,29.302277 C 85.2,12.802277 81.8,-0.19772304 81.5,0.00227696 80.4,7.002277 79.8,14.102277 79.7,21.102277 c 7,12.5 15.9,23.8 26.4,33.4 2.8,-1 5.7,-2 8.6,-2.8 -7.1,-6.7 -13.4,-14.2 -18.8,-22.4 z"
   class="st5" />
<path
   inkscape:connector-curvature="0"
   id="path287"
   d="m 149.8,75.202277 c -10.8,-4.8 -20.8,-11.1 -29.7,-18.7 -2.9,0.9 -5.7,1.8 -8.4,2.9 12.7,10.5 27.2,18.5 42.8,23.6 3,-0.9 5.9,-1.7 8.9,-2.4 -4.6,-1.5 -9.2,-3.3 -13.6,-5.4 z"
   class="st5" />
<path
   inkscape:connector-curvature="0"
   id="path289"
   d="m 161.8,85.202277 c 3.1,-0.9 6.3,-1.7 9.4,-2.4 -2.6,-0.7 -5.1,-1.4 -7.7,-2.2 -3,0.7 -6,1.5 -8.9,2.4 1.1,0.4 2.2,0.8 3.3,1.1 1.3,0.4 2.6,0.7 3.9,1.1 z"
   class="st5" />
<path
   inkscape:connector-curvature="0"
   id="path291"
   d="m 239.4,83.702277 2.7,-0.9 -1.6,0.2 z"
   class="st5" />
<path
   inkscape:connector-curvature="0"
   id="path293"
   d="m 114.7,51.702277 c -2.9,0.8 -5.7,1.8 -8.6,2.8 1.8,1.7 3.6,3.3 5.5,4.8 2.7,-1 5.5,-2 8.4,-2.9 -1.8,-1.5 -3.6,-3.1 -5.3,-4.7 z"
   class="st5" />
<path
   inkscape:connector-curvature="0"
   id="path295"
   d="m 242.8,82.702277 v 0 z"
   class="st5" />
<path
   inkscape:connector-curvature="0"
   id="path297"
   d="m 221.9,85.902277 c -2.6,0.4 -5.4,0.7 -8.3,0.9 -2.8,0.9 -5.7,1.9 -8.4,3 3.3,-0.2 6.5,-0.5 9.8,-0.9 6.6,-2.4 13.4,-4.1 20.4,-5.2 1.8,-0.3 3.5,-0.5 5.1,-0.7 l 1.2,-0.8 -0.6,-0.1 c -6.3,1.8 -12.7,3 -19.2,3.8 z"
   class="st5" />
<path
   inkscape:connector-curvature="0"
   id="path299"
   d="m 242,82.002277 -0.9,0.2 0.6,0.1 0.4,-0.3 z"
   class="st5" />
<path
   inkscape:connector-curvature="0"
   id="path301"
   d="m 242.6,82.502277 -1,-0.2 -1.2,0.8 1.6,-0.2 0.6,-0.2 v 0 z"
   class="st5" />
<path
   inkscape:connector-curvature="0"
   id="path303"
   d="m 241.7,82.302277 1,0.2 -0.5,-0.5 z"
   class="st5" />
<path
   inkscape:connector-curvature="0"
   id="path305"
   d="m 242.8,81.702277 h -0.1 z"
   class="st5" />
<path
   inkscape:connector-curvature="0"
   id="path307"
   d="M 242.8,82.602277 Z"
   class="st5" />
<path
   inkscape:connector-curvature="0"
   id="path309"
   d="m 242.4,81.802277 -0.5,0.1 0.1,0.1 z"
   class="st5" />
<path
   inkscape:connector-curvature="0"
   id="path311"
   d="m 242.6,82.502277 0.2,0.1 v 0 0 z"
   class="st5" />
<path
   inkscape:connector-curvature="0"
   id="path313"
   d="m 242.8,81.902277 -0.1,-0.1 -0.2,0.1 -0.4,0.2 0.5,0.5 h 0.2 z"
   class="st5" />
<path
   inkscape:connector-curvature="0"
   id="path315"
   d="m 242.9,81.502277 v 0 z"
   class="st6" />
<path
   inkscape:connector-curvature="0"
   id="path317"
   d="m 242.8,81.702277 h 0.1 l 0.2,-0.1 -0.3,-0.1 h -0.1 z"
   class="st6" />
<path
   inkscape:connector-curvature="0"
   id="path319"
   d="M 243.7,82.802277 Z"
   class="st6" />
<path
   inkscape:connector-curvature="0"
   id="path321"
   d="m 242.8,82.702277 v 0 l 0.2,0.1 z"
   class="st6" />
<path
   inkscape:connector-curvature="0"
   id="path323"
   d="m 243.4,82.502277 0.3,0.3 c 1,-0.1 2,-0.1 2.9,-0.2 l -1.9,-0.5 z"
   class="st6" />
<path
   inkscape:connector-curvature="0"
   id="path325"
   d="m 243,81.702277 h -0.1 v 0 z"
   class="st6" />
<path
   inkscape:connector-curvature="0"
   id="path327"
   d="m 243,82.602277 -0.2,0.1 v 0 l 0.2,0.1 0.7,-0.1 z"
   class="st6" />
<path
   inkscape:connector-curvature="0"
   id="path329"
   d="m 243.7,82.802277 v 0 l -0.3,-0.3 -0.4,0.1 z"
   class="st6" />
<path
   inkscape:connector-curvature="0"
   id="path331"
   d="m 243.4,81.602277 h 0.9 l 0.7,-0.5 -1.8,0.5 z"
   class="st6" />
<path
   inkscape:connector-curvature="0"
   id="path333"
   d="m 243.2,81.602277 -0.2,0.1 h 0.4 z"
   class="st6" />
<path
   inkscape:connector-curvature="0"
   id="path335"
   d="m 244,81.802277 0.7,0.2 1.2,-0.4 h -1.7 z"
   class="st6" />
<path
   inkscape:connector-curvature="0"
   id="path337"
   d="m 243.4,82.502277 1.3,-0.5 -0.7,-0.2 -0.7,0.5 z"
   class="st6" />
<path
   inkscape:connector-curvature="0"
   id="path339"
   d="m 244.3,81.602277 h -0.9 l 0.6,0.2 z"
   class="st6" />
<path
   inkscape:connector-curvature="0"
   id="path341"
   d="m 242.8,81.902277 0.5,0.4 0.7,-0.5 -0.6,-0.2 h -0.4 -0.1 z"
   class="st6" />
<path
   inkscape:connector-curvature="0"
   id="path343"
   d="m 242.8,82.602277 v 0 l 0.2,-0.1 z"
   class="st6" />
<path
   inkscape:connector-curvature="0"
   id="path345"
   d="m 242.9,82.602277 h 0.1 l 0.4,-0.1 -0.1,-0.1 z"
   class="st6" />
<path
   inkscape:connector-curvature="0"
   id="path347"
   d="m 242.8,82.602277 v 0 z"
   class="st6" />
<path
   inkscape:connector-curvature="0"
   id="path349"
   d="m 242.9,82.602277 0.4,-0.2 -0.5,-0.4 z"
   class="st6" />
<path
   inkscape:connector-curvature="0"
   id="path351"
   d="m 240,69.902277 h 6 v 5.3 h 0.1 c 0.6,-2 4.8,-6.2 10.9,-6.2 5,0 8.5,2.1 10.6,6.3 2.2,-3.9 6.3,-6.3 10.8,-6.3 10.5,0 12.9,7.5 12.9,15 v 19.800003 h -6.4 V 84.902277 c 0,-5.2 -1.1,-9.9 -7.3,-9.9 -6.2,0 -8.7,4.2 -8.7,10.2 v 18.600003 h -6.5 V 86.002277 c 0,-6.5 -0.9,-11 -7.2,-11 -4.6,0 -8.8,3.5 -8.8,11.2 v 17.600003 h -6.5 z"
   class="st6" />
<path
   inkscape:connector-curvature="0"
   id="path353"
   d="m 306,89.302277 c 0,6 5.5,9.9 11.5,9.9 3.9,0 6.8,-2 9.3,-5.1 l 4.9,3.7 c -3.6,4.700003 -8.5,7.000003 -15,7.000003 -10.8,0 -17.5,-7.700003 -17.5,-17.800003 0,-10.1 7.4,-17.9 17.6,-17.9 12,0 16.6,9.2 16.6,17.9 v 2.3 z m 20.3,-5.2 c -0.1,-5.7 -3.3,-9.9 -9.8,-9.9 -5.6,0 -10.2,4.3 -10.5,9.9 z"
   class="st6" />
<path
   inkscape:connector-curvature="0"
   id="path355"
   d="m 375,103.90228 h -6.5 v -4.900003 h -0.1 c -2.5,3.700003 -7.2,5.700003 -11.8,5.700003 -10.5,0 -17.3,-7.800003 -17.3,-17.800003 0,-10.2 6.8,-17.9 17.3,-17.9 4.9,0 9.5,2.2 11.8,5.7 h 0.1 v -25 h 6.5 z m -6.5,-17.000003 c 0,-6.9 -4.3,-11.8 -11.2,-11.8 -6.9,0 -11.2,5 -11.2,11.8 0,6.8 4.3,11.8 11.2,11.8 6.9,0 11.2,-4.9 11.2,-11.8 z"
   class="st6" />
<path
   inkscape:connector-curvature="0"
   id="path357"
   d="m 388.5,53.002277 c 2.6,0 4.7,2.1 4.7,4.7 0,2.6 -2.1,4.7 -4.7,4.7 -2.6,0 -4.7,-2.1 -4.7,-4.7 0,-2.6 2.1,-4.7 4.7,-4.7 z m -3.2,16.9 h 6.5 v 34.000003 h -6.5 z"
   class="st6" />
<path
   inkscape:connector-curvature="0"
   id="path359"
   d="m 402.1,74.102277 c 3.7,-3.3 8.5,-5.1 13.5,-5 10,0 14.2,5.5 14.2,11.3 v 17.3 c 0,2.1 0.1,4.100003 0.3,6.200003 h -5.7 c -0.1,-1.7 -0.2,-3.4 -0.2,-5.200003 h -0.1 c -2.9,4.400003 -6.7,6.000003 -11.9,6.000003 -6.3,0 -11.8,-3.6 -11.8,-10.200003 0,-8.8 8.4,-11.8 18.7,-11.8 h 4.7 v -1.4 c 0,-3.5 -2.6,-7.2 -8.1,-7.2 -5,0 -7.3,2.1 -9.7,3.9 z m 18.2,13.4 c -6.1,0 -13.5,1.1 -13.5,6.5 0,3.9 2.9,5.5 7.3,5.5 7.2,0 9.7,-5.3 9.7,-9.9 v -2.1 c 0,0 -3.5,0 -3.5,0 z"
   class="st6" />
<path
   inkscape:connector-curvature="0"
   id="path361"
   d="m 457.4,75.502277 h -9.2 v 15.4 c 0,3.8 0,7.8 4.9,7.8 1.6,0.1 3.2,-0.3 4.6,-1 v 5.900003 c -1.8,0.8 -3.8,1.2 -5.8,1.1 -10,0 -10.1,-6.100003 -10.1,-11.500003 v -17.7 h -7.5 v -5.6 h 7.5 v -9.5 h 6.5 v 9.5 h 9.2 v 5.6 c 0,0 -0.1,0 -0.1,0 z"
   class="st6" />
<path
   inkscape:connector-curvature="0"
   id="path363"
   d="m 465.7,49.702277 h 6.5 v 25.4 h 0.1 c 1.7,-3.6 6,-6.1 11.2,-6.1 6.6,0 12.3,3.9 12.3,13 v 21.900003 h -6.5 V 83.802277 c 0,-6.4 -3.7,-8.8 -7.7,-8.8 -5.4,0 -9.5,3.4 -9.5,11.3 v 17.500003 h -6.5 V 49.702277 Z"
   class="st6" />
<path
   inkscape:connector-curvature="0"
   id="path365"
   d="m 505.5,69.902277 h 6.5 v 5.2 h 0.2 c 1.6,-3.6 5.9,-6.1 10.2,-6.1 1,0 1.9,0.1 2.9,0.4 l -0.3,7 c -1,-0.3 -2.1,-0.5 -3.2,-0.5 -6.3,0 -9.8,3.4 -9.8,10.9 v 17.000003 h -6.5 z"
   class="st6" />
<path
   inkscape:connector-curvature="0"
   id="path367"
   d="m 535.6,89.302277 c 0,6 5.5,9.9 11.5,9.9 4,0 6.8,-2 9.3,-5.1 l 4.9,3.7 c -3.6,4.700003 -8.5,7.000003 -15,7.000003 -10.8,0 -17.5,-7.700003 -17.5,-17.800003 0,-10.1 7.4,-17.9 17.6,-17.9 12,0 16.5,9.2 16.5,17.9 v 2.3 z m 20.4,-5.2 c -0.1,-5.7 -3.3,-9.9 -9.8,-9.9 -5.6,0 -10.2,4.3 -10.5,9.9 z"
   class="st6" />
<path
   inkscape:connector-curvature="0"
   id="path369"
   d="m 570.8,74.102277 c 3.7,-3.3 8.5,-5.1 13.5,-5 10,0 14.2,5.5 14.2,11.3 v 17.3 c 0,2.1 0.1,4.100003 0.3,6.200003 h -5.7 c -0.1,-1.7 -0.2,-3.4 -0.2,-5.200003 h -0.1 c -2.9,4.400003 -6.7,6.000003 -11.9,6.000003 -6.3,0 -11.8,-3.6 -11.8,-10.200003 0,-8.8 8.4,-11.8 18.7,-11.8 h 4.7 v -1.4 c 0,-3.5 -2.6,-7.2 -8.1,-7.2 -5,0 -7.3,2.1 -9.7,3.9 z m 18.2,13.4 c -6.1,0 -13.5,1.1 -13.5,6.5 0,3.9 2.9,5.5 7.3,5.5 7.2,0 9.7,-5.3 9.7,-9.9 v -2.1 c 0,0 -3.5,0 -3.5,0 z"
   class="st6" />
<path
   inkscape:connector-curvature="0"
   id="path371"
   d="m 641.9,103.90228 h -6.5 v -4.900003 h -0.1 c -2.5,3.700003 -7.2,5.700003 -11.8,5.700003 -10.5,0 -17.3,-7.800003 -17.3,-17.800003 0,-10.2 6.8,-17.9 17.3,-17.9 4.9,0 9.5,2.2 11.8,5.7 h 0.1 v -25 h 6.5 z m -6.5,-17.000003 c 0,-6.9 -4.3,-11.8 -11.2,-11.8 -6.9,0 -11.2,5 -11.2,11.8 0,6.8 4.3,11.8 11.2,11.8 6.9,0 11.2,-4.9 11.2,-11.8 z"
   class="st6" />
</svg>
