<?xml version="1.0" encoding="utf-8"?>
<!-- Generator: Adobe Illustrator 24.0.0, SVG Export Plug-In . SVG Version: 6.00 Build 0)  -->
<svg version="1.1" id="Layer_1" xmlns="http://www.w3.org/2000/svg" xmlns:xlink="http://www.w3.org/1999/xlink" x="0px" y="0px"
	 viewBox="0 0 723 249" style="enable-background:new 0 0 723 249;" xml:space="preserve">
<style type="text/css">
	.st0{fill:none;}
	.st1{fill:#1B75BC;}
	.st2{fill:#39B54A;}
	.st3{fill:#FFF200;}
	.st4{fill:#F7941D;}
	.st5{fill:#ED1C24;}
	.st6{fill:#FFFFFF;}
</style>
<title>mediathread5</title>
<path class="st0" d="M222.1,143.1c12-2.6,23.6-6.4,34.7-11.5c8-3.6,15.7-7.7,23.2-12.4c-8,2.4-16.1,4.1-24.4,5.2
	C243.5,128.7,232.2,135,222.1,143.1z"/>
<path class="st0" d="M254.3,122.2c8.4-2.6,17-4.3,25.8-4.9c-4.8-1-10.1-1.8-15.9-2.4c-15.1-1.8-33.6-1-52.4,3.3
	C225.7,121.7,240,123.1,254.3,122.2z"/>
<path class="st0" d="M245.8,125.2c-14.6,0.8-29.3-0.7-43.4-4.6c-18,5.3-35,13.6-50.1,24.7c2.8,0.4,5.6,0.8,8.4,1.1
	c17.5,2.1,35.2,1.5,52.6-1.5c4-3.4,8.3-6.5,12.7-9.4C232.2,131.4,238.9,127.9,245.8,125.2z"/>
<path class="st0" d="M281.4,116.4c-5.4-4.4-11.1-8.4-17.1-12C247.8,94.2,223,86,197.7,86.3c-12.5,0-25,1.9-37,5.6
	c8.9,7.7,18.9,14,29.7,18.7c4.4,2.1,9,3.9,13.7,5.4C229.5,110,256,110.1,281.4,116.4z"/>
<path class="st1" d="M179.3,129.3c7.5-3.5,15.2-6.5,23.1-8.7c-1.3-0.4-2.6-0.7-3.9-1.1c-1.1-0.3-2.2-0.7-3.3-1.1
	c-1.9,0.6-3.7,1.1-5.6,1.8c-16.3,5.4-31.7,13.4-45.6,23.6c2.8,0.6,5.5,1.1,8.3,1.5C160.7,139,169.7,133.7,179.3,129.3z"/>
<path class="st1" d="M283.2,117.1l0.2-0.1v-0.1l-0.6-0.1L283.2,117.1L283.2,117.1z"/>
<path class="st1" d="M97.4,195.5c-0.9,7.7-1.3,15.5-1.1,23.2c0.2,0.2,4.8-15,18.1-34.4c8.7-12.6,19.2-24,31.1-33.6
	c-2.8-0.5-5.6-1-8.4-1.5C121,162,107.6,177.7,97.4,195.5z"/>
<path class="st1" d="M264.1,114.9c5.8,0.6,11.2,1.4,15.9,2.4c0.8-0.1,1.5-0.1,2.3-0.1l-0.9-0.8c-25.4-6.3-51.9-6.4-77.3-0.4
	c2.6,0.8,5.1,1.5,7.7,2.2C230.5,113.9,249.1,113.1,264.1,114.9z"/>
<path class="st2" d="M160.6,146.4c-2.8-0.3-5.6-0.7-8.4-1.1c-2.4,1.8-4.7,3.5-6.9,5.4c20.6,3.2,41.6,3,62.2-0.6
	c1.8-1.8,3.7-3.5,5.7-5.1C195.8,147.9,178.1,148.4,160.6,146.4z"/>
<path class="st2" d="M71.8,110.8c-20.9-16.1-31-30.7-31.2-30.4c2.3,8.5,5.3,16.8,8.8,24.9c24.8,22.1,55.1,37.2,87.6,43.8
	c2.3-1.9,4.6-3.6,7-5.4C115.1,137.6,89.2,124.3,71.8,110.8z"/>
<path class="st2" d="M280,119.1c-7.4,4.7-15.2,8.8-23.2,12.4c-11.1,5.1-22.8,8.9-34.7,11.5c-0.5,0.4-0.9,0.7-1.4,1.1
	c-1.6,1.3-3.2,2.7-4.7,4.1c24.1-5.5,46.9-15.7,67.1-30h-0.4L280,119.1z"/>
<path class="st2" d="M283.4,117l-0.2,0.1L283.4,117L283.4,117z"/>
<path class="st2" d="M143.9,143.7c-2.4,1.7-4.7,3.5-7,5.4c2.8,0.6,5.6,1.1,8.4,1.5c2.2-1.8,4.6-3.6,6.9-5.4
	C149.5,144.8,146.7,144.3,143.9,143.7z"/>
<path class="st3" d="M115.5,106.3c-3.1,5.6-5.8,11.4-8,17.3c7.4-7.3,15.7-13.7,24.6-19.1c6.4-3.9,13.2-7.1,20.2-9.7
	c-1.9-1.6-3.7-3.2-5.5-4.8C135.7,94,125.2,99.5,115.5,106.3z"/>
<path class="st3" d="M197.7,86.3c25.3-0.3,50.1,7.9,66.6,18.1c6,3.6,11.7,7.6,17.1,12l1.5,0.4C248.5,85.2,200.1,74,155.3,87.2
	c1.7,1.6,3.5,3.2,5.4,4.8C172.7,88.2,185.1,86.3,197.7,86.3z"/>
<path class="st3" d="M282.3,117.1h0.9l-0.4-0.3l-1.5-0.4L282.3,117.1z"/>
<path class="st4" d="M245.8,125.2c-7,2.8-13.7,6.2-20,10.3c-4.4,2.8-8.7,6-12.7,9.4c3-0.5,6-1.1,9-1.8c10.1-8.1,21.4-14.4,33.5-18.8
	C252.4,124.7,249.1,125,245.8,125.2z"/>
<path class="st4" d="M283.4,118.1L283.4,118.1l-0.3,0.2h0.3V118.1L283.4,118.1z"/>
<path class="st4" d="M281.7,117.6c-0.5-0.1-1.1-0.2-1.6-0.3c-8.8,0.6-17.4,2.3-25.8,4.9c2.9-0.2,5.6-0.5,8.3-0.9
	C269,120.5,275.4,119.3,281.7,117.6z"/>
<path class="st4" d="M174.6,203.9c1,5.6,2.4,11.1,4.2,16.5c1.2-9.2,3.5-18.2,6.7-26.9c6.6-17.2,17-32.7,30.5-45.2
	c-2.8,0.6-5.7,1.2-8.5,1.7C192.1,164.8,180.7,183.4,174.6,203.9z"/>
<path class="st4" d="M281.7,117.6l0.9-0.2l-0.2-0.2c-0.8,0-1.5,0.1-2.3,0.1C280.6,117.4,281.1,117.5,281.7,117.6z"/>
<path class="st4" d="M283.2,117.1L283.2,117.1z"/>
<path class="st4" d="M282.7,118.3h0.4l0.2-0.2L282.7,118.3z"/>
<path class="st4" d="M222.1,143.1c-2.9,0.6-5.9,1.3-9,1.8c-1.9,1.6-3.8,3.4-5.7,5.1c2.9-0.5,5.7-1.1,8.5-1.7
	c1.5-1.4,3.1-2.8,4.7-4.1C221.2,143.8,221.7,143.4,222.1,143.1z"/>
<path class="st4" d="M283.3,117.2h0.1l0,0H283.3L283.3,117.2z"/>
<path class="st4" d="M283.4,118.1L283.4,118.1L283.4,118.1z"/>
<path class="st4" d="M283,117.2l0.2-0.1l0,0h-0.9l0.2,0.2L283,117.2z"/>
<path class="st4" d="M283.2,117.1l-0.2,0.1L283.2,117.1L283.2,117.1z"/>
<path class="st5" d="M276,119.1c-7,1-13.8,2.7-20.4,5.2c8.3-1,16.4-2.7,24.4-5.2l1.1-0.7C279.5,118.6,277.8,118.9,276,119.1z"/>
<path class="st5" d="M245.8,125.2c2.8-1.1,5.6-2.1,8.4-3c-14.3,0.9-28.6-0.5-42.5-4c-3.1,0.7-6.3,1.5-9.4,2.4
	C216.5,124.5,231.2,126,245.8,125.2z"/>
<path class="st5" d="M136.5,64.7c-10.7-16.5-14.1-29.5-14.4-29.3c-1.1,7-1.7,14.1-1.8,21.1c7,12.5,15.9,23.8,26.4,33.4
	c2.8-1,5.7-2,8.6-2.8C148.2,80.4,141.9,72.9,136.5,64.7z"/>
<path class="st5" d="M190.4,110.6c-10.8-4.8-20.8-11.1-29.7-18.7c-2.9,0.9-5.7,1.8-8.4,2.9c12.7,10.5,27.2,18.5,42.8,23.6
	c3-0.9,5.9-1.7,8.9-2.4C199.4,114.5,194.8,112.7,190.4,110.6z"/>
<path class="st5" d="M202.4,120.6c3.1-0.9,6.3-1.7,9.4-2.4c-2.6-0.7-5.1-1.4-7.7-2.2c-3,0.7-6,1.5-8.9,2.4c1.1,0.4,2.2,0.8,3.3,1.1
	C199.8,119.9,201.1,120.2,202.4,120.6z"/>
<path class="st5" d="M280,119.1l2.7-0.9l-1.6,0.2L280,119.1z"/>
<path class="st5" d="M155.3,87.1c-2.9,0.8-5.7,1.8-8.6,2.8c1.8,1.7,3.6,3.3,5.5,4.8c2.7-1,5.5-2,8.4-2.9
	C158.8,90.3,157,88.7,155.3,87.1z"/>
<path class="st5" d="M283.4,118.1L283.4,118.1L283.4,118.1L283.4,118.1z"/>
<path class="st5" d="M262.5,121.3c-2.6,0.4-5.4,0.7-8.3,0.9c-2.8,0.9-5.7,1.9-8.4,3c3.3-0.2,6.5-0.5,9.8-0.9
	c6.6-2.4,13.4-4.1,20.4-5.2c1.8-0.3,3.5-0.5,5.1-0.7l1.2-0.8l-0.6-0.1C275.4,119.3,269,120.5,262.5,121.3z"/>
<path class="st5" d="M282.6,117.4l-0.9,0.2l0.6,0.1l0.4-0.3L282.6,117.4z"/>
<path class="st5" d="M283.2,117.9l-1-0.2l-1.2,0.8l1.6-0.2l0.6-0.2l0,0V117.9z"/>
<path class="st5" d="M282.3,117.7l1,0.2l-0.5-0.5L282.3,117.7z"/>
<path class="st5" d="M283.4,117.1h-0.1H283.4L283.4,117.1z"/>
<path class="st5" d="M283.4,118L283.4,118L283.4,118z"/>
<path class="st5" d="M283,117.2l-0.5,0.1l0.1,0.1L283,117.2z"/>
<path class="st5" d="M283.2,117.9l0.2,0.1l0,0l0,0L283.2,117.9z"/>
<path class="st5" d="M283.4,117.3l-0.1-0.1l-0.2,0.1l-0.4,0.2l0.5,0.5h0.2V117.3z"/>
<path class="st6" d="M283.5,116.9L283.5,116.9L283.5,116.9L283.5,116.9z"/>
<path class="st6" d="M283.4,117.1h0.1l0.2-0.1l-0.3-0.1h-0.1L283.4,117.1L283.4,117.1z"/>
<path class="st6" d="M284.3,118.2L284.3,118.2z"/>
<path class="st6" d="M283.4,118.1L283.4,118.1l0.2,0.1L283.4,118.1z"/>
<path class="st6" d="M284,117.9l0.3,0.3c1-0.1,2-0.1,2.9-0.2l-1.9-0.5L284,117.9z"/>
<path class="st6" d="M283.6,117.1h-0.1l0,0H283.6z"/>
<path class="st6" d="M283.6,118l-0.2,0.1l0,0l0.2,0.1l0.7-0.1L283.6,118z"/>
<path class="st6" d="M284.3,118.2L284.3,118.2l-0.3-0.3l-0.4,0.1L284.3,118.2z"/>
<path class="st6" d="M284,117h0.9l0.7-0.5l-1.8,0.5H284z"/>
<path class="st6" d="M283.8,117l-0.2,0.1h0.4L283.8,117z"/>
<path class="st6" d="M284.6,117.2l0.7,0.2l1.2-0.4h-1.7L284.6,117.2z"/>
<path class="st6" d="M284,117.9l1.3-0.5l-0.7-0.2l-0.7,0.5L284,117.9z"/>
<path class="st6" d="M284.9,117H284l0.6,0.2L284.9,117z"/>
<path class="st6" d="M283.4,117.3l0.5,0.4l0.7-0.5L284,117h-0.4h-0.1L283.4,117.3z"/>
<path class="st6" d="M283.4,118L283.4,118l0.2-0.1L283.4,118L283.4,118z"/>
<path class="st6" d="M283.5,118h0.1l0.4-0.1l-0.1-0.1L283.5,118z"/>
<path class="st6" d="M283.4,118L283.4,118L283.4,118L283.4,118z"/>
<path class="st6" d="M283.5,118l0.4-0.2l-0.5-0.4L283.5,118L283.5,118z"/>
<path class="st6" d="M280.6,105.3h6v5.3h0.1c0.6-2,4.8-6.2,10.9-6.2c5,0,8.5,2.1,10.6,6.3c2.2-3.9,6.3-6.3,10.8-6.3
	c10.5,0,12.9,7.5,12.9,15v19.8h-6.4v-18.9c0-5.2-1.1-9.9-7.3-9.9s-8.7,4.2-8.7,10.2v18.6H303v-17.8c0-6.5-0.9-11-7.2-11
	c-4.6,0-8.8,3.5-8.8,11.2v17.6h-6.5L280.6,105.3z"/>
<path class="st6" d="M346.6,124.7c0,6,5.5,9.9,11.5,9.9c3.9,0,6.8-2,9.3-5.1l4.9,3.7c-3.6,4.7-8.5,7-15,7
	c-10.8,0-17.5-7.7-17.5-17.8s7.4-17.9,17.6-17.9c12,0,16.6,9.2,16.6,17.9v2.3L346.6,124.7z M366.9,119.5c-0.1-5.7-3.3-9.9-9.8-9.9
	c-5.6,0-10.2,4.3-10.5,9.9H366.9z"/>
<path class="st6" d="M415.6,139.3h-6.5v-4.9H409c-2.5,3.7-7.2,5.7-11.8,5.7c-10.5,0-17.3-7.8-17.3-17.8c0-10.2,6.8-17.9,17.3-17.9
	c4.9,0,9.5,2.2,11.8,5.7h0.1v-25h6.5V139.3z M409.1,122.3c0-6.9-4.3-11.8-11.2-11.8s-11.2,5-11.2,11.8s4.3,11.8,11.2,11.8
	S409.1,129.2,409.1,122.3L409.1,122.3z"/>
<path class="st6" d="M429.1,88.4c2.6,0,4.7,2.1,4.7,4.7s-2.1,4.7-4.7,4.7s-4.7-2.1-4.7-4.7S426.5,88.4,429.1,88.4z M425.9,105.3h6.5
	v34h-6.5V105.3z"/>
<path class="st6" d="M442.7,109.5c3.7-3.3,8.5-5.1,13.5-5c10,0,14.2,5.5,14.2,11.3v17.3c0,2.1,0.1,4.1,0.3,6.2H465
	c-0.1-1.7-0.2-3.4-0.2-5.2h-0.1c-2.9,4.4-6.7,6-11.9,6c-6.3,0-11.8-3.6-11.8-10.2c0-8.8,8.4-11.8,18.7-11.8h4.7v-1.4
	c0-3.5-2.6-7.2-8.1-7.2c-5,0-7.3,2.1-9.7,3.9L442.7,109.5z M460.9,122.9c-6.1,0-13.5,1.1-13.5,6.5c0,3.9,2.9,5.5,7.3,5.5
	c7.2,0,9.7-5.3,9.7-9.9v-2.1C464.4,122.9,460.9,122.9,460.9,122.9z"/>
<path class="st6" d="M498,110.9h-9.2v15.4c0,3.8,0,7.8,4.9,7.8c1.6,0.1,3.2-0.3,4.6-1v5.9c-1.8,0.8-3.8,1.2-5.8,1.1
	c-10,0-10.1-6.1-10.1-11.5v-17.7h-7.5v-5.6h7.5v-9.5h6.5v9.5h9.2v5.6C498.1,110.9,498,110.9,498,110.9z"/>
<path class="st6" d="M506.3,85.1h6.5v25.4h0.1c1.7-3.6,6-6.1,11.2-6.1c6.6,0,12.3,3.9,12.3,13v21.9h-6.5v-20.1
	c0-6.4-3.7-8.8-7.7-8.8c-5.4,0-9.5,3.4-9.5,11.3v17.5h-6.5V85.1H506.3z"/>
<path class="st6" d="M546.1,105.3h6.5v5.2h0.2c1.6-3.6,5.9-6.1,10.2-6.1c1,0,1.9,0.1,2.9,0.4l-0.3,7c-1-0.3-2.1-0.5-3.2-0.5
	c-6.3,0-9.8,3.4-9.8,10.9v17h-6.5L546.1,105.3L546.1,105.3z"/>
<path class="st6" d="M576.2,124.7c0,6,5.5,9.9,11.5,9.9c4,0,6.8-2,9.3-5.1l4.9,3.7c-3.6,4.7-8.5,7-15,7c-10.8,0-17.5-7.7-17.5-17.8
	s7.4-17.9,17.6-17.9c12,0,16.5,9.2,16.5,17.9v2.3L576.2,124.7z M596.6,119.5c-0.1-5.7-3.3-9.9-9.8-9.9c-5.6,0-10.2,4.3-10.5,9.9
	H596.6z"/>
<path class="st6" d="M611.4,109.5c3.7-3.3,8.5-5.1,13.5-5c10,0,14.2,5.5,14.2,11.3v17.3c0,2.1,0.1,4.1,0.3,6.2h-5.7
	c-0.1-1.7-0.2-3.4-0.2-5.2h-0.1c-2.9,4.4-6.7,6-11.9,6c-6.3,0-11.8-3.6-11.8-10.2c0-8.8,8.4-11.8,18.7-11.8h4.7v-1.4
	c0-3.5-2.6-7.2-8.1-7.2c-5,0-7.3,2.1-9.7,3.9L611.4,109.5z M629.6,122.9c-6.1,0-13.5,1.1-13.5,6.5c0,3.9,2.9,5.5,7.3,5.5
	c7.2,0,9.7-5.3,9.7-9.9v-2.1C633.1,122.9,629.6,122.9,629.6,122.9z"/>
<path class="st6" d="M682.5,139.3H676v-4.9h-0.1c-2.5,3.7-7.2,5.7-11.8,5.7c-10.5,0-17.3-7.8-17.3-17.8c0-10.2,6.8-17.9,17.3-17.9
	c4.9,0,9.5,2.2,11.8,5.7h0.1v-25h6.5V139.3z M676,122.3c0-6.9-4.3-11.8-11.2-11.8s-11.2,5-11.2,11.8s4.3,11.8,11.2,11.8
	S676,129.2,676,122.3L676,122.3z"/>
</svg>
