<?xml version="1.0" encoding="utf-8"?>
<!-- Generator: Adobe Illustrator 26.0.1, SVG Export Plug-In . SVG Version: 6.00 Build 0)  -->
<svg version="1.1" id="Layer_1" xmlns="http://www.w3.org/2000/svg" xmlns:xlink="http://www.w3.org/1999/xlink" x="0px" y="0px"
	 viewBox="0 0 783 281" style="enable-background:new 0 0 783 281;" xml:space="preserve">
<style type="text/css">
	.st0{fill:none;}
	.st1{fill:#1C75BC;}
	.st2{fill:#39B54A;}
	.st3{fill:#FFF200;}
	.st4{fill:#F7941D;}
	.st5{fill:#ED1C24;}
	.st6{fill:#FFFFFF;}
</style>
<g>
	<path class="st0" d="M228.8,152.7c14.1-3.1,27-7.5,37.9-12.6c10.1-4.5,18.5-9.3,25.3-13.5c-8.7,2.6-17.6,4.5-26.6,5.6
		C253.1,136.7,240.2,143.5,228.8,152.7z"/>
	<path class="st0" d="M293.6,123.6c-4.7-3.9-10.9-8.5-18.7-13.1c-18-11.1-45.1-20.1-72.7-19.7c-14.1-0.1-27.9,2.3-40.4,6.1
		c9.4,8,20.3,15.2,32.4,20.5c4.9,2.3,9.9,4.2,15,5.8C237.1,116.5,266.3,116.8,293.6,123.6z"/>
	<path class="st0" d="M254.7,133.2c-16,0.9-32-0.8-47.4-5c-8.5,2.5-17,5.6-25.2,9.5c-10.6,4.8-20.5,10.8-29.5,17.4
		c3,0.5,6.1,0.9,9.2,1.2c19.4,2.4,39.1,1.5,57.3-1.7c4.4-3.7,9.1-7.2,13.9-10.2C239.9,139.9,247.2,136.2,254.7,133.2z"/>
	<path class="st0" d="M263.9,129.9c9.2-2.9,18.7-4.7,28.2-5.4c-5.2-1-11-2-17.4-2.6c-16.5-1.9-36.7-1-57.2,3.6
		C233.6,129.6,249.8,130.8,263.9,129.9z"/>
	<path class="st0" d="M283.2,127.3c-0.1,0-0.2,0-0.3,0.1C283.1,127.4,283.1,127.3,283.2,127.3z"/>
	<path class="st1" d="M182.1,137.7c8.2-3.9,16.7-7.1,25.2-9.5c-1.4-0.4-2.9-0.8-4.3-1.2c-1.2-0.4-2.5-0.8-3.7-1.2
		c-2,0.6-4,1.2-6,1.9c-17.7,5.8-34.6,14.6-49.8,25.7c3,0.6,6,1.2,9.1,1.7C161.6,148.5,171.5,142.5,182.1,137.7z"/>
	<path class="st1" d="M92.7,209.9c-1.1,8.6-1.3,17.1-1.2,25.3c0.3,0.2,5.2-16.4,19.7-37.6c8-12,19.6-25,33.9-36.7
		c-3.1-0.5-6.1-1-9.2-1.7C118.7,173.3,103.9,190.4,92.7,209.9z"/>
	<path class="st1" d="M295.6,124.3c0.1,0,0.1-0.1,0.2-0.1v-0.1c-0.2-0.1-0.4-0.1-0.6-0.2C295.3,124.1,295.4,124.2,295.6,124.3
		L295.6,124.3z"/>
	<path class="st1" d="M274.7,121.9c6.4,0.7,12.2,1.6,17.4,2.6c0.8-0.1,1.6-0.1,2.4-0.2c-0.3-0.3-0.6-0.5-0.9-0.8
		c-27.3-6.8-56.5-7.1-84.4-0.5c2.8,0.9,5.6,1.7,8.4,2.4C238.1,120.9,258.3,120,274.7,121.9z"/>
	<path class="st2" d="M292.1,126.6c-6.8,4.3-15.3,9-25.3,13.5c-10.9,5.1-23.8,9.5-37.9,12.6c-0.5,0.4-1,0.8-1.5,1.2
		c-1.8,1.4-3.5,2.9-5.1,4.4c26.4-6,51.4-17.3,73.2-32.7c-0.1,0-0.3,0-0.4,0C294.1,126,293.1,126.3,292.1,126.6z"/>
	<path class="st2" d="M64.9,117.5C42,99.9,31,84,30.7,84.3c2.6,9,5.6,18.2,9.6,27.2c27.1,24.3,60.6,40.7,95.6,47.8
		c2.5-2,5-4,7.6-5.8C112,146.8,83.8,132.2,64.9,117.5z"/>
	<path class="st2" d="M161.7,156.3c-3.1-0.3-6.1-0.7-9.2-1.2c-2.6,1.9-5.1,3.8-7.5,5.8c10.7,1.7,21.4,2.5,32.2,2.4
		c12,0.1,23.9-1,35.6-3.1c2-1.9,4.1-3.8,6.2-5.6C200.9,157.8,181.2,158.7,161.7,156.3z"/>
	<path class="st2" d="M295.8,124.2c-0.1,0-0.1,0.1-0.2,0.1C295.7,124.3,295.7,124.3,295.8,124.2L295.8,124.2z"/>
	<path class="st2" d="M143.5,153.4c-2.6,1.9-5.1,3.8-7.6,5.8c3,0.6,6.1,1.2,9.2,1.7c2.4-2,4.9-3.9,7.5-5.8
		C149.5,154.6,146.5,154.1,143.5,153.4z"/>
	<path class="st3" d="M112.6,112.5c-3.5,6.2-6.3,12.6-8.7,18.9c0.1,0.2,9.3-10.2,26.8-20.8c6.3-3.8,13.7-7.5,22-10.6
		c-2.1-1.7-4.1-3.5-6.1-5.3C134.6,99.1,123.1,105,112.6,112.5z"/>
	<path class="st3" d="M202.2,90.8c27.6-0.4,54.7,8.7,72.7,19.7c7.7,4.6,14,9.2,18.7,13.1c0.5,0.1,1.1,0.3,1.6,0.4
		c-22.1-20.4-50.8-33.9-81.4-37.3c-19.2-2.3-39-0.6-57.8,4.9c1.9,1.8,3.8,3.5,5.8,5.2C174.3,93,188.1,90.6,202.2,90.8z"/>
	<path class="st3" d="M294.5,124.4c0.3,0,0.7,0,1,0c-0.1-0.1-0.2-0.2-0.4-0.3c-0.5-0.1-1.1-0.3-1.6-0.4
		C293.9,123.9,294.2,124.1,294.5,124.4z"/>
	<path class="st4" d="M176.9,219.1c1,6.2,2.7,12.3,4.6,18c0.2,0.1,0.9-12.2,7.3-29.3c5.7-15.5,17-34.5,33.4-49.3
		c-3.1,0.7-6.2,1.3-9.3,1.9C196.4,176.1,183.7,196.5,176.9,219.1z"/>
	<path class="st4" d="M254.7,133.2c-7.5,3-14.8,6.8-21.7,11.2c-4.8,3.1-9.5,6.5-13.9,10.2c3.3-0.6,6.5-1.2,9.7-1.9
		c11.4-9.2,24.2-16,36.6-20.5C261.9,132.7,258.3,133,254.7,133.2z"/>
	<path class="st4" d="M292.1,124.5c-9.5,0.7-18.9,2.5-28.2,5.4c3.1-0.2,6.1-0.5,9-0.9c3.5-0.4,6.9-1,10-1.6c0.1,0,0.2,0,0.3-0.1
		c3.9-0.8,7.4-1.6,10.6-2.4C293.3,124.8,292.7,124.6,292.1,124.5z"/>
	<path class="st4" d="M295.8,125.4C295.7,125.4,295.7,125.4,295.8,125.4c-0.1,0.1-0.2,0.1-0.3,0.2c0.1,0,0.2,0,0.3,0V125.4
		L295.8,125.4z"/>
	<path class="st4" d="M295.6,124.3L295.6,124.3C295.5,124.3,295.5,124.3,295.6,124.3L295.6,124.3z"/>
	<path class="st4" d="M293.9,124.9c0.3-0.1,0.7-0.2,1-0.3c-0.1-0.1-0.2-0.2-0.3-0.3c-0.8,0-1.6,0.1-2.4,0.2
		C292.7,124.6,293.3,124.8,293.9,124.9z"/>
	<path class="st4" d="M228.8,152.7c-3.2,0.7-6.4,1.3-9.7,1.9c-2.1,1.8-4.2,3.7-6.2,5.6c3.1-0.6,6.2-1.2,9.3-1.9
		c1.7-1.5,3.4-3,5.1-4.4C227.8,153.5,228.3,153.1,228.8,152.7z"/>
	<path class="st4" d="M295,125.7c0.1,0,0.3,0,0.4,0c0.1-0.1,0.2-0.1,0.2-0.2C295.5,125.5,295.3,125.6,295,125.7z"/>
	<path class="st4" d="M295.6,124.4c0.1,0,0.1,0,0.2,0v-0.1C295.7,124.3,295.7,124.3,295.6,124.4
		C295.6,124.3,295.6,124.3,295.6,124.4L295.6,124.4z"/>
	<path class="st4" d="M295.8,125.4L295.8,125.4L295.8,125.4z"/>
	<path class="st4" d="M295.4,124.5c0.1,0,0.1-0.1,0.2-0.1l0,0c-0.3,0-0.7,0-1,0c0.1,0.1,0.2,0.2,0.3,0.3
		C295,124.6,295.2,124.5,295.4,124.5z"/>
	<path class="st4" d="M295.6,124.4c-0.1,0-0.1,0.1-0.2,0.1C295.4,124.5,295.5,124.4,295.6,124.4L295.6,124.4z"/>
	<path class="st5" d="M287.7,126.6c-1.4,0.2-2.9,0.5-4.4,0.7c-0.1,0-0.2,0-0.3,0.1c-5.6,1.1-11.5,2.7-17.5,4.9
		c9-1.1,17.9-3,26.6-5.6c0.4-0.3,0.8-0.5,1.2-0.8C291.5,126,289.6,126.3,287.7,126.6z"/>
	<path class="st5" d="M254.7,133.2c3-1.2,6.1-2.3,9.2-3.3c-14.1,0.9-30.3-0.3-46.4-4.4c-3.4,0.8-6.8,1.7-10.3,2.7
		C222.7,132.4,238.7,134,254.7,133.2z"/>
	<path class="st5" d="M135.4,67.2c-11.7-18-15.4-32.2-15.7-32c-1.1,7.4-2,15.2-1.9,23.1c7.7,13.8,17.4,26.1,28.8,36.5
		c3.1-1.1,6.2-2.2,9.4-3.1C147.5,83.6,140.5,75.1,135.4,67.2z"/>
	<path class="st5" d="M194.2,117.3c-12.1-5.3-23-12.5-32.4-20.5c-3.1,1-6.2,2-9.2,3.1c13.9,11.4,29.7,20.2,46.7,25.8
		c3.2-1,6.5-1.9,9.8-2.6C204.1,121.5,199.1,119.6,194.2,117.3z"/>
	<path class="st5" d="M207.3,128.2c3.4-1,6.8-1.9,10.3-2.7c-2.8-0.7-5.6-1.5-8.4-2.4c-3.3,0.8-6.6,1.7-9.8,2.6
		c1.2,0.4,2.4,0.8,3.7,1.2C204.5,127.4,205.9,127.8,207.3,128.2z"/>
	<path class="st5" d="M292.1,126.6c1-0.3,2-0.6,3-0.9c-0.6,0.1-1.2,0.1-1.8,0.2C292.9,126.1,292.5,126.3,292.1,126.6z"/>
	<path class="st5" d="M155.9,91.6c-3.2,0.9-6.3,2-9.4,3.1c2,1.8,4,3.6,6.1,5.3c3-1.1,6-2.2,9.2-3.1
		C159.8,95.1,157.8,93.4,155.9,91.6z"/>
	<path class="st5" d="M283.2,127.3c1.5-0.3,3-0.5,4.4-0.7c1.9-0.3,3.8-0.5,5.6-0.7c0.4-0.3,0.9-0.5,1.3-0.8c-0.2,0-0.4-0.1-0.7-0.1
		C290.7,125.7,287.1,126.6,283.2,127.3z"/>
	<path class="st5" d="M263.9,129.9c-3.1,1-6.2,2.1-9.2,3.3c3.6-0.2,7.2-0.5,10.7-1c6.1-2.2,12-3.8,17.5-4.9c-3.1,0.6-6.5,1.1-10,1.6
		C270.1,129.4,267.1,129.7,263.9,129.9z"/>
	<path class="st5" d="M295.7,125.4L295.7,125.4C295.8,125.4,295.8,125.4,295.7,125.4L295.7,125.4z"/>
	<path class="st5" d="M294.8,124.6c-0.3,0.1-0.6,0.2-1,0.3c0.2,0,0.4,0.1,0.7,0.1c0.1-0.1,0.3-0.2,0.4-0.3
		C294.9,124.7,294.9,124.7,294.8,124.6z"/>
	<path class="st5" d="M295.6,125.3c-0.3-0.1-0.7-0.2-1-0.2c-0.4,0.3-0.8,0.5-1.3,0.8c0.6-0.1,1.2-0.1,1.8-0.2
		c0.2-0.1,0.4-0.1,0.7-0.2l0,0C295.7,125.4,295.6,125.3,295.6,125.3z"/>
	<path class="st5" d="M295.8,124.4c-0.1,0-0.1,0-0.2,0c0.1,0,0.1,0.1,0.2,0.1V124.4z"/>
	<path class="st5" d="M294.5,125c0.4,0.1,0.7,0.2,1,0.2c-0.2-0.2-0.4-0.3-0.6-0.5C294.8,124.8,294.7,124.9,294.5,125z"/>
	<path class="st5" d="M295.8,125.4L295.8,125.4L295.8,125.4L295.8,125.4L295.8,125.4z"/>
	<path class="st5" d="M295.4,124.5c-0.2,0-0.3,0.1-0.5,0.1l0.1,0.1C295.1,124.7,295.2,124.6,295.4,124.5z"/>
	<path class="st5" d="M295.6,125.3c0.1,0.1,0.1,0.1,0.2,0.2l0,0v-0.1C295.7,125.3,295.6,125.3,295.6,125.3z"/>
	<path class="st5" d="M295.8,124.6c-0.1,0-0.1-0.1-0.2-0.1s-0.2,0-0.3,0.1c-0.1,0.1-0.3,0.2-0.4,0.2c0.2,0.2,0.4,0.3,0.6,0.5
		c0.1,0,0.1,0,0.2,0L295.8,124.6L295.8,124.6z"/>
	<path class="st6" d="M295.9,124.2C295.8,124.2,295.8,124.2,295.9,124.2L295.9,124.2C295.8,124.2,295.8,124.2,295.9,124.2z"/>
	<path class="st6" d="M295.8,124.3c0.1,0,0.2,0,0.3,0c0.1,0,0.1,0,0.2,0c-0.1,0-0.2-0.1-0.4-0.1
		C295.8,124.2,295.8,124.2,295.8,124.3L295.8,124.3z"/>
	<path class="st6" d="M296.7,125.5C296.7,125.5,296.8,125.5,296.7,125.5C296.8,125.5,296.8,125.5,296.7,125.5L296.7,125.5z"/>
	<path class="st6" d="M295.8,125.4v0.2c0.1,0,0.1,0,0.2,0C295.9,125.5,295.8,125.5,295.8,125.4z"/>
	<path class="st6" d="M296,124.3c-0.1,0-0.2,0-0.3,0v0.1C295.9,124.4,295.9,124.3,296,124.3z"/>
	<path class="st6" d="M296,125.3c-0.1,0-0.1,0-0.2,0.1l0,0c0.1,0,0.1,0.1,0.2,0.1c0.3,0,0.5,0,0.8-0.1
		C296.5,125.5,296.2,125.4,296,125.3z"/>
	<path class="st6" d="M296.7,125.5L296.7,125.5c0-0.1-0.1-0.2-0.3-0.3c-0.2,0.1-0.3,0.1-0.5,0.2
		C296.2,125.4,296.5,125.5,296.7,125.5z"/>
	<path class="st6" d="M296.2,124.3c-0.1,0-0.1,0-0.2,0C296.1,124.3,296.2,124.3,296.2,124.3C296.3,124.3,296.3,124.3,296.2,124.3z"
		/>
	<path class="st6" d="M295.8,124.6c0.2,0.2,0.3,0.3,0.5,0.5c0.3-0.2,0.5-0.4,0.8-0.6c-0.2-0.1-0.5-0.1-0.7-0.2c-0.1,0-0.2,0-0.3,0
		c-0.1,0-0.2,0-0.3,0.1V124.6z"/>
	<path class="st6" d="M295.8,125.4L295.8,125.4c0.1,0,0.1,0,0.2,0C295.9,125.3,295.9,125.3,295.8,125.4
		C295.8,125.3,295.8,125.4,295.8,125.4z"/>
	<path class="st6" d="M295.9,125.3h0.1c0.2-0.1,0.3-0.1,0.5-0.2c-0.1-0.1-0.1-0.1-0.2-0.2C296.1,125.1,296,125.2,295.9,125.3z"/>
	<path class="st6" d="M295.8,125.3L295.8,125.3C295.8,125.4,295.8,125.3,295.8,125.3L295.8,125.3z"/>
	<path class="st6" d="M295.9,125.3c0.1-0.1,0.3-0.2,0.4-0.3c-0.2-0.2-0.3-0.3-0.5-0.5L295.9,125.3
		C295.8,125.3,295.8,125.3,295.9,125.3z"/>
</g>
<g>
	<path class="st6" d="M292.7,111.5h6.6v5.8h0.2c0.7-2.2,5.2-6.7,11.9-6.7c5.5,0,9.2,2.3,11.6,6.9c2.4-4.5,7.3-6.9,11.7-6.9
		c11.4,0,14.1,8.1,14.1,16.4v21.6h-7v-20.7c0-5.6-1.2-10.8-8-10.8s-9.5,4.6-9.5,11.2v20.3h-7v-19.4c0-7-1-12-7.8-12
		c-5.1,0-9.6,3.8-9.6,12.2v19.2h-7v-37.1H292.7z"/>
	<path class="st6" d="M364.7,132.6c0,6.5,6,10.8,12.5,10.8c4.3,0,7.4-2.2,10.2-5.6l5.3,4.1c-3.9,5.1-9.3,7.6-16.4,7.6
		c-11.7,0-19.1-8.4-19.1-19.5s8.1-19.5,19.2-19.5c13.1,0,18.1,10,18.1,19.6v2.5H364.7z M386.9,127c-0.2-6.2-3.6-10.8-10.7-10.8
		c-7,0-11.5,5.9-11.5,10.8H386.9z"/>
	<path class="st6" d="M440,148.6h-7v-5.3h-0.2c-2.7,4-7.9,6.3-12.9,6.3c-11.5,0-18.9-8.5-18.9-19.5c0-11.1,7.4-19.5,18.9-19.5
		c5.3,0,10.4,2.4,12.9,6.3h0.2V89.5h7V148.6z M433,130c0-7.5-4.7-12.9-12.2-12.9s-12.2,5.4-12.2,12.9s4.7,12.9,12.2,12.9
		S433,137.5,433,130z"/>
	<path class="st6" d="M454.7,93c2.8,0,5.2,2.3,5.2,5.2c0,2.9-2.3,5.2-5.2,5.2s-5.2-2.3-5.2-5.2S451.9,93,454.7,93z M451.2,111.5h7
		v37.1h-7V111.5z"/>
	<path class="st6" d="M469.6,116c3.9-3.7,9.5-5.5,14.7-5.5c11,0,15.5,5.9,15.5,12.4v18.9c0,2.6,0.1,4.8,0.3,6.7h-6.3
		c-0.2-1.9-0.2-3.8-0.2-5.6h-0.2c-3.1,4.8-7.4,6.6-13,6.6c-6.9,0-12.8-3.9-12.8-11.1c0-9.5,9.2-12.8,20.4-12.8h5.2V124
		c0-3.8-2.8-7.8-8.8-7.8c-5.4,0-8,2.3-10.6,4.2L469.6,116z M489.5,130.7c-6.6,0-14.8,1.2-14.8,7.1c0,4.2,3.1,6,8,6
		c7.8,0,10.6-5.8,10.6-10.8v-2.3L489.5,130.7L489.5,130.7z"/>
	<path class="st6" d="M529.9,117.6h-10.1v16.8c0,4.1,0,8.5,5.3,8.5c1.6,0,3.6-0.2,5-1.1v6.4c-1.6,0.9-4.9,1.3-6.3,1.3
		c-10.9,0-11-6.6-11-12.6v-19.3h-8.1v-6.1h8.1v-10.4h7v10.4h10.1V117.6z"/>
	<path class="st6" d="M539,89.4h7v27.8h0.2c1.8-3.9,6.5-6.6,12.2-6.6c7.2,0,13.5,4.3,13.5,14.2v23.9h-7v-21.9c0-7-4-9.5-8.4-9.5
		c-5.9,0-10.3,3.8-10.3,12.4v19.1h-7V89.4H539z"/>
	<path class="st6" d="M582.5,111.5h7v5.7h0.2c1.8-3.9,6.5-6.6,11.1-6.6c1.1,0,2.2,0.2,3.1,0.5l-0.3,7.6c-1.2-0.3-2.3-0.5-3.4-0.5
		c-6.9,0-10.6,3.8-10.6,11.9v18.6h-7L582.5,111.5L582.5,111.5z"/>
	<path class="st6" d="M615.3,132.6c0,6.5,6,10.8,12.5,10.8c4.3,0,7.4-2.2,10.2-5.6l5.3,4.1c-3.9,5.1-9.3,7.6-16.4,7.6
		c-11.7,0-19.1-8.4-19.1-19.5s8.1-19.5,19.2-19.5c13.1,0,18.1,10,18.1,19.6v2.5H615.3z M637.5,127c-0.2-6.2-3.6-10.8-10.7-10.8
		c-7,0-11.5,5.9-11.5,10.8H637.5z"/>
	<path class="st6" d="M653.7,116c3.9-3.7,9.5-5.5,14.7-5.5c11,0,15.5,5.9,15.5,12.4v18.9c0,2.6,0.1,4.8,0.3,6.7h-6.3
		c-0.2-1.9-0.2-3.8-0.2-5.6h-0.2c-3.1,4.8-7.4,6.6-13,6.6c-6.9,0-12.8-3.9-12.8-11.1c0-9.5,9.2-12.8,20.4-12.8h5.2V124
		c0-3.8-2.8-7.8-8.8-7.8c-5.4,0-8,2.3-10.6,4.2L653.7,116z M673.5,130.7c-6.6,0-14.8,1.2-14.8,7.1c0,4.2,3.1,6,8,6
		c7.8,0,10.6-5.8,10.6-10.8v-2.3L673.5,130.7L673.5,130.7z"/>
	<path class="st6" d="M731.3,148.6h-7v-5.3h-0.2c-2.7,4-7.9,6.3-12.9,6.3c-11.5,0-18.9-8.5-18.9-19.5c0-11.1,7.4-19.5,18.9-19.5
		c5.3,0,10.4,2.4,12.9,6.3h0.2V89.5h7V148.6z M724.2,130c0-7.5-4.7-12.9-12.2-12.9s-12.2,5.4-12.2,12.9s4.7,12.9,12.2,12.9
		S724.2,137.5,724.2,130z"/>
</g>
</svg>
