<?xml version="1.0" encoding="utf-8"?>
<!-- Generator: Adobe Illustrator 26.0.1, SVG Export Plug-In . SVG Version: 6.00 Build 0)  -->
<svg version="1.1" id="Layer_1" xmlns="http://www.w3.org/2000/svg" xmlns:xlink="http://www.w3.org/1999/xlink" x="0px" y="0px"
	 viewBox="0 0 1080 1387.2" style="enable-background:new 0 0 1080 1387.2;" xml:space="preserve">
<style type="text/css">
	.st0{opacity:0.25;}
	.st1{fill:none;}
	.st2{fill:#1C75BC;}
	.st3{fill:#39B54A;}
	.st4{fill:#FFF200;}
	.st5{fill:#F7941D;}
	.st6{fill:#ED1C24;}
	.st7{fill:#FFFFFF;}
</style>
<g class="st0">
	<path class="st1" d="M626.1,1032.4c-15.9,71.9-38.4,138-64.4,193.6c-23.1,51.3-47.3,94.6-69,129.3c13.5-44.5,23.1-90,28.8-136
		C544.2,1156.1,579,1090.3,626.1,1032.4z"/>
	<path class="st1" d="M477.3,1363c-19.9-24-43.6-55.8-67-95.3c-56.4-91.9-102.4-230.3-100.6-371.2c-0.6-72.1,11.7-142.7,31.1-206.3
		c40.6,47.9,77.4,103.5,104.4,165.5c11.5,24.9,21.4,50.5,29.7,76.4C441.1,1074.4,442.8,1223.5,477.3,1363z"/>
	<path class="st1" d="M526.2,1164.5c4.4-81.5-3.9-163.4-25.6-241.9c12.6-43.6,28.7-87,48.7-128.7c24.4-54.1,55-104.7,88.8-150.7
		c2.4,15.5,4.5,31.1,6.1,46.8c12.4,99.3,7.6,199.8-8.5,292.7c-19,22.5-36.5,46.2-52.2,70.9C560.7,1088.8,541.6,1126,526.2,1164.5z"
		/>
	<path class="st1" d="M509.5,1211.7c-14.7,47-23.8,95.3-27.4,143.7c-5.3-26.5-10-56.1-13.4-88.6c-9.9-84.1-5.3-187.3,18.4-291.8
		C508,1056.8,514.3,1139.5,509.5,1211.7z"/>
	<path class="st2" d="M549.4,793.8c-20,41.8-36.1,85.1-48.7,128.7c-2-7.3-4.1-14.6-6.4-21.8c-1.9-6.3-3.9-12.5-5.9-18.7
		c3.1-10.3,6.3-20.6,9.8-30.9c29.7-90.4,74.5-176.5,131.4-254.4c3.2,15.3,6.1,30.8,8.5,46.4C604.3,689.2,573.8,739.7,549.4,793.8z"
		/>
	<path class="st2" d="M917.8,337.5c43.7-5.7,87.3-6.9,129.3-6.3c0.9,1.4-83.6,26.8-191.8,100.6c-61,41.1-127.8,100.3-187.5,173.1
		c-2.5-15.6-5.3-31.2-8.5-46.8C730.9,470.2,818.4,394.6,917.8,337.5z"/>
	<path class="st2" d="M481,1373.3c-0.2,0.3-0.4,0.6-0.5,0.8h-0.4c-0.3-1-0.5-2.1-0.8-3.1c0.6,0.6,1.1,1.2,1.7,1.8
		C481,1373,481,1373.2,481,1373.3z"/>
	<path class="st2" d="M468.7,1266.8c3.3,32.5,8.1,62.1,13.4,88.6c-0.3,4.1-0.6,8.3-0.8,12.4c-1.3-1.6-2.7-3.2-4-4.8
		c-34.5-139.5-36.1-288.6-2.4-430.9c4.6,14.2,8.6,28.6,12.2,42.9C463.4,1079.5,458.8,1182.7,468.7,1266.8z"/>
	<path class="st3" d="M492.6,1355.2c21.7-34.7,46-77.9,69-129.3c26-55.7,48.5-121.7,64.4-193.6c2-2.5,4-5,6-7.5
		c7.3-9.1,14.9-17.8,22.7-26.3c-30.7,134.8-88.2,262.7-167.2,374c0.1-0.7,0.1-1.4,0.2-2.1C489.5,1365.4,491.1,1360.3,492.6,1355.2z"
		/>
	<path class="st3" d="M446.1,195.2C356.6,78.6,275,22.1,276.6,21c45.9,13.1,93.1,28.5,138.7,49.1c124,138.4,207.6,309.1,244.2,487.9
		c-10.3,12.6-20.2,25.6-29.8,38.7C595.8,436,521.3,292.1,446.1,195.2z"/>
	<path class="st3" d="M644.3,689.9c-1.6-15.7-3.7-31.3-6.1-46.8c9.7-13.2,19.6-25.9,29.8-38.3c8.6,54.4,12.8,109.4,12.5,164.3
		c0.3,61.2-5.2,122.1-15.9,181.9c-9.9,10.3-19.4,20.9-28.6,31.7C651.9,889.7,656.7,789.2,644.3,689.9z"/>
	<path class="st3" d="M480.5,1374.2c0.2-0.3,0.4-0.6,0.5-0.8c0,0.3,0,0.5,0,0.8H480.5z"/>
	<path class="st3" d="M629.7,596.7c9.6-13.1,19.5-26.1,29.8-38.7c3.2,15.5,6,31.1,8.5,46.8c-10.2,12.4-20.1,25.2-29.8,38.3
		C635.7,627.5,632.9,612,629.7,596.7z"/>
	<path class="st4" d="M420.8,438.7c31.4-17.9,64.4-32.1,96.5-44.5c1.2,0.7-52.1,47.3-106.3,137c-19.6,32-38.3,70-54.3,112.2
		c-8.7-10.5-17.6-20.9-26.9-31C352.2,551.2,382.6,492.6,420.8,438.7z"/>
	<path class="st4" d="M309.7,896.5c-1.8,140.9,44.2,279.3,100.6,371.2c23.4,39.5,47.1,71.3,67,95.3c0.7,2.7,1.4,5.4,2.1,8.1
		c-104-112.7-173.3-259.6-190.4-415.7c-11.8-98-3-199,25.1-295.1c9,9.6,17.9,19.6,26.7,29.9C321.4,753.8,309,824.4,309.7,896.5z"/>
	<path class="st4" d="M481.3,1367.8c-0.1,1.7-0.2,3.4-0.2,5.1c-0.6-0.6-1.1-1.2-1.7-1.8c-0.7-2.7-1.4-5.4-2.1-8.1
		C478.6,1364.6,480,1366.2,481.3,1367.8z"/>
	<path class="st5" d="M964.7,767.5c31.9,5.3,62.7,14,91.8,23.3c0.4,1.2-62.4,4.7-149.8,37.4c-78.9,29.1-175.9,87-251.8,170.3
		c3.6-15.8,6.8-31.7,9.7-47.7C745.5,866.6,849.4,801.9,964.7,767.5z"/>
	<path class="st5" d="M526.2,1164.5c15.3-38.4,34.5-75.7,57.4-110.9c15.7-24.7,33.2-48.4,52.2-70.9c-2.9,16.8-6.2,33.4-9.8,49.7
		c-47,58-81.9,123.7-104.7,186.9C523.6,1201,525.3,1182.8,526.2,1164.5z"/>
	<path class="st5" d="M482.1,1355.4c3.6-48.4,12.7-96.7,27.4-143.7c-1.1,15.9-2.6,31.4-4.8,46.1c-2.3,18-5.1,35-8.1,51
		c-0.1,0.4-0.2,0.9-0.3,1.3c-3.8,19.9-8.1,38-12.4,54.3C483.3,1361.5,482.7,1358.4,482.1,1355.4z"/>
	<path class="st5" d="M486.7,1374.1c0-0.1,0.1-0.2,0.1-0.3c0.3-0.4,0.6-0.8,0.9-1.2c0,0.5-0.1,1.1-0.2,1.6L486.7,1374.1
		C486.7,1374.2,486.7,1374.1,486.7,1374.1z"/>
	<path class="st5" d="M481,1373.3c0-0.2,0-0.3,0-0.5c0.1,0.1,0.1,0.1,0.2,0.2C481.2,1373.1,481.1,1373.3,481,1373.3z"/>
	<path class="st5" d="M483.9,1364.5c-0.4,1.7-0.9,3.3-1.3,4.9c-0.4-0.5-0.9-1.1-1.3-1.6c0.2-4.1,0.5-8.3,0.8-12.4
		C482.7,1358.4,483.3,1361.5,483.9,1364.5z"/>
	<path class="st5" d="M626.1,1032.4c3.6-16.3,6.9-32.9,9.8-49.7c9.2-10.9,18.7-21.4,28.6-31.7c-2.9,16-6.1,31.9-9.7,47.7
		c-7.8,8.5-15.4,17.2-22.7,26.3C630.1,1027.3,628.1,1029.9,626.1,1032.4z"/>
	<path class="st5" d="M487.8,1370.4c-0.1,0.7-0.1,1.4-0.2,2.1c-0.3,0.4-0.6,0.8-0.9,1.2C487.1,1372.7,487.5,1371.6,487.8,1370.4z"/>
	<path class="st5" d="M481.5,1373.4c-0.1,0.3-0.1,0.5-0.2,0.8H481c0-0.3,0-0.5,0-0.8c0.1-0.1,0.1-0.2,0.2-0.3
		C481.3,1373.2,481.4,1373.3,481.5,1373.4z"/>
	<path class="st5" d="M486.7,1374.2L486.7,1374.2C486.6,1374.2,486.6,1374.1,486.7,1374.2C486.7,1374.1,486.7,1374.2,486.7,1374.2z"
		/>
	<path class="st5" d="M481.9,1372c-0.2,0.3-0.5,0.7-0.7,1c-0.1-0.1-0.1-0.1-0.2-0.2c0.1-1.7,0.1-3.4,0.2-5.1
		c0.4,0.5,0.9,1.1,1.3,1.6C482.4,1370.3,482.1,1371.1,481.9,1372z"/>
	<path class="st5" d="M481.2,1373.1c0.2-0.3,0.5-0.7,0.7-1c-0.1,0.5-0.3,0.9-0.4,1.4C481.4,1373.3,481.3,1373.2,481.2,1373.1z"/>
	<path class="st6" d="M492.6,1332.8c1-7.4,2.3-15,3.8-22.7c0.1-0.4,0.2-0.9,0.3-1.3c5.4-28.4,13.6-58.6,24.8-89.5
		c-5.7,46-15.3,91.5-28.8,136c-1.3,2.1-2.6,4.1-3.8,6.1C489.8,1352.2,491,1342.7,492.6,1332.8z"/>
	<path class="st6" d="M526.2,1164.5c-6.2,15.6-11.8,31.3-16.8,47.2c4.8-72.1-1.5-154.9-22.3-236.7c4-17.5,8.5-35,13.5-52.4
		C522.4,1001.1,530.6,1083,526.2,1164.5z"/>
	<path class="st6" d="M189.3,555.5C97.6,495.8,25,476.8,25.9,475.4c37.8-5.6,77.6-10,117.7-9.9c70.4,39.1,133.1,89,186.2,146.9
		c-5.8,15.8-11,31.8-15.7,47.9C273.3,617.1,230,581.7,189.3,555.5z"/>
	<path class="st6" d="M445.2,855.7c-27.1-62-63.8-117.6-104.4-165.5c4.9-16.1,10.3-31.7,16-46.8c58.2,70.8,103,151.7,131.6,238.6
		c-5,16.6-9.5,33.3-13.5,50.1C466.6,906.2,456.7,880.6,445.2,855.7z"/>
	<path class="st6" d="M500.7,922.5c-5.1,17.5-9.6,34.9-13.5,52.4c-3.7-14.3-7.7-28.7-12.2-42.9c4-16.8,8.5-33.5,13.5-50.1
		c2,6.2,4,12.5,5.9,18.7C496.6,908,498.7,915.2,500.7,922.5z"/>
	<path class="st6" d="M492.6,1355.2c-1.5,5.1-3.1,10.1-4.8,15.2c0.3-3,0.6-6,0.9-9.1C490.1,1359.3,491.3,1357.3,492.6,1355.2z"/>
	<path class="st6" d="M314.1,660.3c4.7-16.1,10-32.1,15.7-47.9c9.3,10.1,18.2,20.4,26.9,31c-5.7,15.1-11.1,30.7-16,46.8
		C332,679.9,323.1,669.9,314.1,660.3z"/>
	<path class="st6" d="M496.3,1310.1c-1.4,7.7-2.8,15.3-3.8,22.7c-1.5,9.8-2.8,19.3-3.8,28.5c-1.4,2.2-2.8,4.4-4.1,6.5
		c-0.2-1.1-0.5-2.2-0.7-3.3C488.2,1348.2,492.5,1330,496.3,1310.1z"/>
	<path class="st6" d="M509.5,1211.7c5-15.9,10.6-31.6,16.8-47.2c-1,18.3-2.6,36.6-4.9,54.8c-11.1,30.9-19.3,61.1-24.8,89.5
		c3.1-16,5.8-33,8.1-51C506.8,1243,508.4,1227.6,509.5,1211.7z"/>
	<path class="st6" d="M486.8,1373.8c0,0.1-0.1,0.2-0.1,0.3c0,0,0-0.1-0.1-0.1C486.6,1374,486.7,1373.9,486.8,1373.8z"/>
	<path class="st6" d="M482.6,1369.4c0.4-1.6,0.9-3.3,1.3-4.9c0.2,1.1,0.5,2.2,0.7,3.3c-0.5,0.8-1,1.5-1.5,2.2
		C483,1369.8,482.8,1369.6,482.6,1369.4z"/>
	<path class="st6" d="M485.8,1373.1c-0.4-1.8-0.8-3.5-1.2-5.3c1.4-2.1,2.7-4.3,4.1-6.5c-0.3,3.1-0.7,6.1-0.9,9.1
		c-0.4,1.1-0.7,2.2-1.1,3.3c-0.1,0.1-0.1,0.2-0.2,0.3C486.3,1373.7,486.1,1373.4,485.8,1373.1z"/>
	<path class="st6" d="M482.3,1374.2h-1c0.1-0.3,0.1-0.5,0.2-0.8C481.8,1373.6,482,1373.9,482.3,1374.2z"/>
	<path class="st6" d="M484.6,1367.8c0.4,1.8,0.8,3.6,1.2,5.3c-0.9-1-1.7-2-2.6-3.1C483.7,1369.3,484.1,1368.6,484.6,1367.8z"/>
	<path class="st6" d="M486.6,1374C486.6,1374.1,486.6,1374.1,486.6,1374c0.1,0.1,0.1,0.1,0,0.1h-0.1
		C486.5,1374.1,486.6,1374.1,486.6,1374z"/>
	<path class="st6" d="M481.9,1372c0.2-0.9,0.5-1.7,0.7-2.6c0.2,0.2,0.4,0.4,0.6,0.7C482.8,1370.7,482.3,1371.4,481.9,1372z"/>
	<path class="st6" d="M486.6,1374l-0.1,0.1H486c-0.1-0.3-0.2-0.7-0.2-1C486.1,1373.4,486.3,1373.7,486.6,1374z"/>
	<path class="st6" d="M481.9,1372c0.4-0.6,0.8-1.3,1.3-2c0.9,1.1,1.8,2.1,2.6,3.1c0.1,0.3,0.2,0.7,0.2,1h-3.8
		c-0.2-0.3-0.5-0.5-0.8-0.8C481.7,1372.9,481.8,1372.5,481.9,1372z"/>
	<path class="st7" d="M480.2,1374.6c0-0.1-0.1-0.3-0.1-0.4h0.4C480.4,1374.3,480.3,1374.4,480.2,1374.6z"/>
	<path class="st7" d="M481,1374.2c0,0.4,0,0.9-0.1,1.3c-0.1,0.3-0.2,0.6-0.2,0.9c-0.2-0.6-0.3-1.2-0.5-1.8c0.1-0.1,0.2-0.3,0.3-0.4
		H481z"/>
	<path class="st7" d="M487.1,1378.9c0,0.2,0.1,0.3,0.1,0.5c0-0.1-0.1-0.1-0.1-0.2S487.1,1379,487.1,1378.9z"/>
	<path class="st7" d="M487.5,1374.2c0,0.3,0,0.5-0.1,0.8c-0.2-0.3-0.5-0.6-0.7-0.8H487.5z"/>
	<path class="st7" d="M481,1375.5c0-0.4,0-0.9,0.1-1.3h0.3C481.2,1374.6,481.1,1375,481,1375.5z"/>
	<path class="st7" d="M486.6,1374.2L486.6,1374.2c0.3,0.3,0.5,0.6,0.8,0.8c-0.1,1.3-0.2,2.6-0.3,3.9c-0.3-1.2-0.5-2.4-0.8-3.6
		C486.4,1374.9,486.5,1374.5,486.6,1374.2z"/>
	<path class="st7" d="M485.5,1377.6c0.3-0.8,0.5-1.5,0.8-2.3c0.3,1.2,0.5,2.4,0.8,3.6c0,0.1,0,0.2,0,0.3
		C486.5,1378.7,486,1378.1,485.5,1377.6z"/>
	<path class="st7" d="M480.9,1377.1c-0.1-0.2-0.1-0.5-0.2-0.7c0.1-0.3,0.2-0.6,0.2-0.9C480.9,1376,480.9,1376.5,480.9,1377.1z"/>
	<path class="st7" d="M481.3,1374.2h1c0.8,0.9,1.6,1.7,2.4,2.5c-1,1.3-1.9,2.7-2.9,4c-0.3-1.2-0.6-2.5-0.9-3.7c0-0.5,0-1.1,0.1-1.6
		C481.1,1375,481.2,1374.6,481.3,1374.2z"/>
	<path class="st7" d="M486.5,1374.2h0.1c-0.1,0.4-0.2,0.7-0.4,1.1c0-0.2-0.1-0.4-0.1-0.6C486.3,1374.5,486.4,1374.3,486.5,1374.2z"
		/>
	<path class="st7" d="M486.3,1375.2c-0.3,0.8-0.5,1.5-0.8,2.3c-0.3-0.3-0.5-0.6-0.8-0.8c0.5-0.7,1-1.4,1.5-2.1
		C486.2,1374.8,486.2,1375,486.3,1375.2z"/>
	<path class="st7" d="M486.1,1374.7c0-0.2-0.1-0.3-0.1-0.5h0.5C486.4,1374.3,486.3,1374.5,486.1,1374.7z"/>
	<path class="st7" d="M486,1374.2c0,0.2,0.1,0.3,0.1,0.5c-0.5,0.7-1,1.4-1.5,2.1c-0.8-0.8-1.6-1.7-2.4-2.5L486,1374.2L486,1374.2z"
		/>
</g>
</svg>
