<?xml version="1.0" encoding="utf-8"?>
<!-- Generator: Adobe Illustrator 26.0.1, SVG Export Plug-In . SVG Version: 6.00 Build 0)  -->
<svg version="1.1" id="Layer_1" xmlns="http://www.w3.org/2000/svg" xmlns:xlink="http://www.w3.org/1999/xlink" x="0px" y="0px"
	 viewBox="0 0 1377.5 1080" style="enable-background:new 0 0 1377.5 1080;" xml:space="preserve">
<style type="text/css">
	.st0{opacity:0.25;}
	.st1{fill:none;}
	.st2{fill:#1C75BC;}
	.st3{fill:#39B54A;}
	.st4{fill:#FFF200;}
	.st5{fill:#F7941D;}
	.st6{fill:#ED1C24;}
	.st7{fill:#FFFFFF;}
</style>
<g class="st0">
	<path class="st1" d="M1051.5,618.1c71.9-15.9,138-38.4,193.6-64.4c51.3-23.1,94.6-47.3,129.3-69c-44.5,13.5-90,23.1-136,28.8
		C1175.2,536.2,1109.5,571,1051.5,618.1z"/>
	<path class="st1" d="M1382.1,469.3c-24-19.9-55.8-43.6-95.3-67c-91.9-56.4-230.3-102.4-371.2-100.6
		c-72.1-0.6-142.7,11.7-206.3,31.1c47.9,40.6,103.5,77.4,165.5,104.4c24.9,11.5,50.5,21.4,76.4,29.7
		C1093.6,433.1,1242.7,434.8,1382.1,469.3z"/>
	<path class="st1" d="M1183.6,518.2c-81.5,4.4-163.4-3.9-241.9-25.6c-43.6,12.6-87,28.7-128.7,48.7c-54.1,24.4-104.7,55-150.7,88.8
		c15.5,2.4,31.1,4.5,46.8,6.1c99.3,12.4,199.8,7.6,292.7-8.5c22.5-19,46.2-36.5,70.9-52.2C1108,552.7,1145.2,533.6,1183.6,518.2z"/>
	<path class="st1" d="M1230.8,501.5c47-14.7,95.3-23.8,143.7-27.4c-26.5-5.3-56.1-10-88.6-13.4c-84.1-9.9-187.3-5.3-291.8,18.4
		C1076,500,1158.7,506.3,1230.8,501.5z"/>
	<path class="st2" d="M813,541.4c41.8-20,85.1-36.1,128.7-48.7c-7.3-2-14.6-4.1-21.8-6.4c-6.3-1.9-12.5-3.9-18.7-5.9
		c-10.3,3.1-20.6,6.3-30.9,9.8c-90.4,29.8-176.5,74.5-254.4,131.5c15.3,3.2,30.8,6.1,46.4,8.5C708.3,596.3,758.9,565.8,813,541.4z"
		/>
	<path class="st2" d="M356.7,909.8c-5.7,43.7-6.9,87.3-6.3,129.3c1.4,0.9,26.8-83.6,100.6-191.8c40.9-60.9,100.2-127.7,172.9-187.3
		c-15.6-2.5-31.2-5.3-46.8-8.5C489.4,722.9,413.8,810.4,356.7,909.8z"/>
	<path class="st2" d="M1392.5,473c0.3-0.2,0.6-0.4,0.8-0.5v-0.4c-1-0.3-2.1-0.5-3.1-0.8c0.6,0.6,1.2,1.1,1.8,1.7
		C1392.2,473,1392.4,473,1392.5,473z"/>
	<path class="st2" d="M1285.9,460.7c32.5,3.3,62.1,8.1,88.6,13.4c4.1-0.3,8.3-0.6,12.4-0.8c-1.6-1.3-3.2-2.7-4.8-4
		c-139.5-34.5-288.6-36.1-430.9-2.4c14.2,4.6,28.6,8.6,42.9,12.2C1098.6,455.4,1201.8,450.8,1285.9,460.7z"/>
	<path class="st3" d="M1374.4,484.6c-34.7,21.7-77.9,46-129.3,69c-55.7,26-121.7,48.5-193.6,64.4c-2.5,2-5,4-7.5,6
		c-9.1,7.3-17.8,14.9-26.3,22.7c134.8-30.7,262.7-88.2,374-167.2c-0.7,0.1-1.4,0.1-2.1,0.2C1384.5,481.5,1379.5,483.1,1374.4,484.6z
		"/>
	<path class="st3" d="M214.4,438.1C97.8,348.6,41.4,267,40.2,268.5c13.1,45.9,28.5,93.1,49.1,138.7
		c138.4,124,309.1,207.6,487.9,244.2c12.6-10.3,25.6-20.2,38.7-29.8C455.2,587.8,311.2,513.3,214.4,438.1z"/>
	<path class="st3" d="M709.1,636.3c-15.7-1.6-31.3-3.7-46.8-6.1c-13.2,9.7-25.9,19.6-38.3,29.8c54.4,8.6,109.4,12.8,164.3,12.5
		c61.2,0.3,122.1-5.2,181.9-15.9c10.3-9.9,20.9-19.4,31.7-28.6C908.9,643.9,808.3,648.7,709.1,636.3z"/>
	<path class="st3" d="M1393.3,472.5c-0.3,0.2-0.6,0.4-0.8,0.5c0.3,0,0.5,0,0.8,0V472.5z"/>
	<path class="st3" d="M615.9,621.7c-13.1,9.6-26.1,19.5-38.7,29.8c15.5,3.2,31.1,6,46.8,8.5c12.4-10.2,25.2-20.1,38.3-29.8
		C646.7,627.7,631.2,624.9,615.9,621.7z"/>
	<path class="st4" d="M457.9,412.8c-17.9,31.4-32.1,64.4-44.5,96.5c0.7,1.2,47.3-52.1,137-106.3c32-19.6,70-38.3,112.2-54.3
		c-10.5-8.7-20.9-17.6-31-26.9C570.4,344.2,511.8,374.6,457.9,412.8z"/>
	<path class="st4" d="M915.6,301.7c140.9-1.8,279.3,44.2,371.2,100.6c39.5,23.4,71.3,47.1,95.3,67c2.7,0.7,5.4,1.4,8.1,2.1
		C1277.6,367.5,1130.6,298.1,974.6,281c-98-11.8-199-3-295.1,25.1c9.6,9,19.6,17.9,29.9,26.7C773,313.4,843.6,301,915.6,301.7z"/>
	<path class="st4" d="M1387,473.3c1.7-0.1,3.4-0.2,5.1-0.2c-0.6-0.6-1.2-1.1-1.8-1.7c-2.7-0.7-5.4-1.4-8.1-2.1
		C1383.8,470.6,1385.4,472,1387,473.3z"/>
	<path class="st5" d="M786.7,956.7c5.3,31.9,14,62.7,23.3,91.8c1.2,0.4,4.7-62.4,37.4-149.8c29.1-78.9,87-175.9,170.3-251.8
		c-15.8,3.6-31.7,6.8-47.7,9.7C885.7,737.5,821,841.4,786.7,956.7z"/>
	<path class="st5" d="M1183.6,518.2c-38.4,15.3-75.7,34.5-110.9,57.4c-24.7,15.7-48.4,33.2-70.9,52.2c16.8-2.9,33.4-6.2,49.7-9.8
		c58-47,123.7-81.9,186.9-104.7C1220.2,515.6,1201.9,517.3,1183.6,518.2z"/>
	<path class="st5" d="M1374.5,474.1c-48.4,3.6-96.7,12.7-143.7,27.4c15.9-1.1,31.4-2.6,46.1-4.8c18-2.3,35-5.1,51-8.1
		c0.4-0.1,0.9-0.2,1.3-0.3c19.9-3.8,38-8.1,54.3-12.4C1380.6,475.3,1377.6,474.7,1374.5,474.1z"/>
	<path class="st5" d="M1393.3,478.7c-0.1,0-0.2,0.1-0.3,0.1c-0.4,0.3-0.8,0.6-1.2,0.9c0.5,0,1.1-0.1,1.6-0.2L1393.3,478.7
		L1393.3,478.7z"/>
	<path class="st5" d="M1392.5,473c-0.2,0-0.3,0-0.5,0c0.1,0.1,0.1,0.1,0.2,0.2C1392.3,473.2,1392.4,473.1,1392.5,473z"/>
	<path class="st5" d="M1383.6,475.9c1.7-0.4,3.3-0.9,4.9-1.3c-0.5-0.4-1.1-0.9-1.6-1.3c-4.1,0.2-8.3,0.5-12.4,0.8
		C1377.6,474.7,1380.6,475.3,1383.6,475.9z"/>
	<path class="st5" d="M1051.5,618.1c-16.3,3.6-32.9,6.9-49.7,9.8c-10.9,9.2-21.4,18.7-31.7,28.6c16-2.9,31.9-6.1,47.7-9.7
		c8.5-7.8,17.2-15.4,26.3-22.7C1046.5,622.1,1049,620.1,1051.5,618.1z"/>
	<path class="st5" d="M1389.6,479.8c0.7-0.1,1.4-0.1,2.1-0.2c0.4-0.3,0.8-0.6,1.2-0.9C1391.8,479.1,1390.7,479.5,1389.6,479.8z"/>
	<path class="st5" d="M1392.5,473.5c0.3-0.1,0.5-0.1,0.8-0.2V473c-0.3,0-0.5,0-0.8,0c-0.1,0.1-0.2,0.1-0.3,0.2
		C1392.3,473.3,1392.4,473.4,1392.5,473.5z"/>
	<path class="st5" d="M1393.3,478.7L1393.3,478.7C1393.3,478.6,1393.3,478.6,1393.3,478.7L1393.3,478.7z"/>
	<path class="st5" d="M1391.2,473.9c0.3-0.2,0.7-0.5,1-0.7c-0.1-0.1-0.1-0.1-0.2-0.2c-1.7,0.1-3.4,0.1-5.1,0.2
		c0.5,0.4,1.1,0.9,1.6,1.3C1389.4,474.4,1390.3,474.1,1391.2,473.9z"/>
	<path class="st5" d="M1392.2,473.2c-0.3,0.2-0.7,0.5-1,0.7c0.5-0.1,0.9-0.3,1.4-0.4C1392.4,473.4,1392.3,473.3,1392.2,473.2z"/>
	<path class="st6" d="M1352,484.6c-7.4,1-15,2.3-22.7,3.8c-0.4,0.1-0.9,0.2-1.3,0.3c-28.4,5.4-58.6,13.6-89.5,24.8
		c46-5.7,91.5-15.3,136-28.8c2.1-1.3,4.1-2.6,6.1-3.8C1371.3,481.8,1361.8,483,1352,484.6z"/>
	<path class="st6" d="M1183.6,518.2c15.6-6.2,31.3-11.8,47.2-16.8c-72.1,4.8-154.9-1.5-236.7-22.3c-17.5,4-35,8.5-52.4,13.5
		C1020.3,514.4,1102.2,522.6,1183.6,518.2z"/>
	<path class="st6" d="M574.7,181.3C514.9,89.6,495.9,17,494.6,17.9c-5.6,37.8-10,77.6-9.9,117.7c39.1,70.4,89,133.1,146.9,186.2
		c15.8-5.8,31.8-11,47.9-15.7C636.3,265.3,600.8,222,574.7,181.3z"/>
	<path class="st6" d="M874.8,437.2c-62-27.1-117.6-63.8-165.5-104.4c-16.1,4.9-31.7,10.3-46.8,16c70.8,58.2,151.8,103.1,238.6,131.7
		c16.6-5,33.3-9.5,50.1-13.5C925.3,458.6,899.7,448.7,874.8,437.2z"/>
	<path class="st6" d="M941.7,492.7c17.5-5.1,34.9-9.6,52.4-13.5c-14.3-3.7-28.7-7.7-42.9-12.2c-16.8,4-33.5,8.5-50.1,13.5
		c6.2,2,12.5,4,18.7,5.9C927.1,488.6,934.4,490.7,941.7,492.7z"/>
	<path class="st6" d="M1374.4,484.6c5.1-1.5,10.1-3.1,15.2-4.8c-3,0.3-6,0.6-9.1,0.9C1378.5,482.1,1376.5,483.3,1374.4,484.6z"/>
	<path class="st6" d="M679.5,306.1c-16.1,4.7-32.1,10-47.9,15.7c10.1,9.3,20.4,18.2,31,26.9c15.1-5.7,30.7-11.1,46.8-16
		C699,324,689,315.1,679.5,306.1z"/>
	<path class="st6" d="M1329.3,488.3c7.7-1.4,15.3-2.8,22.7-3.8c9.8-1.5,19.3-2.8,28.5-3.8c2.2-1.4,4.4-2.8,6.5-4.1
		c-1.1-0.2-2.2-0.5-3.3-0.7C1367.3,480.2,1349.2,484.5,1329.3,488.3z"/>
	<path class="st6" d="M1230.8,501.5c-15.9,5-31.6,10.6-47.2,16.8c18.3-1,36.6-2.6,54.8-4.9c30.9-11.1,61.1-19.3,89.5-24.8
		c-16,3.1-33,5.8-51,8.1C1262.2,498.8,1246.7,500.4,1230.8,501.5z"/>
	<path class="st6" d="M1392.9,478.8c0.1,0,0.2-0.1,0.3-0.1c0,0-0.1,0-0.1-0.1C1393.1,478.6,1393,478.7,1392.9,478.8z"/>
	<path class="st6" d="M1388.6,474.6c-1.6,0.4-3.3,0.9-4.9,1.3c1.1,0.2,2.2,0.5,3.3,0.7c0.8-0.5,1.5-1,2.2-1.5
		C1389,475,1388.8,474.8,1388.6,474.6z"/>
	<path class="st6" d="M1392.3,477.8c-1.8-0.4-3.5-0.8-5.3-1.2c-2.1,1.4-4.3,2.7-6.5,4.1c3.1-0.3,6.1-0.7,9.1-0.9
		c1.1-0.4,2.2-0.7,3.3-1.1c0.1-0.1,0.2-0.1,0.3-0.2C1392.9,478.3,1392.6,478.1,1392.3,477.8z"/>
	<path class="st6" d="M1393.3,474.3v-1c-0.3,0.1-0.5,0.1-0.8,0.2C1392.8,473.8,1393.1,474,1393.3,474.3z"/>
	<path class="st6" d="M1387,476.6c1.8,0.4,3.6,0.8,5.3,1.2c-1-0.9-2-1.7-3.1-2.6C1388.5,475.7,1387.7,476.1,1387,476.6z"/>
	<path class="st6" d="M1393.2,478.6L1393.2,478.6C1393.3,478.7,1393.3,478.7,1393.2,478.6l0.1-0.1L1393.2,478.6z"/>
	<path class="st6" d="M1391.2,473.9c-0.9,0.2-1.7,0.5-2.6,0.7c0.2,0.2,0.4,0.4,0.7,0.6C1389.9,474.8,1390.5,474.3,1391.2,473.9z"/>
	<path class="st6" d="M1393.2,478.6l0.1-0.1V478c-0.3-0.1-0.7-0.2-1-0.2C1392.6,478.1,1392.9,478.3,1393.2,478.6z"/>
	<path class="st6" d="M1391.2,473.9c-0.6,0.4-1.3,0.8-2,1.3c1.1,0.9,2.1,1.8,3.1,2.6c0.3,0.1,0.7,0.2,1,0.2v-3.8
		c-0.3-0.2-0.5-0.5-0.8-0.8C1392.1,473.7,1391.6,473.8,1391.2,473.9z"/>
	<path class="st7" d="M1393.7,472.2c-0.1,0-0.3-0.1-0.4-0.1v0.4C1393.5,472.4,1393.6,472.3,1393.7,472.2z"/>
	<path class="st7" d="M1393.3,473c0.4,0,0.9,0,1.3-0.1c0.3-0.1,0.6-0.2,0.9-0.2c-0.6-0.2-1.2-0.3-1.8-0.5c-0.1,0.1-0.3,0.2-0.4,0.3
		V473z"/>
	<path class="st7" d="M1398,479.1c0.2,0,0.3,0.1,0.5,0.1c-0.1,0-0.1-0.1-0.2-0.1C1398.3,479.1,1398.1,479.1,1398,479.1z"/>
	<path class="st7" d="M1393.3,479.5c0.3,0,0.5,0,0.8-0.1c-0.3-0.2-0.6-0.5-0.8-0.7V479.5z"/>
	<path class="st7" d="M1394.6,473c-0.4,0-0.9,0-1.3,0.1v0.3C1393.8,473.2,1394.2,473.1,1394.6,473z"/>
	<path class="st7" d="M1393.3,478.6L1393.3,478.6c0.3,0.3,0.6,0.5,0.8,0.8c1.3-0.1,2.6-0.2,3.9-0.3c-1.2-0.3-2.4-0.5-3.6-0.8
		C1394,478.4,1393.7,478.5,1393.3,478.6z"/>
	<path class="st7" d="M1396.7,477.5c-0.8,0.3-1.5,0.5-2.3,0.8c1.2,0.3,2.4,0.5,3.6,0.8c0.1,0,0.2,0,0.3,0
		C1397.8,478.5,1397.3,478,1396.7,477.5z"/>
	<path class="st7" d="M1396.2,472.9c-0.2-0.1-0.5-0.1-0.7-0.2c-0.3,0.1-0.6,0.2-0.9,0.2C1395.2,472.9,1395.7,472.9,1396.2,472.9z"/>
	<path class="st7" d="M1393.3,473.3v1c0.9,0.8,1.7,1.6,2.5,2.4c1.3-1,2.7-1.9,4-2.9c-1.2-0.3-2.5-0.6-3.7-0.9c-0.5,0-1.1,0-1.6,0.1
		C1394.2,473.1,1393.8,473.2,1393.3,473.3z"/>
	<path class="st7" d="M1393.3,478.5v0.1c0.4-0.1,0.7-0.2,1.1-0.4c-0.2,0-0.4-0.1-0.6-0.1C1393.7,478.3,1393.5,478.4,1393.3,478.5z"
		/>
	<path class="st7" d="M1394.4,478.3c0.8-0.3,1.5-0.5,2.3-0.8c-0.3-0.3-0.6-0.5-0.8-0.8c-0.7,0.5-1.4,1-2.1,1.5
		C1394,478.2,1394.2,478.2,1394.4,478.3z"/>
	<path class="st7" d="M1393.8,478.1c-0.2,0-0.3-0.1-0.5-0.1v0.5C1393.5,478.4,1393.7,478.3,1393.8,478.1z"/>
	<path class="st7" d="M1393.3,478c0.2,0,0.3,0.1,0.5,0.1c0.7-0.5,1.4-1,2.1-1.5c-0.8-0.8-1.7-1.6-2.5-2.4L1393.3,478L1393.3,478z"/>
</g>
</svg>
