<?xml version="1.0" encoding="utf-8"?>
<!-- Generator: Adobe Illustrator 26.0.1, SVG Export Plug-In . SVG Version: 6.00 Build 0)  -->
<svg version="1.1" id="Layer_1" xmlns="http://www.w3.org/2000/svg" xmlns:xlink="http://www.w3.org/1999/xlink" x="0px" y="0px"
	 viewBox="0 0 1361.2 1080" style="enable-background:new 0 0 1361.2 1080;" xml:space="preserve">
<style type="text/css">
	.st0{opacity:0.25;}
	.st1{fill:none;}
	.st2{fill:#1C75BC;}
	.st3{fill:#39B54A;}
	.st4{fill:#FFF200;}
	.st5{fill:#F7941D;}
	.st6{fill:#ED1C24;}
	.st7{fill:#FFFFFF;}
</style>
<g class="st0">
	<path class="st1" d="M320.5,618.1c-71.9-15.9-138-38.4-193.6-64.4c-51.3-23.1-94.6-47.3-129.3-69c44.5,13.5,90,23.1,136,28.8
		C196.8,536.2,262.6,571,320.5,618.1z"/>
	<path class="st1" d="M-10.1,469.3c24-19.9,55.8-43.6,95.3-67c91.9-56.4,230.3-102.4,371.2-100.6c72.1-0.6,142.7,11.7,206.3,31.1
		c-47.9,40.6-103.5,77.4-165.5,104.4c-24.9,11.5-50.5,21.4-76.4,29.7C278.5,433.1,129.3,434.8-10.1,469.3z"/>
	<path class="st1" d="M188.4,518.2c81.5,4.4,163.4-3.9,241.9-25.6c43.6,12.6,87,28.7,128.7,48.7c54.1,24.4,104.7,55,150.7,88.8
		c-15.5,2.4-31.1,4.5-46.8,6.1c-99.3,12.4-199.8,7.6-292.7-8.5c-22.5-19-46.2-36.5-70.9-52.2C264,552.7,226.8,533.6,188.4,518.2z"/>
	<path class="st1" d="M141.2,501.5c-47-14.7-95.3-23.8-143.7-27.4c26.5-5.3,56.1-10,88.6-13.4c84.1-9.9,187.3-5.3,291.8,18.4
		C296.1,500,213.3,506.3,141.2,501.5z"/>
	<path class="st2" d="M559,541.4c-41.8-20-85.1-36.1-128.7-48.7c7.3-2,14.6-4.1,21.8-6.4c6.3-1.9,12.5-3.9,18.7-5.9
		c10.3,3.1,20.6,6.3,30.9,9.8c90.4,29.7,176.5,74.5,254.4,131.4c-15.3,3.2-30.8,6.1-46.4,8.5C663.7,596.3,613.2,565.8,559,541.4z"/>
	<path class="st2" d="M1015.4,909.8c5.7,43.7,6.9,87.3,6.3,129.3c-1.4,0.9-26.8-83.6-100.6-191.8c-41.1-61-100.3-127.8-173.1-187.5
		c15.6-2.5,31.2-5.3,46.8-8.5C882.6,722.9,958.2,810.4,1015.4,909.8z"/>
	<path class="st2" d="M-20.5,473c-0.3-0.2-0.6-0.4-0.8-0.5v-0.4c1-0.3,2.1-0.5,3.1-0.8c-0.6,0.6-1.2,1.1-1.8,1.7
		C-20.2,473-20.3,473-20.5,473z"/>
	<path class="st2" d="M86.1,460.7C53.6,464,24,468.8-2.5,474.1c-4.1-0.3-8.3-0.6-12.4-0.8c1.6-1.3,3.2-2.7,4.8-4
		c139.5-34.5,288.6-36.1,430.9-2.4c-14.2,4.6-28.6,8.6-42.9,12.2C273.4,455.4,170.2,450.8,86.1,460.7z"/>
	<path class="st3" d="M-2.4,484.6c34.7,21.7,77.9,46,129.3,69c55.7,26,121.7,48.5,193.6,64.4c2.5,2,5,4,7.5,6
		c9.1,7.3,17.8,14.9,26.3,22.7c-134.8-30.7-262.7-88.2-374-167.2c0.7,0.1,1.4,0.1,2.1,0.2C-12.5,481.5-7.5,483.1-2.4,484.6z"/>
	<path class="st3" d="M1157.6,438.1c116.6-89.5,173.1-171.1,174.2-169.5c-13.1,45.9-28.5,93.1-49.1,138.7
		c-138.4,124-309.1,207.6-487.9,244.2c-12.6-10.3-25.6-20.2-38.7-29.8C916.8,587.8,1060.8,513.3,1157.6,438.1z"/>
	<path class="st3" d="M662.9,636.3c15.7-1.6,31.3-3.7,46.8-6.1c13.2,9.7,25.9,19.6,38.3,29.8c-54.4,8.6-109.4,12.8-164.3,12.5
		c-61.2,0.3-122.1-5.2-181.9-15.9c-10.3-9.9-20.9-19.4-31.7-28.6C463.2,643.9,563.7,648.7,662.9,636.3z"/>
	<path class="st3" d="M-21.3,472.5c0.3,0.2,0.6,0.4,0.8,0.5c-0.3,0-0.5,0-0.8,0V472.5z"/>
	<path class="st3" d="M756.1,621.7c13.1,9.6,26.1,19.5,38.7,29.8c-15.5,3.2-31.1,6-46.8,8.5c-12.4-10.2-25.2-20.1-38.3-29.8
		C725.3,627.7,740.8,624.9,756.1,621.7z"/>
	<path class="st4" d="M914.1,412.8c17.9,31.4,32.1,64.4,44.5,96.5c-0.7,1.2-47.3-52.1-137-106.3c-32-19.6-70-38.3-112.2-54.3
		c10.5-8.7,20.9-17.6,31-26.9C801.6,344.2,860.3,374.6,914.1,412.8z"/>
	<path class="st4" d="M456.4,301.7c-140.9-1.8-279.3,44.2-371.2,100.6c-39.5,23.4-71.3,47.1-95.3,67c-2.7,0.7-5.4,1.4-8.1,2.1
		C94.5,367.4,241.4,298.1,397.4,281c98-11.8,199-3,295.1,25.1c-9.6,9-19.6,17.9-29.9,26.7C599.1,313.4,528.5,301,456.4,301.7z"/>
	<path class="st4" d="M-14.9,473.3c-1.7-0.1-3.4-0.2-5.1-0.2c0.6-0.6,1.2-1.1,1.8-1.7c2.7-0.7,5.4-1.4,8.1-2.1
		C-11.8,470.6-13.4,472-14.9,473.3z"/>
	<path class="st5" d="M585.3,956.7c-5.3,31.9-14,62.7-23.3,91.8c-1.2,0.4-4.7-62.4-37.4-149.8c-29.1-78.9-87-175.9-170.3-251.8
		c15.8,3.6,31.7,6.8,47.7,9.7C486.3,737.5,551,841.4,585.3,956.7z"/>
	<path class="st5" d="M188.4,518.2c38.4,15.3,75.7,34.5,110.9,57.4c24.7,15.7,48.4,33.2,70.9,52.2c-16.8-2.9-33.4-6.2-49.7-9.8
		c-58-47-123.7-81.9-186.9-104.7C151.8,515.6,170.1,517.3,188.4,518.2z"/>
	<path class="st5" d="M-2.5,474.1c48.4,3.6,96.7,12.7,143.7,27.4c-15.9-1.1-31.4-2.6-46.1-4.8c-18-2.3-35-5.1-51-8.1
		c-0.4-0.1-0.9-0.2-1.3-0.3c-19.9-3.8-38-8.1-54.3-12.4C-8.6,475.3-5.6,474.7-2.5,474.1z"/>
	<path class="st5" d="M-21.3,478.7c0.1,0,0.2,0.1,0.3,0.1c0.4,0.3,0.8,0.6,1.2,0.9c-0.5,0-1.1-0.1-1.6-0.2L-21.3,478.7
		C-21.3,478.7-21.3,478.7-21.3,478.7z"/>
	<path class="st5" d="M-20.5,473c0.2,0,0.3,0,0.5,0c-0.1,0.1-0.1,0.1-0.2,0.2C-20.3,473.2-20.4,473.1-20.5,473z"/>
	<path class="st5" d="M-11.6,475.9c-1.7-0.4-3.3-0.9-4.9-1.3c0.5-0.4,1.1-0.9,1.6-1.3c4.1,0.2,8.3,0.5,12.4,0.8
		C-5.6,474.7-8.6,475.3-11.6,475.9z"/>
	<path class="st5" d="M320.5,618.1c16.3,3.6,32.9,6.9,49.7,9.8c10.9,9.2,21.4,18.7,31.7,28.6c-16-2.9-31.9-6.1-47.7-9.7
		c-8.5-7.8-17.2-15.4-26.3-22.7C325.5,622.1,323,620.1,320.5,618.1z"/>
	<path class="st5" d="M-17.6,479.8c-0.7-0.1-1.4-0.1-2.1-0.2c-0.4-0.3-0.8-0.6-1.2-0.9C-19.8,479.1-18.7,479.5-17.6,479.8z"/>
	<path class="st5" d="M-20.5,473.5c-0.3-0.1-0.5-0.1-0.8-0.2V473c0.3,0,0.5,0,0.8,0c0.1,0.1,0.2,0.1,0.3,0.2
		C-20.3,473.3-20.4,473.4-20.5,473.5z"/>
	<path class="st5" d="M-21.3,478.7L-21.3,478.7C-21.3,478.6-21.3,478.6-21.3,478.7C-21.3,478.7-21.3,478.7-21.3,478.7z"/>
	<path class="st5" d="M-19.1,473.9c-0.3-0.2-0.7-0.5-1-0.7c0.1-0.1,0.1-0.1,0.2-0.2c1.7,0.1,3.4,0.1,5.1,0.2
		c-0.5,0.4-1.1,0.9-1.6,1.3C-17.4,474.4-18.3,474.1-19.1,473.9z"/>
	<path class="st5" d="M-20.2,473.2c0.3,0.2,0.7,0.5,1,0.7c-0.5-0.1-0.9-0.3-1.4-0.4C-20.4,473.4-20.3,473.3-20.2,473.2z"/>
	<path class="st6" d="M20,484.6c7.4,1,15,2.3,22.7,3.8c0.4,0.1,0.9,0.2,1.3,0.3c28.4,5.4,58.6,13.6,89.5,24.8
		c-46-5.7-91.5-15.3-136-28.8c-2.1-1.3-4.1-2.6-6.1-3.8C0.7,481.8,10.2,483,20,484.6z"/>
	<path class="st6" d="M188.4,518.2c-15.6-6.2-31.3-11.8-47.2-16.8c72.1,4.8,154.9-1.5,236.7-22.3c17.5,4,35,8.5,52.4,13.5
		C351.8,514.4,269.9,522.6,188.4,518.2z"/>
	<path class="st6" d="M797.4,181.3C857.1,89.6,876.1,17,877.4,17.9c5.6,37.8,10,77.6,9.9,117.7c-39.1,70.4-89,133.1-146.9,186.2
		c-15.8-5.8-31.8-11-47.9-15.7C735.7,265.3,771.2,222,797.4,181.3z"/>
	<path class="st6" d="M497.2,437.2c62-27.1,117.6-63.8,165.5-104.4c16.1,4.9,31.7,10.3,46.8,16C638.7,407,557.7,451.8,470.9,480.4
		c-16.6-5-33.3-9.5-50.1-13.5C446.7,458.6,472.3,448.7,497.2,437.2z"/>
	<path class="st6" d="M430.3,492.7c-17.5-5.1-34.9-9.6-52.4-13.5c14.3-3.7,28.7-7.7,42.9-12.2c16.8,4,33.5,8.5,50.1,13.5
		c-6.2,2-12.5,4-18.7,5.9C444.9,488.6,437.6,490.7,430.3,492.7z"/>
	<path class="st6" d="M-2.4,484.6c-5.1-1.5-10.1-3.1-15.2-4.8c3,0.3,6,0.6,9.1,0.9C-6.5,482.1-4.4,483.3-2.4,484.6z"/>
	<path class="st6" d="M692.6,306.1c16.1,4.7,32.1,10,47.9,15.7c-10.1,9.3-20.4,18.2-31,26.9c-15.1-5.7-30.7-11.1-46.8-16
		C673,324,683,315.1,692.6,306.1z"/>
	<path class="st6" d="M42.7,488.3c-7.7-1.4-15.3-2.8-22.7-3.8c-9.8-1.5-19.3-2.8-28.5-3.8c-2.2-1.4-4.4-2.8-6.5-4.1
		c1.1-0.2,2.2-0.5,3.3-0.7C4.7,480.2,22.9,484.5,42.7,488.3z"/>
	<path class="st6" d="M141.2,501.5c15.9,5,31.6,10.6,47.2,16.8c-18.3-1-36.6-2.6-54.8-4.9c-30.9-11.1-61.1-19.3-89.5-24.8
		c16,3.1,33,5.8,51,8.1C109.9,498.8,125.3,500.4,141.2,501.5z"/>
	<path class="st6" d="M-20.9,478.8c-0.1,0-0.2-0.1-0.3-0.1c0,0,0.1,0,0.1-0.1C-21.1,478.6-21,478.7-20.9,478.8z"/>
	<path class="st6" d="M-16.5,474.6c1.6,0.4,3.3,0.9,4.9,1.3c-1.1,0.2-2.2,0.5-3.3,0.7c-0.8-0.5-1.5-1-2.2-1.5
		C-17,475-16.7,474.8-16.5,474.6z"/>
	<path class="st6" d="M-20.3,477.8c1.8-0.4,3.5-0.8,5.3-1.2c2.1,1.4,4.3,2.7,6.5,4.1c-3.1-0.3-6.1-0.7-9.1-0.9
		c-1.1-0.4-2.2-0.7-3.3-1.1c-0.1-0.1-0.2-0.1-0.3-0.2C-20.9,478.3-20.6,478.1-20.3,477.8z"/>
	<path class="st6" d="M-21.3,474.3v-1c0.3,0.1,0.5,0.1,0.8,0.2C-20.8,473.8-21,474-21.3,474.3z"/>
	<path class="st6" d="M-14.9,476.6c-1.8,0.4-3.6,0.8-5.3,1.2c1-0.9,2-1.7,3.1-2.6C-16.4,475.7-15.7,476.1-14.9,476.6z"/>
	<path class="st6" d="M-21.2,478.6C-21.2,478.6-21.2,478.6-21.2,478.6c-0.1,0.1-0.1,0.1-0.1,0v-0.1
		C-21.3,478.5-21.2,478.6-21.2,478.6z"/>
	<path class="st6" d="M-19.1,473.9c0.9,0.2,1.7,0.5,2.6,0.7c-0.2,0.2-0.4,0.4-0.7,0.6C-17.8,474.8-18.5,474.3-19.1,473.9z"/>
	<path class="st6" d="M-21.2,478.6c0,0-0.1-0.1-0.1-0.1V478c0.3-0.1,0.7-0.2,1-0.2C-20.6,478.1-20.9,478.3-21.2,478.6z"/>
	<path class="st6" d="M-19.1,473.9c0.6,0.4,1.3,0.8,2,1.3c-1.1,0.9-2.1,1.8-3.1,2.6c-0.3,0.1-0.7,0.2-1,0.2v-3.8
		c0.3-0.2,0.5-0.5,0.8-0.8C-20.1,473.7-19.6,473.8-19.1,473.9z"/>
	<path class="st7" d="M-21.7,472.2c0.1,0,0.3-0.1,0.4-0.1v0.4C-21.4,472.4-21.6,472.3-21.7,472.2z"/>
	<path class="st7" d="M-21.3,473c-0.4,0-0.9,0-1.3-0.1c-0.3-0.1-0.6-0.2-0.9-0.2c0.6-0.2,1.2-0.3,1.8-0.5c0.1,0.1,0.3,0.2,0.4,0.3
		V473z"/>
	<path class="st7" d="M-26,479.1c-0.2,0-0.3,0.1-0.5,0.1c0.1,0,0.1-0.1,0.2-0.1C-26.2,479.1-26.1,479.1-26,479.1z"/>
	<path class="st7" d="M-21.3,479.5c-0.3,0-0.5,0-0.8-0.1c0.3-0.2,0.6-0.5,0.8-0.7V479.5z"/>
	<path class="st7" d="M-22.6,473c0.4,0,0.9,0,1.3,0.1v0.3C-21.7,473.2-22.2,473.1-22.6,473z"/>
	<path class="st7" d="M-21.3,478.6L-21.3,478.6c-0.3,0.3-0.6,0.5-0.8,0.8c-1.3-0.1-2.6-0.2-3.9-0.3c1.2-0.3,2.4-0.5,3.6-0.8
		C-22,478.4-21.7,478.5-21.3,478.6z"/>
	<path class="st7" d="M-24.7,477.5c0.8,0.3,1.5,0.5,2.3,0.8c-1.2,0.3-2.4,0.5-3.6,0.8c-0.1,0-0.2,0-0.3,0
		C-25.8,478.5-25.2,478-24.7,477.5z"/>
	<path class="st7" d="M-24.2,472.9c0.2-0.1,0.5-0.1,0.7-0.2c0.3,0.1,0.6,0.2,0.9,0.2C-23.1,472.9-23.7,472.9-24.2,472.9z"/>
	<path class="st7" d="M-21.3,473.3v1c-0.9,0.8-1.7,1.6-2.5,2.4c-1.3-1-2.7-1.9-4-2.9c1.2-0.3,2.5-0.6,3.7-0.9c0.5,0,1.1,0,1.6,0.1
		C-22.2,473.1-21.7,473.2-21.3,473.3z"/>
	<path class="st7" d="M-21.3,478.5v0.1c-0.4-0.1-0.7-0.2-1.1-0.4c0.2,0,0.4-0.1,0.6-0.1C-21.6,478.3-21.5,478.4-21.3,478.5z"/>
	<path class="st7" d="M-22.4,478.3c-0.8-0.3-1.5-0.5-2.3-0.8c0.3-0.3,0.6-0.5,0.8-0.8c0.7,0.5,1.4,1,2.1,1.5
		C-22,478.2-22.2,478.2-22.4,478.3z"/>
	<path class="st7" d="M-21.8,478.1c0.2,0,0.3-0.1,0.5-0.1v0.5C-21.5,478.4-21.6,478.3-21.8,478.1z"/>
	<path class="st7" d="M-21.3,478c-0.2,0-0.3,0.1-0.5,0.1c-0.7-0.5-1.4-1-2.1-1.5c0.8-0.8,1.7-1.6,2.5-2.4V478z"/>
</g>
</svg>
